<svg xmlns="http://www.w3.org/2000/svg" xmlns:xlink="http://www.w3.org/1999/xlink" width="1440" height="538"><defs><linearGradient id="a" x1="37.923%" x2="85.043%" y1="29.317%" y2="84.741%"><stop offset="0%" stop-color="#0096FF"/><stop offset="100%" stop-color="#0061FB"/></linearGradient><linearGradient id="c" x1="100%" x2="-96.649%" y1="50%" y2="36.15%"><stop offset="0%" stop-color="#016AFA"/><stop offset="100%" stop-color="#ADDFFF"/></linearGradient><linearGradient id="e" x1="50%" x2="50%" y1="0%" y2="100%"><stop offset="0%" stop-color="#F6E216"/><stop offset="100%" stop-color="#F7A011"/></linearGradient><linearGradient id="f" x1="50%" x2="54.565%" y1="0%" y2="87.408%"><stop offset="0%" stop-color="#90ED8D"/><stop offset=".097%" stop-color="#89EC8D"/><stop offset="100%" stop-color="#0FD88D"/></linearGradient><linearGradient id="g" x1="50%" x2="50%" y1="0%" y2="100%"><stop offset="0%" stop-color="#F6E216"/><stop offset="100%" stop-color="#F7A011"/></linearGradient><linearGradient id="h" x1="50%" x2="50%" y1="0%" y2="100%"><stop offset="0%" stop-color="#016AFA"/><stop offset="100%" stop-color="#ADDFFF"/></linearGradient><linearGradient id="j" x1="21.893%" x2="79.36%" y1="0%" y2="100%"><stop offset="0%" stop-color="#CDF8FF"/><stop offset="100%" stop-color="#00C4D6"/></linearGradient><linearGradient id="m" x1="50%" x2="50%" y1="0%" y2="100%"><stop offset="0%" stop-color="#31C8FD"/><stop offset="100%" stop-color="#84CAF7"/></linearGradient><linearGradient id="o" x1="50%" x2="50%" y1="0%" y2="100%"><stop offset="0%" stop-color="#448FFE"/><stop offset="100%" stop-color="#0046EF"/></linearGradient><linearGradient id="p" x1="50%" x2="50%" y1="0%" y2="100%"><stop offset="0%" stop-color="#F6D415"/><stop offset="100%" stop-color="#FFCE66"/></linearGradient><linearGradient id="q" x1="50%" x2="50%" y1="0%" y2="100%"><stop offset="0%" stop-color="#064AF0"/><stop offset="100%" stop-color="#062CE9"/></linearGradient><linearGradient id="r" x1="50%" x2="50%" y1="0%" y2="100%"><stop offset="0%" stop-color="#16D88D"/><stop offset="100%" stop-color="#0BC0C6"/></linearGradient><linearGradient id="t" x1="50%" x2="56.26%" y1="0%" y2="87.408%"><stop offset="0%" stop-color="#90ED8D"/><stop offset=".097%" stop-color="#89EC8D"/><stop offset="100%" stop-color="#0FD88D"/></linearGradient><linearGradient id="v" x1="50%" x2="50%" y1="0%" y2="100%"><stop offset="0%" stop-color="#FFE5E7"/><stop offset="100%" stop-color="#FFC7CA"/></linearGradient><linearGradient id="x" x1="50%" x2="50%" y1="0%" y2="100%"><stop offset="0%" stop-color="#EF793F"/><stop offset="100%" stop-color="#7D3315"/></linearGradient><linearGradient id="F" x1="64.396%" x2="28.806%" y1="28.911%" y2="62.822%"><stop offset="0%" stop-color="#FFE5E7"/><stop offset="100%" stop-color="#FFC7CA"/></linearGradient><linearGradient id="H" x1="50%" x2="50%" y1="0%" y2="100%"><stop offset="0%" stop-color="#66A4FF"/><stop offset="100%" stop-color="#0348B8"/></linearGradient><linearGradient id="K" x1="50%" x2="77.509%" y1="0%" y2="50%"><stop offset="0%" stop-color="gold"/><stop offset="100%" stop-color="#FFAE00"/></linearGradient><linearGradient id="M" x1="50%" x2="50%" y1=".882%" y2="100%"><stop offset="0%" stop-color="#FFE564"/><stop offset="100%" stop-color="#FFC03B"/></linearGradient><linearGradient id="O" x1="50%" x2="50%" y1="0%" y2="100%"><stop offset="0%" stop-color="#73A6D4"/><stop offset="100%" stop-color="#5281BA"/></linearGradient><linearGradient id="P" x1="50%" x2="50%" y1="0%" y2="100%"><stop offset="0%" stop-color="#B1D2F0"/><stop offset="100%" stop-color="#83AFE3"/></linearGradient><linearGradient id="Q" x1="50%" x2="50%" y1="0%" y2="100%"><stop offset="0%" stop-color="#EDF6FF"/><stop offset="100%" stop-color="#C0DDFF"/></linearGradient><linearGradient id="S" x1="50%" x2="50%" y1="0%" y2="100%"><stop offset="0%" stop-color="#016AFA"/><stop offset="100%" stop-color="#ADDFFF"/></linearGradient><linearGradient id="U" x1="50%" x2="50%" y1="0%" y2="100%"><stop offset="0%" stop-color="#16D88D"/><stop offset="100%" stop-color="#0BC0C6"/></linearGradient><linearGradient id="W" x1="50%" x2="50%" y1="0%" y2="100%"><stop offset="0%" stop-color="#016AFA"/><stop offset="100%" stop-color="#ADDFFF"/></linearGradient><linearGradient id="Y" x1="50%" x2="50%" y1="0%" y2="100%"><stop offset="0%" stop-color="#F6E216"/><stop offset="100%" stop-color="#F7A011"/></linearGradient><linearGradient id="aa" x1="50%" x2="55.608%" y1="0%" y2="87.408%"><stop offset="0%" stop-color="#90ED8D"/><stop offset=".097%" stop-color="#89EC8D"/><stop offset="100%" stop-color="#0FD88D"/></linearGradient><linearGradient id="ac" x1="50%" x2="58.623%" y1="10.494%" y2="79.557%"><stop offset="0%" stop-color="#90ED8D"/><stop offset=".097%" stop-color="#89EC8D"/><stop offset="100%" stop-color="#0FD88D"/></linearGradient><linearGradient id="ae" x1="50%" x2="58.623%" y1="29.145%" y2="65.603%"><stop offset="0%" stop-color="#90ED8D"/><stop offset=".097%" stop-color="#89EC8D"/><stop offset="100%" stop-color="#0FD88D"/></linearGradient><linearGradient id="ag" x1="50%" x2="53.104%" y1="0%" y2="87.408%"><stop offset="0%" stop-color="#90ED8D"/><stop offset=".097%" stop-color="#89EC8D"/><stop offset="100%" stop-color="#0FD88D"/></linearGradient><linearGradient id="ai" x1="50%" x2="52.915%" y1="0%" y2="87.408%"><stop offset="0%" stop-color="#90ED8D"/><stop offset=".097%" stop-color="#89EC8D"/><stop offset="100%" stop-color="#0FD88D"/></linearGradient><linearGradient id="ak" x1="50%" x2="58.623%" y1="41.256%" y2="56.542%"><stop offset="0%" stop-color="#90ED8D"/><stop offset=".097%" stop-color="#89EC8D"/><stop offset="100%" stop-color="#0FD88D"/></linearGradient><linearGradient id="am" x1="50%" x2="53.06%" y1="0%" y2="87.408%"><stop offset="0%" stop-color="#90ED8D"/><stop offset=".097%" stop-color="#89EC8D"/><stop offset="100%" stop-color="#0FD88D"/></linearGradient><linearGradient id="ao" x1="50%" x2="58.623%" y1="20.691%" y2="71.928%"><stop offset="0%" stop-color="#90ED8D"/><stop offset=".097%" stop-color="#89EC8D"/><stop offset="100%" stop-color="#0FD88D"/></linearGradient><linearGradient id="ap" x1="50%" x2="50%" y1="0%" y2="100%"><stop offset="0%" stop-color="#1BD88C"/><stop offset="100%" stop-color="#99E2A1"/></linearGradient><linearGradient id="aq" x1="50%" x2="50%" y1="0%" y2="100%"><stop offset="0%" stop-color="#1BD88C"/><stop offset="100%" stop-color="#99E2A1"/></linearGradient><linearGradient id="ar" x1="50%" x2="50%" y1="0%" y2="100%"><stop offset="0%" stop-color="#1BD88C"/><stop offset="100%" stop-color="#99E2A1"/></linearGradient><linearGradient id="as" x1="50%" x2="50%" y1="0%" y2="100%"><stop offset="0%" stop-color="#1BD88C"/><stop offset="100%" stop-color="#99E2A1"/></linearGradient><linearGradient id="at" x1="50%" x2="50%" y1="0%" y2="100%"><stop offset="0%" stop-color="#1BD88C"/><stop offset="100%" stop-color="#99E2A1"/></linearGradient><linearGradient id="au" x1="50%" x2="50%" y1="0%" y2="100%"><stop offset="0%" stop-color="#1BD88C"/><stop offset="100%" stop-color="#99E2A1"/></linearGradient><linearGradient id="av" x1="-41.331%" x2="90.979%" y1="56.858%" y2="42.136%"><stop offset="0%" stop-color="#0A5FFD"/><stop offset="100%" stop-color="#090724"/></linearGradient><linearGradient id="aw" x1="-41.331%" x2="90.979%" y1="60.839%" y2="37.57%"><stop offset="0%" stop-color="#0A5FFD"/><stop offset="100%" stop-color="#090724"/></linearGradient><linearGradient id="ax" x1="50%" x2="50%" y1="0%" y2="100%"><stop offset="0%" stop-color="#EF793F"/><stop offset="100%" stop-color="#7D3315"/></linearGradient><linearGradient id="az" x1="50%" x2="50%" y1="0%" y2="100%"><stop offset="0%" stop-color="#FFE5E7"/><stop offset="100%" stop-color="#FFC7CA"/></linearGradient><linearGradient id="aC" x1="50%" x2="50%" y1="0%" y2="100%"><stop offset="0%" stop-color="#FFE5E7"/><stop offset="100%" stop-color="#FFC7CA"/></linearGradient><linearGradient id="aF" x1="50%" x2="50%" y1="0%" y2="100%"><stop offset="0%" stop-color="#FFE5E7"/><stop offset="100%" stop-color="#FFC7CA"/></linearGradient><linearGradient id="aL" x1="50%" x2="50%" y1="0%" y2="71.196%"><stop offset="0%" stop-color="#31C8FD"/><stop offset="100%" stop-color="#04E"/></linearGradient><linearGradient id="aN" x1="50%" x2="88.403%" y1="38.005%" y2="55.568%"><stop offset="0%" stop-color="#FFC810"/><stop offset="100%" stop-color="#FFCE66"/></linearGradient><linearGradient id="aO" x1="90.052%" x2="35.983%" y1="87.795%" y2="30.945%"><stop offset="0%" stop-color="#0A5FFD"/><stop offset="100%" stop-color="#090724"/></linearGradient><linearGradient id="aP" x1="74.112%" x2="41.85%" y1="116.01%" y2="22.626%"><stop offset="0%" stop-color="#0A5FFD"/><stop offset="100%" stop-color="#090724"/></linearGradient><path id="d" d="M116.36 174.83c-17.76-13.024-39.45-22.343-65.066-27.957-38.425-8.421-46.623-10.72-50.847-27.713-4.223-16.993 22.437-23.166 39.027-23.166h46.478c6.89 11.924 10.335 22.717 10.335 32.38 2.848-11.893 4.273-21.339 4.273-28.339 8.258 1.225 13.663 2.374 16.214 3.447l.077 68.07-.49 3.278z"/><path id="n" d="M920 430c5.669-32 21.496-48 47.484-48 17.031 0 29.7 6.873 38.004 20.618 2.788-.872 5.857-1.308 9.206-1.308 7.887 0 14.223 2.42 19.009 7.257 3.256-1.895 7.108-2.843 11.555-2.843 12.994 0 20.908 8.092 23.742 24.276l-25.653-.001.001.001z"/><path id="s" d="M23.082 0c10.003 0 18.111 8.076 18.111 18.037 0 1.052-.09 2.083-.264 3.086 3.272 3.49 5.236 7.96 5.236 12.83 0 11.173-10.334 20.23-23.083 20.23C10.334 54.183 0 45.126 0 33.953c0-4.87 1.964-9.34 5.236-12.83a18.062 18.062 0 01-.264-3.086C4.972 8.076 13.08 0 23.082 0z"/><path id="u" d="M64.86 39.073c2.619-1.94 4.152-3.976 4.602-6.108-.754-4.804-.212-9.417 2.49-9.205 1.802.141 2.63 1.302 2.487 3.48 1.754-2.062 2.517-4.84 2.289-8.332 1.871 7.237 1.871 13.422 0 18.556-1.872 5.133-4.884 7.42-9.037 6.857-.122 3.818.119 7.055.724 9.711.908 3.984-8.242 8.511-12.286 8.511-2.696 0-3.216-6.864-1.56-20.593 4.242.022 7.673-.937 10.291-2.877z"/><path id="w" d="M14.068 42.423c-1.086-.07-2.158-.393-3.215-.97a6.91 6.91 0 00-3.362-.866c-3.801-.958-5.597-3.195-5.389-6.71.313-5.274 1.83-4.542.52-8.177-1.311-3.634.823-7.62 3.576-8.975 2.753-1.353 6.113-3.752 6.113-7.743 0-3.99 1.634-9.515 7.394-8.94 3.84.382 6.218 1.896 7.134 4.54.072 1.112.739 1.466 2 1.065 1.892-.603 7.106-.25 8.323 4.123.811 2.916.212 5.928-1.799 9.038.104 5.123-.63 8.31-2.205 9.564-2.36 1.88-3.204 2.468-4.319 4.773-1.115 2.305-4.767 7.106-11.75 8.884l-1.987.27-1.034.124z"/><path id="y" d="M6.91 0L0 92.411c13.464 3.661 21.661 3.086 24.59-1.725C27.52 85.875 32.183 55.646 38.58 0H6.91z"/><path id="A" d="M0 0l8.52 88.253c9.33 3.86 17.247 3.86 23.752 0L32.257.463 0 0z"/><path id="C" d="M90.185.43l14.826 93.189-46.165 1.111v-7.575L54.182 63.98l-5.004 30.75L.431 93.619 7.088 2.421z"/><path id="E" d="M0 13.545l12.772 21.802c2.942 4.58 5.63 7.62 8.063 9.115 2.432 1.496 9.648 7.288 21.645 17.374 2.493 2.046 4.238 4.079 5.235 6.098.998 2.02 5.086 6.986 12.265 14.898.51.559 1.385.699 2.623.419 1.857-.42 1.088-2.97 0-4.155-.725-.79-2.86-3.42-6.407-7.89l9.864 11.306c.693.57 1.535.507 2.527-.187 1.488-1.04.99-2.948 0-4.3-.66-.901-3.53-4.084-8.607-9.548l11.051 12.05c.94.568 1.886.472 2.839-.29 1.429-1.141 1.308-3.305.28-4.519-.684-.809-3.99-4.318-9.916-10.526l10.35 10.526c1.068.713 1.947.562 2.637-.454 1.035-1.523-.044-2.923-.858-3.88-.543-.638-4.391-4.823-11.545-12.556l6.213 6.039c1.078.468 1.906.26 2.485-.624.869-1.327.243-2.272-.661-3.396s-3.413-4.637-5.474-6.27c-2.06-1.632-4.755-3.287-5.93-3.287-1.177 0-4.21-1.795-6.455-3.289-2.243-1.493-8.004-7.395-14.028-13.756A426.743 426.743 0 0029.413 22.48L18.097 0 0 13.545z"/><path id="I" d="M0 9.092L12.622 2.01C14.573.745 16.166.113 17.402.113c1.852 0 8.787 2.14 11.769 3.34 1.988.8 3.345 1.916 4.071 3.348L27.33 5.559l-4.934 3.533-4.993 3.555L0 9.092z"/><path id="L" d="M43.312 13.575c22.178 0 40.157 17.98 40.157 40.158v21.741c0 22.179-17.979 40.158-40.157 40.158-22.178 0-40.158-17.98-40.158-40.158V53.733c0-22.179 17.98-40.158 40.158-40.158z"/><path id="N" d="M38.702 18.181c19.632 0 35.547 15.915 35.547 35.547v39.904c0 12.15-9.85 22-22 22H38.702c-19.633 0-35.548-15.915-35.548-35.547V53.728c0-19.632 15.915-35.547 35.548-35.547z"/><path id="R" d="M108.748 187.188c-16.366-24.15-29.095-37.319-38.186-39.508-13.637-3.283-24.085 4.937-22.075-6.752 2.01-11.689 21.008-18.171 39.498-6.667 18.49 11.505 23.64 44.977 22.175 51.55l-.562 2.05-.85-.673z"/><path id="T" d="M75.708 188.988c5.135-20.894 7.695-34.764 7.682-41.612-.004-1.775-3.69 4.997-3.849 3.436-.124-1.23 3.31-10.833 3.09-11.93a72.253 72.253 0 00-4.315-13.924c-3.484-8.243-8.067-15.064-13.748-20.463-.805-.764-8.536 4.902-9.384 4.195-.832-.693 5.221-7.76 4.348-8.399-4.722-3.45-13.194-6.827-25.417-10.13-3.75.252-5.647 2.35-5.69 6.296-.065 5.917 6.569 11.331 12.877 20.623 1.354 1.995 3.645 5.195 6.384 9.268.654.973 6.636-.03 13.227 5.335 1.707 1.799-9.65-.613-8.75.822 9.623 15.341 21.288 38.513 19.69 57.305l3.855-.822z"/><path id="V" d="M137.342 157.006c-14.88-8.854-25.287-22.311-31.222-40.37-8.902-27.09.112-24.236-10.51-38.136-10.62-13.901-13.514-30.57-13.59-42.086-.075-11.517-3.556-25.58-9.791-27.941 12.9 1.048 24.055 7.005 33.463 17.87 14.113 16.298 2.162 38.556 20.174 49.292 18.01 10.736 10.452 23.09 15.89 35.931 5.439 12.841 8.767 23.447 8.85 36.16l.062 9.369-13.326-.09z"/><path id="X" d="M110.017 163.317c-20.143-8.755-35.036-21.2-44.68-37.33C50.873 101.79 55.71 93.98 34.303 75.453 20.03 63.102 12.147 39.923 10.65 5.917c8.975 15.876 17.314 26.312 25.018 31.308 1.117.724 1.89 10.24 3.067 10.91 1.325.753.745-8.32 2.145-7.636 5.76 2.81 14.478 6.003 21.525 7.636 39.057 9.053 65.696 52.178 65.696 75.997 0 15.88-.527 32.045-1.58 48.495l-16.504-9.31z"/><path id="Z" d="M74.105 31.272C73.962 18.852 76 10.01 80.22 4.74c6.332-7.904 22.843-4.454 18 3.601-3.229 5.37-11.268 13.014-24.116 22.931z"/><path id="ab" d="M68.063 65.814c3.251-9.908 6.887-16.639 10.906-20.19 6.029-5.328 10.908-3.687 13.004-2.264 2.097 1.423 7.187 7.349-3.314 17.414-4.016 4.023-10.88 5.703-20.596 5.04z"/><path id="ad" d="M55.466 94.928c9.806-9.891 18.831-16.317 27.078-19.278 12.369-4.44 19.525.984 20.709 9.639 1.591 13.678-5.942 18.484-14.964 19.664-6.015.786-16.956-2.556-32.823-10.025z"/><path id="af" d="M68.857 58.16C57.495 53.864 50.764 47.445 48.66 38.904c-3.154-12.812 3.828-15.666 6.134-15.666 2.307 0 7.782-1.468 10.399 8.464 1.744 6.621 2.965 15.441 3.663 26.46z"/><path id="ah" d="M56.291 94.334c1.144-16.601-.458-28.315-4.805-35.142-6.52-10.241-16.086-8.518-18.348-5.659-2.261 2.859-2.203 11.541 1.965 19.301 2.778 5.173 9.841 12.34 21.188 21.5z"/><path id="aj" d="M30.869 130.952c15.896-11.9 27.431-18.13 34.604-18.69 10.76-.842 19.625 5.373 20.341 12.348.716 6.974-5.632 11.456-17.234 10.428-7.734-.685-20.305-2.047-37.711-4.086z"/><path id="al" d="M27.803 135.129c1.226-12.685-.31-25.32-4.609-37.905-4.276-11.26-14.605-10.116-17.98-6.86-3.377 3.256-8.44 9.504-1.636 25.973 4.535 10.98 12.61 17.244 24.225 18.792z"/><path id="an" d="M14.21 189.27c14.059-28.452 26.363-44.25 36.911-47.394 15.823-4.716 25.546 7.072 26.934 14.709 1.388 7.636-6.524 24.25-23.987 29.433-11.642 3.456-24.928 4.54-39.858 3.253z"/><path id="ay" d="M8.39 81.754c6.123-1.423 12.196-6.516 18.22-15.278 6.025-8.763 13.017-20.447 20.976-35.052 2.853-3.837 7.905-6.065 15.157-6.685 2.492.129 3.927-.45 4.305-1.733.278-1.374-.188-2.17-1.397-2.388l-6.845-.08h8.242c1.571-.042 2.438-.872 2.599-2.489.161-1.617-1.058-2.404-3.658-2.36l-9.042.361 10.759-.596c1.764-.25 2.703-1.177 2.82-2.78.115-1.601-1.044-2.437-3.478-2.507l-11.57 1.566 8.776-2.385c1.186-.817 1.538-1.83 1.057-3.037-.481-1.208-2.187-1.425-5.117-.652l-11.28 3.003 2.634-4.98c.748-1.9.406-3.078-1.027-3.531-2.148-.68-3.152 1.104-3.774 2.093-.623.99-2.068 5.44-3.375 6.418-1.308.978-3.93 4.698-4.396 9.81-.311 3.407-1.3 5.496-2.967 6.267L0 63.668l8.39 18.086z"/><path id="aB" d="M32.02 86.748l-8.047-57.882c-.032-3.475.36-5.934 1.176-7.375 1.223-2.162 1.744-5.182 1.22-7.963-.525-2.781-.3-7.883 0-9.68.3-1.795-.632-3.095-1.673-3.095-1.04 0-2.204.207-2.55 2.506-.347 2.3-.484 6.076-2.16 6.076-1.117 0-4.725-2.86-10.823-8.582C8.02-.104 6.916-.23 5.85.376c-1.065.605-.976 1.762.27 3.473l7.83 7.26-8.659-7.85c-1.16-.987-2.168-1.136-3.026-.446-1.288 1.036-.54 2.798.806 3.924.897.75 3.31 2.827 7.237 6.23l-7.76-6.434c-.756.096-1.316.348-1.678.758-.543.614-.572 1.839 0 2.377.381.359 2.822 2.405 7.322 6.14L1.74 10.71c-.694.117-1.196.397-1.505.84-.463.667-.233 1.893.636 2.469.58.384 2.876 2.427 6.89 6.13 3.442 3.561 5.025 7.047 4.75 10.457-.415 5.115-2.304 57.632-1.152 64.587l19.003-7.692 1.659-.753z"/><path id="aE" d="M56.796 76.285c-.892-1.375-1.947-1.719-3.165-1.031-1.827 1.03-1.1 6.566 2.637 9.196-2.54 8.041-6.593 13.193-12.157 15.454 5.86 6.154 12.232 7.424 19.118 3.812-1.626-3.29-1.938-7.608-.934-12.953 5.169 2.124 8.662.468 10.48-4.967 2.725-8.152-.292-16.058-1.094-17.058-.801-1-3.179-2.772-5.26.887-2.081 3.66-4.114 4.638-6.544 4.638-1.62 0-2.647.674-3.08 2.022z"/><path id="aG" d="M0 9.288l9.446 13.917c8.515.676 13.353-2.474 14.513-9.448L14.496 0 0 9.288z"/><path id="aI" d="M0 8.719L16.336 0c6.873.586 10.31 4.244 10.31 10.975L6.863 21.95 0 8.72z"/><path id="aK" d="M8.285 89.705c-3.13 22.847-5.631 40.706-7.502 53.578-1.948 12.633-.262 22.382 5.059 29.245 5.32 6.864 16.377 21.328 33.17 43.392l30.63-21.12-24.38-34.388c-4.72-5.98-6.47-13.35-5.25-22.114 1.22-8.764 2.41-21.307 3.573-37.632l22.537 45.772c6.576 9.594 14.129 12.165 22.659 7.712l47.583-25.793-14.665-25.993-21.559 11.334c-4.693 2.497-7.76 2.104-9.2-1.179L79.048 81.663c-.6-1.554-1.798-5.92-1.798-9.03 0-3.108 1.811-14.002 2.68-25.911-6.442-2.32-8.029-9.474-4.76-21.463l-3.879-.35 2.594-17.44c-.779.231-1.51.43-2.191.594a34.03 34.03 0 01-2.053.428l-1.46 16.417-34.276-2.102 7.122-18.358c-.384-.644-.813-1.347-1.285-2.11A55.743 55.743 0 0038.21 0l-8.95 22.45-5.75-.473c-.382 12.711-3.796 20.562-10.244 23.55v19.645c0 9.85-4.177 20.097-4.982 24.533z"/><filter id="b" width="130.3%" height="130.3%" x="-15.2%" y="-15.2%" filterUnits="objectBoundingBox"><feGaussianBlur in="SourceGraphic" stdDeviation="10 0"/></filter><filter id="i" width="130.3%" height="130.3%" x="-15.2%" y="-15.2%" filterUnits="objectBoundingBox"><feGaussianBlur in="SourceGraphic" stdDeviation="10 0"/></filter><filter id="k" width="131.6%" height="131.6%" x="-15.8%" y="-15.8%" filterUnits="objectBoundingBox"><feGaussianBlur in="SourceGraphic" stdDeviation="2"/></filter><radialGradient id="l" cx="75.873%" cy="23.717%" r="81.765%" fx="75.873%" fy="23.717%"><stop offset="0%" stop-color="#0E3AAD"/><stop offset="35.32%" stop-color="#0F2E92"/><stop offset="100%" stop-color="#090724"/></radialGradient><radialGradient id="aQ" cx="75.873%" cy="23.717%" r="81.765%" fx="75.873%" fy="23.717%"><stop offset="0%" stop-color="#FA6BDE"/><stop offset="64.68%" stop-color="#FF8EF4"/><stop offset="100%" stop-color="#F964D9"/></radialGradient></defs><g fill="none" fill-rule="evenodd"><path fill="#090724" d="M0 0h1440v1324H0z"/><circle cx="1186" cy="398" r="99" fill="url(#a)" filter="url(#b)" opacity=".3"/><g transform="matrix(-1 0 0 1 1363 314)"><path fill="url(#c)" d="M103.254 159.328c-29.607-15.016-54.684-17.448-75.232-7.295 33.514 2.337 57.785 13.488 72.814 33.452l2.418-26.157z" transform="rotate(-26 65.638 165.688)"/><use fill="#F4BB42" xlink:href="#d"/><use fill="url(#e)" xlink:href="#d"/><path fill="#115682" fill-rule="nonzero" d="M30.862 105.156c9.032 2.078 17.553 7.734 25.565 16.964a.116.116 0 01-.175.152c-7.982-9.195-16.462-14.824-25.442-16.89a.116.116 0 01.031-.229l.02.003zm39.094 19.029a.116.116 0 11.124.195c-13.12 8.32-25.348 12.887-36.686 13.699a.116.116 0 01-.124-.108.116.116 0 01.108-.124c11.296-.809 23.488-5.362 36.578-13.662zm.204-22.235a.116.116 0 01.163-.017c6.61 5.372 12.88 14.97 18.813 28.796a.116.116 0 01-.213.092c-5.92-13.795-12.17-23.364-18.746-28.708a.116.116 0 01-.017-.163zm30.165 34.294a.116.116 0 11.13.192l-.59.397c-9.577 6.435-16.884 10.558-21.925 12.369a.116.116 0 11-.078-.218c5.12-1.84 12.61-6.087 22.463-12.74z"/><path fill="#115682" fill-rule="nonzero" d="M.689 116.81c46.052-.93 86.07 8.493 120.047 28.272a.348.348 0 01-.35.601C86.524 125.971 46.632 116.577.703 117.505a.348.348 0 01-.014-.696z"/><path fill="url(#f)" d="M91.35 159.61C40.57 107.586 19.057 54.515 26.813.396 37.489-1.243 52.883 2.2 72.994 10.73l.15 22.637 12.55-14.554c10.29 7.616 17.67 13.826 22.136 18.633L89.286 77.838l5.033 8.833 25.292-32.83c14.762 17.433 26.11 45.599 34.047 84.499 11.904 58.35-42.9 39.84-55.432 27.918l-4.925-4.714-1.95-1.935z"/><path fill="#115682" fill-rule="nonzero" d="M23.55 1.21l-.086.013-.012.085c-7.761 54.158 13.765 107.263 64.57 159.31l1.952 1.936 4.926 4.716c3.254 3.095 9.138 6.468 15.662 8.897 7.371 2.745 14.875 4.076 21.307 3.527 7.532-.643 13.324-3.803 16.766-9.713 3.935-6.757 4.707-16.928 1.89-30.737-7.94-38.917-19.295-67.1-34.072-84.55l-.092-.11L91.087 87.39l-4.917-8.63 18.552-40.408-.053-.057c-4.383-4.716-11.562-10.78-21.537-18.191l-.7-.52-12.42 14.401-.148-22.404-.07-.03C49.664 3.013 34.252-.435 23.549 1.21zm45.552 10.3l.531.224.15 22.87 12.683-14.706.82.608c9.712 7.23 16.738 13.165 21.079 17.802l.082.087L85.91 78.771l5.148 9.036 25.31-32.853-.092-.11c14.747 17.415 26.09 45.564 34.022 84.447 2.807 13.757 2.039 23.873-1.863 30.573-3.401 5.84-9.125 8.962-16.586 9.599-6.32.539-13.693-.75-20.953-3.42l-.253-.094c-6.497-2.418-12.354-5.776-15.583-8.847l-4.925-4.714-1.949-1.934-1.514-1.56C37.505 107.916 16.436 55.941 23.458 2.964l.212-1.538-.085.013C34.129-.18 49.303 3.174 69.102 11.51z"/><path fill="#115682" fill-rule="nonzero" d="M57.929 7.102l.232.012-1.938 34.81-.231-.013zM40.394 64.589c13.842 7.067 26.998 11.68 39.467 13.836l.378.065-.039.228c-12.48-2.111-25.643-6.681-39.491-13.71l-.42-.213.105-.206zm19.913 42.886c9.783 2.333 23.05 2.903 39.798 1.71l.509-.037.017.231c-16.84 1.231-30.2.695-40.079-1.608l-.298-.07.053-.226zM75.05 71.651c2.6-7.149 4.093-17.059 4.48-29.728l.01-.385.232.007-.023.77c-.401 12.38-1.868 22.112-4.403 29.197l-.078.219-.218-.08z"/><path fill="#115682" fill-rule="nonzero" d="M27.859.871c.15-.101.35-.07.463.067l.02.027 117.315 173.67a.348.348 0 01-.556.417l-.02-.027L27.765 1.355A.348.348 0 0127.86.87z"/></g><path fill="url(#g)" d="M59.156 131.638c10.51-13.93 5.291-24.554 5.291-34.085 0-9.532.177-18.507 8.748-25.216 8.57-6.708 10.303-11.807 10.303-23.889 0-12.08 2.478-17.741 6.86-22.305 6.957-6.166 2.226-21.445-8.699-24.54-10.924-3.096-20.55 3.94-22.503 11.133-1.953 7.192-2.91 15.756-12.322 22.17-9.412 6.414-11.612 8.37-11.612 15.494 0 7.124 2.115 14.93-9.332 20.914-22.153 4.844-41.923 53.763-3.519 67.127 17.517 4.751 29.779 2.484 36.785-6.803z" transform="scale(-1 1) rotate(-21 324.257 3304.499)"/><path fill="#115682" fill-rule="nonzero" d="M1085.905 322.464a.406.406 0 00-.444-.355.392.392 0 00-.355.433c10.312 91.438 9.51 164.36-2.4 218.758a.402.402 0 00.308.474.396.396 0 00.477-.298c11.932-54.493 12.735-127.496 2.414-219.012z"/><path fill="#115682" fill-rule="nonzero" d="M1075.487 356.47a.15.15 0 00-.2-.09.169.169 0 00-.094.211c2.857 7.943 8.181 15.242 15.969 21.896a.154.154 0 00.22-.025.165.165 0 00-.016-.228c-7.75-6.62-13.042-13.876-15.879-21.765zm2 59a.15.15 0 00-.2-.09.169.169 0 00-.094.211c2.857 7.943 8.181 15.242 15.969 21.896a.154.154 0 00.22-.025.165.165 0 00-.016-.228c-7.75-6.62-13.042-13.876-15.879-21.765zm27.713-27.256c-.068-.016-.142.04-.166.122-3.195 11.09-7.216 19.403-12.059 24.938-.055.063-.063.16-.018.216.046.057.128.051.183-.012 4.883-5.581 8.928-13.943 12.138-25.084.023-.078-.006-.152-.064-.175l-.014-.005zm-7.498-58.694c-.118-.03-.225.016-.239.104-1.526 9.753-4.587 17.727-9.18 23.922-.054.072-.012.18.094.239s.236.048.29-.024c4.618-6.228 7.692-14.237 9.224-24.025.013-.082-.06-.171-.164-.209l-.025-.007z"/><path fill="url(#h)" d="M48.21 84.685c8.023-8.855 4.038-15.61 4.038-21.669 0-6.059.135-11.764 6.679-16.03 6.543-4.264 7.866-7.506 7.866-15.186s1.892-11.278 5.237-14.18c5.31-3.92 1.699-13.632-6.641-15.6S49.7 4.525 48.209 9.097c-1.491 4.573-2.221 10.017-9.407 14.094s-8.865 5.321-8.865 9.85 1.615 9.491-7.125 13.295C5.9 49.416-9.193 80.514 20.126 89.009c13.373 3.021 22.734 1.58 28.083-4.324z" transform="scale(-1 1) rotate(-31 128.12 2170.175)"/><path fill="#115682" fill-rule="nonzero" d="M1054.387 350.724c1.845 2.758 2.615 5.819 2.096 8.203l-.016.072c-.095.413-.197.825-.348 1.415l-.274 1.072c-.401 1.581-.535 2.192-.688 3.16l-.014.083c-.594 3.784-.083 7.169 2.052 11.004l.415.739c2.146 3.83 2.955 5.54 3.309 7.13.4 1.798.084 3.24-1.096 5.226l-.107.179c-.237.39-.462.735-.943 1.456l-.198.297c-.39.588-.598.912-.834 1.306-1.036 1.732-1.533 3.2-1.5 4.875l.002.073c.059 1.971.89 4.141 2.656 6.667l.13.184-.006-.005c6.378 5.608 8.96 17.01 6.072 26.196-1.508 4.797-4.38 8.577-8.426 10.78-4.52 2.46-10.357 2.898-17.356 1.044-13.018-4.297-20.303-10.357-21.849-18.188-.804-4.075-.553-7.404.603-10.348.841-2.144 1.866-3.665 4.035-6.297l.736-.889c1.205-1.463 1.711-2.134 2.252-3.021l.07-.116.195-.324c2.062-3.452 2.962-5.293 3.508-7.547.718-2.969.412-5.895-1.126-9.112l-.05-.104c-3.269-6.734-3.034-10.192.961-16.901l.122-.205c3.652-6.077 4.31-10.156 2.806-14.771-1.217-2.93-.027-6.122 2.873-8.303 2.946-2.217 7.057-2.955 10.916-1.722 3.835 1.225 6.978 3.636 9.022 6.692zm-9.065-6.563c-3.816-1.22-7.882-.49-10.794 1.7-2.853 2.147-4.02 5.275-2.826 8.147 1.503 4.613.868 8.697-2.708 14.707l-.109.182c-4.048 6.738-4.352 10.149-1.174 16.775l.097.202c1.595 3.285 1.919 6.275 1.185 9.307-.55 2.27-1.454 4.121-3.524 7.585l-.241.402c-.609 1.004-1.16 1.716-2.67 3.54l-.352.424c-2.161 2.622-3.18 4.133-4.015 6.26-1.145 2.919-1.395 6.222-.595 10.272 1.534 7.774 8.783 13.804 21.757 18.086 6.964 1.845 12.766 1.41 17.254-1.033 4.013-2.185 6.862-5.936 8.36-10.7 2.873-9.136.303-20.483-6.034-26.055l-.01-.011c-1.894-2.659-2.774-4.936-2.816-7.005-.034-1.705.47-3.196 1.52-4.948l.109-.182c.204-.334.412-.655.765-1.186l.42-.631c.344-.52.53-.81.742-1.163 1.2-1.997 1.521-3.419 1.125-5.203l-.023-.1c-.366-1.562-1.196-3.293-3.341-7.116l-.281-.5c-2.183-3.87-2.726-7.287-2.15-11.092l.018-.115c.154-.98.28-1.573.653-3.056l.438-1.718c.093-.367.165-.666.234-.965.541-2.355-.216-5.413-2.061-8.17-2.028-3.032-5.146-5.424-8.953-6.64z"/><path fill="#115682" fill-rule="nonzero" d="M1042.163 353.449a.34.34 0 00-.679.009c1.103 61.158-4.603 108.367-17.11 141.62a.34.34 0 00.636.241c12.542-33.346 18.257-80.634 17.153-141.87z"/><path fill="#115682" fill-rule="nonzero" d="M1031.538 373.98a.137.137 0 00-.17-.091.13.13 0 00-.087.165c1.734 5.484 5.311 11.04 10.73 16.672a.136.136 0 00.19.007.132.132 0 00.003-.188c-5.391-5.604-8.946-11.126-10.666-16.566zm-3 39a.137.137 0 00-.17-.091.13.13 0 00-.087.165c1.734 5.484 5.311 11.04 10.73 16.672a.136.136 0 00.19.007.132.132 0 00.003-.188c-5.391-5.604-8.946-11.126-10.666-16.566zm23.153-13.388a.136.136 0 00-.18.071c-2.945 6.808-6.63 11.453-11.054 13.94a.136.136 0 10.134.237c4.481-2.52 8.204-7.21 11.171-14.069a.136.136 0 00-.057-.172l-.014-.007zm-.33-39.582c.028-.072-.001-.15-.066-.172-.066-.024-.143.016-.172.089-2.378 5.893-5.238 10.653-8.579 14.28-.052.057-.056.144-.007.194.048.05.13.044.183-.013 3.369-3.657 6.248-8.45 8.64-14.378z"/><circle cx="347" cy="422" r="99" fill="url(#a)" filter="url(#i)" opacity=".34"/><circle cx="366" cy="118" r="19" fill="url(#j)" filter="url(#k)" opacity=".7"/><circle cx="1094.5" cy="180.5" r="21.5" fill="url(#l)" transform="rotate(-47 1094.5 180.5)"/><circle cx="575" cy="375" r="10" fill="url(#l)"/><use fill="url(#m)" xlink:href="#n"/><use fill="url(#o)" xlink:href="#n"/><path fill="url(#p)" d="M32.606 42.042c1.514-4.145 3.485-6.595 5.913-7.35 3.643-1.133 6.021-3.313 6.03-6.018.007-2.705-3.013-3.847-4.92-3.841-1.907.006-5.95-1.093-6.651-5.562-.701-4.469-3.882-6.042-7.096-4.922s-5.128.828-7.013-1.136c-1.885-1.964-4.084-4.957-8.089-4.315-4.004.642-2.977 5.522-2.98 6.294-.001.772 1.422 3.694.29 6.38-1.132 2.687.818 6.68 4.096 7.918 3.279 1.238 4.29 3.415 2.502 4.943-1.788 1.527-2.787 5.113-1.1 6.619 1.687 1.506 6.661-1.79 9.437-.39 2.775 1.4 3.353 5.59 6.25 4.428 1.403-.317 2.514-1.333 3.331-3.048z" transform="rotate(45 60.643 1346.352)"/><path fill="#115682" fill-rule="nonzero" d="M972.593 365.257c-1.495-1.09-2.977-.942-4.425.105-.593.43-1.101.939-1.662 1.608l-.384.465c-.052.061-.09.105-.12.137l-.022.022c-.089.09-.188.235-.334.485l-.053.092c-.09.158-.353.62-.456.793-.795 1.346-1.588 2.295-2.657 2.95a5.24 5.24 0 01-.662.343l-.098.041c-2.765 1.126-4.143 5.405-2.702 8.597 1.4 3.101.679 5.33-1.574 5.19l-.069-.005c-2.579-.21-5.626 1.803-5.498 3.965.032.54.368 1.04.999 1.566l.048.04c.465.38.827.613 2.012 1.324l.348.209c.301.18.518.313.737.452 1.584 1.002 2.47 1.844 2.806 2.862.278.844.294 1.703.135 2.972l-.164 1.203-.016.127c-.217 1.817.076 2.746 1.388 3.314 1.223.78 2.743.852 4.544.215 3.973-1.849 7.07-2.177 9.297-.995 3.49 1.853 6.686 1.903 8.567.022.895-.895 1.15-2.076.85-3.375-.243-1.055-.852-2.13-1.576-2.876l-.053-.054c-.823-.823-1.565-2.093-1.879-3.436-.403-1.722-.106-3.452 1.045-5.079l.047-.067c2.525-3.49 1.727-7.006-1.581-8.621-3.022-1.476-4.15-3.012-4.126-5.654l.003-.156c.01-.396.05-1.531.056-1.849.029-1.496-.072-2.601-.4-3.648-.41-1.317-1.17-2.408-2.37-3.284zm2.251 3.32c.315 1.007.417 2.072.396 3.501l-.003.161c-.01.404-.052 1.588-.057 1.872-.048 2.745 1.102 4.34 4.196 5.85 3.204 1.564 3.998 4.937 1.607 8.33l-.073.104c-1.213 1.676-1.53 3.467-1.113 5.248.313 1.338 1.041 2.602 1.859 3.442l.054.055c.73.73 1.351 1.812 1.595 2.87.29 1.258.045 2.394-.816 3.256-1.835 1.835-4.972 1.786-8.42-.044-2.269-1.204-5.404-.872-9.404.99-1.761.623-3.24.553-4.437-.21-1.227-.532-1.518-1.378-1.334-3.064l.02-.166c.036-.291.147-1.083.162-1.198l.022-.175c.15-1.238.128-2.094-.151-2.94-.349-1.055-1.252-1.913-2.86-2.93l-.163-.103a41.517 41.517 0 00-.566-.345l-.78-.469c-.852-.516-1.176-.734-1.575-1.06-.636-.519-.97-1.003-1-1.514-.122-2.051 2.792-3.998 5.287-3.837l.076.005c2.427.2 3.215-2.156 1.767-5.362-1.399-3.099-.087-7.248 2.555-8.395l.08-.034c.27-.11.529-.241.778-.394 1.067-.653 1.862-1.59 2.65-2.907l.086-.145c.14-.242.424-.742.45-.786l.065-.111c.112-.186.192-.303.26-.375l.036-.037c.025-.026.053-.058.088-.099l.115-.138c.062-.076.188-.23.24-.291.582-.702 1.1-1.229 1.706-1.667 1.407-1.018 2.832-1.16 4.277-.106 1.18.86 1.921 1.927 2.325 3.219z"/><path fill="#115682" fill-rule="nonzero" d="M968.5 372.5c.26 0 .473.075.498.172l.002.018v91.62c0 .105-.224.19-.5.19-.26 0-.473-.075-.498-.172l-.002-.018v-91.62c0-.105.224-.19.5-.19z"/><path fill="#115682" fill-rule="nonzero" d="M972.751 378.543a.16.16 0 01.199-.015c.055.04.066.107.027.157l-.01.012-4.718 4.76a.159.159 0 01-.199.015c-.055-.04-.066-.107-.027-.157l.01-.012 4.718-4.76zm-11.705 2.986a.15.15 0 01.179.001l.012.01 6.73 6.763a.11.11 0 01-.013.168.15.15 0 01-.179-.001l-.012-.01-6.73-6.763a.11.11 0 01.013-.168zm12.746 7.013a.114.114 0 01.17-.008.14.14 0 01.016.171l-.01.013-5.76 6.74a.114.114 0 01-.17.008.137.137 0 01-.016-.171l.01-.013 5.76-6.74z"/><path fill="url(#q)" d="M333 419c7.15-36 25.15-54 54-54 15.247 0 27.464 5.027 36.65 15.082a48.785 48.785 0 012.85-.082c9.528 0 17.438 2.65 23.73 7.95 7.056-7.3 16.313-10.95 27.77-10.95 22.44 0 36.44 14 42 42z" transform="matrix(-1 0 0 1 853 0)"/><path fill="url(#r)" d="M133.175 60.999V61H12C20.021 20.333 40.217 0 72.588 0c17.022 0 30.678 5.623 40.967 16.868a54.731 54.731 0 012.945-.079c10.863 0 19.834 3.16 26.914 9.478 7.848-8.184 18.146-12.276 30.895-12.276 24.945 0 40.51 15.67 46.691 47.009l-87.825-.001z" transform="translate(220 372)"/><path fill="#00103F" fill-rule="nonzero" d="M280.588 372c17.022 0 30.678 5.623 40.967 16.868a54.703 54.703 0 012.945-.079c10.863 0 19.834 3.16 26.914 9.479 7.848-8.185 18.146-12.277 30.895-12.277 24.696 0 40.197 15.358 46.503 46.074L429 433H220c8.021-40.667 28.217-61 60.588-61zm0 .56c-31.76 0-51.668 19.724-59.8 59.342l-.109.538H428.32l-.053-.262c-6.193-30.17-21.245-45.323-45.229-45.623l-.73-.005c-12.46 0-22.527 3.945-30.232 11.836l-.262.27-.37.386-.399-.356c-6.973-6.224-15.813-9.337-26.545-9.337-.739 0-1.47.014-2.194.044l-.721.034-.262.014-.177-.194c-10.18-11.126-23.687-16.687-40.558-16.687z"/><path fill="url(#r)" d="M133.175 60.999V61H12C20.021 20.333 40.217 0 72.588 0c17.022 0 30.678 5.623 40.967 16.868a54.731 54.731 0 012.945-.079c10.863 0 19.834 3.16 26.914 9.478 7.848-8.184 18.146-12.276 30.895-12.276 24.945 0 40.51 15.67 46.691 47.009l-87.825-.001z" transform="translate(1049 372)"/><path fill="#00103F" fill-rule="nonzero" d="M1109.588 372c17.022 0 30.678 5.623 40.967 16.868a54.703 54.703 0 012.945-.079c10.863 0 19.834 3.16 26.914 9.479 7.848-8.185 18.146-12.277 30.895-12.277 24.696 0 40.197 15.358 46.503 46.074l.188.935h-209c8.021-40.667 28.217-61 60.588-61zm0 .56c-31.76 0-51.668 19.724-59.8 59.342l-.109.538h207.641l-.053-.262c-6.193-30.17-21.245-45.323-45.229-45.623l-.73-.005c-12.46 0-22.527 3.945-30.232 11.836l-.262.27-.37.386-.399-.356c-6.973-6.224-15.813-9.337-26.545-9.337-.739 0-1.47.014-2.194.044l-.721.034-.262.014-.177-.194c-10.18-11.126-23.687-16.687-40.558-16.687z"/><g transform="translate(469 349)"><use fill="#99E2A1" xlink:href="#s"/><use fill="url(#t)" xlink:href="#s"/><path fill="#115682" fill-rule="nonzero" d="M24.893 0c10.002 0 18.11 8.076 18.11 18.037 0 1.052-.09 2.083-.263 3.086 3.271 3.49 5.235 7.96 5.235 12.83 0 11.173-10.334 20.23-23.082 20.23-12.748 0-23.083-9.057-23.083-20.23 0-4.87 1.964-9.34 5.236-12.831a18.048 18.048 0 01-.264-3.085C6.782 8.076 14.891 0 24.892 0zm0 .15c-9.92 0-17.96 8.009-17.96 17.887 0 .97.077 1.929.23 2.871l.032.189.013.073-.052.054c-3.34 3.565-5.195 8.022-5.195 12.729 0 11.085 10.263 20.08 22.932 20.08 12.669 0 22.932-8.995 22.932-20.08 0-4.66-1.819-9.075-5.096-12.62l-.15-.163.012-.073c.174-1.004.262-2.026.262-3.06C42.853 8.16 34.812.15 24.893.15z"/><path fill="#115682" fill-rule="nonzero" d="M30.955 13.723a.151.151 0 01.21-.038.15.15 0 01.047.193l-.01.016-7.996 11.407a.151.151 0 01-.21.038.15.15 0 01-.047-.193l.01-.016 7.996-11.407zM14.84 7.988a.151.151 0 01.2.009l.012.014L23.2 18.067a.15.15 0 01-.023.211.151.151 0 01-.2-.009l-.012-.014L14.818 8.2a.15.15 0 01.023-.21zm22.153 22.088a.151.151 0 01.212-.026.15.15 0 01.037.195l-.011.016L23.05 48.272a.151.151 0 01-.211.026.15.15 0 01-.037-.196l.01-.015 14.182-18.011z"/><path fill="#1D5B80" d="M22.932 6.754h1v133.131h-1z"/><path fill="#115682" fill-rule="nonzero" d="M9.69 28.272a.151.151 0 01.197-.031l.016.01L23.179 39.21a.15.15 0 01.02.21.151.151 0 01-.198.032l-.015-.011L9.71 28.483a.15.15 0 01-.02-.211z"/></g><g transform="translate(194 198)"><use fill="#FFC7CA" xlink:href="#u"/><use fill="url(#v)" xlink:href="#u"/><g transform="translate(41.357)"><use fill="#2F1B16" xlink:href="#w"/><use fill="url(#x)" xlink:href="#w"/><path fill="#FFF" fill-rule="nonzero" d="M25.44 5.008a.121.121 0 01.153.078c.638 1.98 1.644 2.636 3.061 2.027l.065-.029c2.51-1.135 5.949-.184 6.825 2.144.932 2.48.497 5.857-1.004 7.284a.121.121 0 01-.167-.176c1.423-1.352 1.845-4.628.944-7.023-.813-2.16-4.036-3.07-6.421-2.042l-.077.034c-1.6.724-2.769-.01-3.457-2.144a.121.121 0 01.078-.153z"/><path fill="#2F1B16" fill-rule="nonzero" d="M5.783 14.826c-2.919 1.885-4.465 3.496-4.698 5.404-.212 1.737-.035 3.053.463 4.566l.068.201c.073.206.312.881.388 1.118l.01.027c.13.416.193.737.193 1.04 0 .254-.078.591-.243 1.096l-.07.207c-.132.383-.461 1.303-.548 1.556C.81 31.614.524 32.84.5 34.048c-.02 1.015.16 1.932.573 2.752a.121.121 0 11-.217.109c-.431-.858-.62-1.814-.598-2.866.023-1.193.293-2.397.801-3.911l.084-.247c.13-.372.482-1.357.56-1.593l.056-.17c.14-.436.205-.731.205-.94 0-.253-.05-.527-.155-.878l-.027-.09c-.072-.226-.383-1.102-.414-1.192C.82 23.414.62 22.034.844 20.2c.245-2.003 1.831-3.657 4.807-5.58l.12-.076c.116-.064 3.236-1.983 3.895-2.48l.024-.018c1.579-1.222 2.56-3.017 2.942-5.39a.121.121 0 01.24.038c-.384 2.384-1.364 4.21-2.938 5.469l-.096.075c-.637.493-4.08 2.607-3.936 2.51l-.12.077z"/></g><g transform="translate(16.014 237.082)"><mask id="z" fill="#fff"><use xlink:href="#y"/></mask><use fill="#FFC7CA" xlink:href="#y"/><path fill="#FDF7DA" mask="url(#z)" d="M.762 83.343V70.732l29.034 1.191-3.502 14.581-9.532 3.083-13.636.866z"/><path fill="#000" mask="url(#z)" d="M38.58 7.071L4.61 9.667l.361-5.197 33.609.808z"/></g><g transform="translate(76.19 238.294)"><mask id="B" fill="#fff"><use xlink:href="#A"/></mask><use fill="#FFC7CA" xlink:href="#A"/><path fill="#FDF7DA" mask="url(#B)" d="M6.795 80.208L5.581 67.32l26.571 2.013.12 13.141L20.8 86.16l-14.306.975z"/><path fill="#000" mask="url(#B)" d="M32.757 4.286L.53 9.918 0 4.121l32.757-.891z"/></g><g transform="translate(10.73 148.17)"><mask id="D" fill="#fff"><use xlink:href="#C"/></mask><use fill="#FFF" xlink:href="#C"/><path fill="#E7F4FF" fill-rule="nonzero" d="M15.354 25.428c4.087 0 7.4 3.38 7.4 7.55 0 4.168-3.313 7.548-7.4 7.548s-7.4-3.38-7.4-7.549c0-4.169 3.313-7.549 7.4-7.549zm0 1.94c-3.006 0-5.46 2.502-5.46 5.61 0 3.106 2.454 5.609 5.46 5.609s5.46-2.503 5.46-5.61-2.454-5.61-5.46-5.61zm28.632 54.987c4.087 0 7.4 3.38 7.4 7.548 0 4.17-3.313 7.55-7.4 7.55s-7.4-3.38-7.4-7.55c0-4.169 3.313-7.548 7.4-7.548zm0 1.939c-3.006 0-5.46 2.502-5.46 5.61 0 3.106 2.454 5.61 5.46 5.61s5.46-2.504 5.46-5.61c0-3.108-2.454-5.61-5.46-5.61zM93.97 40.526c4.087 0 7.4 3.38 7.4 7.55 0 4.168-3.313 7.548-7.4 7.548-4.088 0-7.401-3.38-7.401-7.549 0-4.169 3.313-7.549 7.4-7.549zm0 1.94c-3.007 0-5.46 2.502-5.46 5.61 0 3.106 2.453 5.609 5.46 5.609 3.006 0 5.459-2.503 5.459-5.61s-2.453-5.61-5.46-5.61zM56.602 10.33c4.088 0 7.401 3.38 7.401 7.548 0 4.17-3.313 7.55-7.4 7.55-4.088 0-7.401-3.38-7.401-7.55 0-4.169 3.313-7.548 7.4-7.548zm0 1.939c-3.006 0-5.46 2.502-5.46 5.61 0 3.106 2.454 5.61 5.46 5.61s5.46-2.504 5.46-5.61c0-3.108-2.454-5.61-5.46-5.61zM2.008 65.772c4.088 0 7.401 3.38 7.401 7.549 0 4.169-3.313 7.549-7.4 7.549-4.088 0-7.401-3.38-7.401-7.55 0-4.169 3.313-7.548 7.4-7.548zm0 1.94c-3.006 0-5.459 2.502-5.459 5.609s2.453 5.61 5.46 5.61c3.006 0 5.459-2.503 5.459-5.61s-2.453-5.61-5.46-5.61zm28.147-17.038c4.087 0 7.4 3.38 7.4 7.549 0 4.169-3.313 7.549-7.4 7.549s-7.4-3.38-7.4-7.55c0-4.168 3.313-7.548 7.4-7.548zm0 1.94c-3.006 0-5.46 2.502-5.46 5.609s2.454 5.61 5.46 5.61 5.46-2.503 5.46-5.61-2.454-5.61-5.46-5.61zM57.817 43c4.087 0 7.4 3.38 7.4 7.55 0 4.168-3.313 7.548-7.4 7.548-4.088 0-7.401-3.38-7.401-7.549 0-4.169 3.313-7.549 7.4-7.549zm0 1.94c-3.006 0-5.46 2.502-5.46 5.61 0 3.106 2.454 5.609 5.46 5.609s5.46-2.503 5.46-5.61-2.454-5.61-5.46-5.61zm17.227 20.83c4.088 0 7.4 3.38 7.4 7.55 0 4.169-3.312 7.549-7.4 7.549-4.087 0-7.4-3.38-7.4-7.55 0-4.169 3.313-7.548 7.4-7.548zm0 1.94c-3.006 0-5.46 2.503-5.46 5.61s2.454 5.61 5.46 5.61 5.46-2.503 5.46-5.61-2.454-5.61-5.46-5.61zm12.86-62.083c4.088 0 7.401 3.38 7.401 7.549 0 4.169-3.313 7.549-7.4 7.549-4.088 0-7.401-3.38-7.401-7.55 0-4.168 3.313-7.548 7.4-7.548zm0 1.94c-3.006 0-5.46 2.502-5.46 5.609s2.454 5.61 5.46 5.61 5.46-2.503 5.46-5.61-2.454-5.61-5.46-5.61zm13.588 72.064c4.088 0 7.401 3.38 7.401 7.549 0 4.17-3.313 7.549-7.4 7.549-4.088 0-7.401-3.38-7.401-7.55 0-4.168 3.313-7.548 7.4-7.548zm0 1.94c-3.006 0-5.459 2.502-5.459 5.609s2.453 5.61 5.46 5.61c3.006 0 5.459-2.503 5.459-5.61s-2.453-5.61-5.46-5.61z" mask="url(#D)"/><path fill="#000" fill-rule="nonzero" d="M105.152 93.737L90.288.307 6.975 2.302.3 93.738l48.98 1.116 4.914-30.196 4.532 22.521-.002 7.675 46.427-1.117zM90.082.554L104.868 93.5l-45.902 1.105v-7.45L54.17 63.301l-5.095 31.304L.561 93.501l6.64-90.962L90.08.554z"/><path fill="#000" d="M46.291 12.806l8.007 51.267-1.442 9.866zM91.55 7.887L6.135 14.671v-4.34z"/></g><g transform="translate(106.035 105.208)"><mask id="G" fill="#fff"><use xlink:href="#E"/></mask><use fill="#FFC7CA" xlink:href="#E"/><use fill="url(#F)" xlink:href="#E"/><path fill="#000" mask="url(#G)" d="M21.221 1.734L1.474 17.076.111 15.083z"/></g><path fill="#000" fill-rule="nonzero" d="M118.626 140.63l.408-.262.309.478.245.373c2.647 4.008 5.08 6.728 7.285 8.155l.102.065.253.158c2.581 1.641 9.734 7.394 21.49 17.28 2.405 1.976 4.124 3.943 5.155 5.906l.07.134.066.133c.983 1.99 5.066 6.95 12.21 14.827.432.473 1.485.628 2.386.346.704-.16 1.013-.681.916-1.525-.08-.692-.443-1.507-.921-2.088l-.06-.072-.241-.268-.27-.312c-.9-1.055-2.633-3.196-5.202-6.429l-.83-1.046.37-.306 9.899 11.356c.6.494 1.324.437 2.23-.197 1.108-.776 1.103-2.275.047-3.807l-.052-.076-.052-.072c-.206-.28-.635-.793-1.286-1.535l-.226-.256-.557-.627-6.59-7.19.357-.329 2.342 2.614 3.2 3.445.431.47 2.02 2.271 3.1 3.302.033.02c.763.436 1.515.387 2.295-.157l.07-.049.066-.05.065-.05c1.18-.944 1.293-2.865.298-4.107l-.05-.062-.15-.173c-.637-.722-2.348-2.55-5.128-5.481l-2.443-2.571-2.257-2.369.347-.335 10.401 10.583.04.025c.87.558 1.547.473 2.123-.266l.039-.051.039-.053.038-.056c.696-1.024.504-1.935-.65-3.355l-.064-.078-.193-.228c-.403-.461-1.721-1.905-3.95-4.328l-1.816-1.97-5.77-6.247.342-.334 6.257 6.083.028.012c.866.356 1.512.225 1.999-.4l.04-.054.038-.054.037-.054c.623-.952.52-1.6-.47-2.884l-.115-.148-.057-.07-.025-.035-.319-.416a140.788 140.788 0 00-2.32-2.931 31.105 31.105 0 00-1.404-1.581 14.69 14.69 0 00-1.17-1.11l-.097-.08-.192-.155.301-.379.095.075c.431.342.902.78 1.414 1.313.36.377.74.798 1.143 1.27l.135.159.246.295.2.243c.412.51.998 1.254 1.62 2.052l.162.21.585.76.063.08.123.156c1.072 1.394 1.23 2.228.567 3.316l-.038.061-.04.064c-.618.944-1.52 1.206-2.636.773l-.073-.03-.092-.04-.055-.04-.295-.295 2.292 2.433 2.424 2.644c.583.64.973 1.072 1.172 1.3l.087.1.147.174c.539.65.828 1.11 1.017 1.625.305.835.215 1.624-.291 2.37-.695 1.023-1.608 1.264-2.652.71l-.073-.04.024.04c.768 1.375.57 3.184-.57 4.206l-.062.054-.063.052c-.983.786-1.99.918-2.975.385l-.069-.038-.082-.05-.04-.034-1.508-1.646.015.039c.489 1.29.31 2.644-.469 3.316l-.05.04-.05.04-.06.043c-.9.63-2.134.658-2.737.233l-.042-.03-.067-.057-2.517-2.942.01.017c.305.536.52 1.14.582 1.689.124 1.08-.33 1.836-1.282 2.05-1.04.313-2.236.139-2.818-.445l-.043-.045-.638-.704c-6.66-7.37-10.51-12.057-11.585-14.11l-.032-.062-.096-.192c-.968-1.899-2.614-3.817-4.942-5.752l-.16-.132-2.444-2.052-1.513-1.266c-9.293-7.762-15.103-12.394-17.407-13.878l-.072-.047-.15-.094c-2.398-1.474-5.022-4.407-7.884-8.803l-.311-.481z"/><path fill="url(#H)" d="M10.695 160.777l88.883-4.546c4.763-.006 6.953-1.944 6.569-5.812-.384-3.87-4.86-20.176-13.427-48.92l2.906 4.78 9.314 15.32 24.632-16.073c-15.758-34.966-35.554-52.45-59.387-52.45-7.263 6.175-13.024 6.098-17.281-.23-14.601 0-26.008 5.462-34.22 16.384-8.213 10.922-12.526 41.438-12.94 91.547h4.95z"/><path fill="#FFF" d="M82.803 318.534l-.474-6.403c-.697-.381-1.268-.477-1.713-.286-.667.286-1.148.858-1.148 2.319v4.976c-8.901 2.81-12.042 9.557-9.421 20.24l65.833-.09c-1.684-21.845-10.759-29.218-27.224-22.121-4.623 3.826-8.808 5.777-12.556 5.854-3.747.076-8.18-1.42-13.297-4.489z"/><path fill="#95BDEC" d="M69.638 337.654h65.999l.243 1.636-65.95.091z"/><path fill="#000" fill-rule="nonzero" d="M80.513 311.758c-.782.36-1.166 1.072-1.166 2.406v4.888l.084-.027c-8.966 2.83-12.137 9.642-9.502 20.385l.022.092 66.06-.091-.01-.13c-1.69-21.92-10.842-29.358-27.393-22.224l-.029.018c-4.604 3.81-8.765 5.75-12.481 5.827l-.142.002c-3.644.035-7.944-1.416-12.898-4.358l-.14-.084-.472-6.406-.058-.031c-.727-.398-1.335-.5-1.82-.291l-.055.024zm1.682.438l.018.01.473 6.4.054.032c5.136 3.08 9.59 4.583 13.363 4.506l.13-.003c3.702-.118 7.815-2.035 12.34-5.747l.147-.12.474-.202c15.907-6.637 24.724.528 26.512 21.578l.042.519-65.606.09.022.093c-2.606-10.625.504-17.307 9.34-20.096l.085-.027v-5.065c0-1.274.351-1.897 1.075-2.208.39-.166.899-.09 1.53.24z"/><path fill="#0083EC" fill-rule="nonzero" d="M116.847 311.505c.245 0 .45.043.492.1l.008.021v10.855c0 .067-.224.122-.5.122-.246 0-.45-.043-.492-.1l-.008-.022v-10.855c0-.067.224-.12.5-.12zm2.426 0c.246 0 .45.043.492.1l.008.021v10.855c0 .067-.224.122-.5.122-.245 0-.45-.043-.492-.1l-.008-.022v-10.855c0-.067.224-.12.5-.12zm2.427 0c.245 0 .45.043.492.1l.008.021v10.855c0 .067-.224.122-.5.122-.246 0-.45-.043-.492-.1l-.008-.022v-10.855c0-.067.224-.12.5-.12z"/><g transform="translate(0 39.514)"><path fill="#FFF" d="M16.451 280.854l-.452-5.84c-.667-.348-1.213-.435-1.639-.261-.638.26-1.098.782-1.098 2.115v4.538c-8.513 2.563-11.516 8.717-9.01 18.461l62.96-.082c-.35-19.094-8.398-25.404-24.145-18.931-5.682 2.66-10.314 4.024-13.898 4.094-3.584.07-7.823-1.295-12.718-4.094z"/><path fill="#95BDEC" d="M67.212 299.839v-1.454H3.882l.336 1.482z"/><path fill="#000" fill-rule="nonzero" d="M14.259 274.664c-.75.33-1.118.983-1.118 2.204v4.449l.086-.027c-8.493 2.557-11.553 8.679-9.167 18.315l.098.384 63.178-.083-.002-.124c-.352-19.174-8.482-25.548-24.313-19.04-5.673 2.655-10.29 4.015-13.855 4.084l-.146.002c-3.48.03-7.583-1.291-12.308-3.966l-.145-.082-.452-5.843-.06-.031c-.696-.363-1.277-.455-1.74-.266l-.056.024zm1.608.418l.016.008.452 5.837.056.032c4.912 2.809 9.171 4.18 12.78 4.11 3.604-.07 8.252-1.44 13.948-4.106l.467-.189c15.193-6.059 23.001.063 23.492 18.446l.01.444-62.742.082.023.091c-2.49-9.684.48-15.771 8.928-18.315l.086-.026v-4.628c0-1.158.334-1.721 1.023-2.003.372-.152.858-.083 1.46.217z"/><path fill="#0083EC" fill-rule="nonzero" d="M51.334 274.174c.245 0 .45.043.492.1l.008.021v10.871c0 .067-.224.122-.5.122-.246 0-.45-.043-.492-.1l-.008-.022v-10.871c0-.067.224-.121.5-.121zm2.426 0c.246 0 .45.043.492.1l.008.021v10.871c0 .067-.224.122-.5.122-.245 0-.45-.043-.492-.1l-.008-.022v-10.871c0-.067.224-.121.5-.121zm2.427 0c.245 0 .45.043.492.1l.008.021v10.871c0 .067-.224.122-.5.122-.246 0-.45-.043-.492-.1l-.008-.022v-10.871c0-.067.224-.121.5-.121z"/><path fill="#FFCB5D" d="M37.865 14.68l-10.204 3.26c1.384-3.434 3.163-5.775 5.338-7.024 3.261-1.874 8.92-2.68 11.834-1.12 1.942 1.039 3.579 2.292 4.909 3.758l-8.161.704c-.026-1.359-.682-1.893-1.967-1.604-1.284.29-1.868.966-1.749 2.027z"/><g transform="translate(49.5 8.485)"><mask id="J" fill="#fff"><use xlink:href="#I"/></mask><use fill="#FFCB5D" xlink:href="#I"/><path fill="#83A8D3" mask="url(#J)" d="M22.395 9.092l3.541-2.618 3.724 11.971z"/></g><path fill="#FFAE00" d="M58.72 17.454c-.296-6.544-2.387-11.648-6.273-15.313-5.83-5.496-13.557 1.055-16.048 3.357-1.66 1.534-3.036 5.52-4.127 11.956h8.61c-.141-8.3 1.397-13.254 4.614-14.858 4.825-2.407 8.4-1.005 8.722 4.067.215 3.382-1.051 6.979-3.798 10.79h8.3z"/><use fill="url(#K)" xlink:href="#L"/><use fill="url(#M)" xlink:href="#N"/><path fill="url(#O)" d="M24.728 69.088h39.521c5.523 0 10 4.477 10 10v17.544c0 10.493-8.507 19-19 19H24.728c-12.853 0-23.272-10.42-23.272-23.272 0-12.853 10.419-23.272 23.272-23.272z"/><rect width="67.698" height="46.544" x="1.456" y="69.088" fill="url(#P)" rx="23.272"/><path fill="url(#Q)" d="M3.685 69.33h69.108c-1.645 1.406-2.848 8.152-3.61 20.239 0 4.653-12.384 4.021-20.567 4.17-8.183.15-27.81.125-33.243-.538C9.94 92.538.21 91.161.21 87.303c0-3.858-.472-12.046 0-14.435.314-1.592 1.473-2.771 3.475-3.537z"/><path fill="#95BDEC" fill-rule="nonzero" d="M69.453 71.974l-.226-.09c.326-.819.68-1.378 1.065-1.68l.15.192c-.346.269-.678.795-.99 1.578zm-.993 3.719l-.238-.046a31.89 31.89 0 01.419-1.901l.235.06a31.652 31.652 0 00-.416 1.887zm-.592 3.83l-.241-.03c.086-.677.175-1.319.267-1.924l.24.037c-.092.603-.18 1.242-.266 1.918zm-.416 3.847l-.242-.022c.062-.67.126-1.313.193-1.932l.241.026a140 140 0 00-.192 1.928zm-.312 3.865l-.242-.017.057-.788c.029-.39.059-.772.089-1.147l.242.02-.06.758c-.03.385-.058.776-.086 1.174zm-2.467 2.79l-.081-.228c.716-.253 1.268-.554 1.65-.906l.164.179c-.408.376-.988.693-1.733.956zm-3.838.783l-.027-.24a25.607 25.607 0 001.91-.284l.046.238c-.585.112-1.227.207-1.929.286zm-3.87.273l-.01-.242.506-.021c.499-.023.974-.05 1.43-.08l.016.242c-.61.041-1.255.075-1.942.101zm-3.893.084l-.002-.243.684-.007c.44-.005.855-.012 1.256-.02l.005.243-.825.014c-.354.005-.724.01-1.118.013zm-3.896-.218l1.942-.012v.242l-1.94.012-.002-.242zm-3.867.29l-.002-.241 1.326-.016.614-.008.004.242-1.044.014-.898.01zm-3.883.027l-.001-.243 1.561-.007c.128 0 .254-.002.38-.003l.002.243-1.546.008-.396.002zm-3.883.005v-.243h1.942v.243h-1.942zm-3.884-.015l.002-.242 1.94.01v.242l-1.298-.006-.644-.004zm-3.881-.036l.003-.242.961.011.98.01-.003.242-.98-.01-.961-.01zm-3.882-.062l.005-.243 1.149.022.79.014-.003.242-1.18-.02-.761-.015zm-3.883-.104l.008-.242.702.023c.398.012.811.024 1.237.035l-.006.243-.998-.028-.943-.03zm-3.884-.187l.017-.242c.563.04 1.21.076 1.936.11l-.012.242-.53-.026a76.594 76.594 0 01-1.41-.084zm-3.865-.418l.032-.24.463.06c.468.058.948.115 1.461.174l-.027.241-.504-.058a113.1 113.1 0 01-1.425-.177zm-3.843-.6l.045-.239c.608.115 1.244.224 1.91.327l-.038.24a58.37 58.37 0 01-1.917-.328zm-3.784-.924l.074-.231c.568.182 1.19.353 1.862.514l-.056.236a25.99 25.99 0 01-1.88-.52zm-3.469-1.825l.175-.168c.366.38.894.734 1.573 1.062l-.105.218c-.704-.34-1.255-.709-1.643-1.112zm-.709-3.804l.243-.006.023.9c.008.392.014.733.017 1.04l-.243.003-.005-.385c-.006-.437-.018-.941-.035-1.552zm-.113-3.877l.242-.006.056 1.938-.243.007-.053-1.846-.002-.093zm-.029-3.884l.243.005a60.014 60.014 0 00-.008 1.935l-.242.003-.003-.36c-.004-.588 0-1.114.01-1.583zm.954-3.77l.184.159c-.363.417-.6.889-.714 1.417a4.5 4.5 0 00-.05.28l-.24-.036a3.389 3.389 0 01.821-1.82zm3.499-1.584v.243h-.904l.04-.007a8.237 8.237 0 00-.927.385l-.108-.218c.293-.144.61-.276.955-.396l.04-.007h.904zm3.882 0v.243H8.71v-.243h1.94zm3.882 0v.243h-1.941v-.243h1.941zm3.882 0v.243h-1.94v-.243h1.94zm3.883 0v.243h-1.941v-.243h1.94zm3.882 0v.243H24.24v-.243h1.941zm3.882 0v.243h-1.94v-.243h1.94zm3.883 0v.243h-1.941v-.243h1.94zm3.882 0v.243h-1.941v-.243h1.941zm3.882 0v.243h-1.94v-.243h1.94zm3.883 0v.243H43.65v-.243h1.942zm3.882 0v.243h-1.941v-.243h1.94zm3.882 0v.243h-1.941v-.243h1.941zm3.882 0v.243H55.3v-.243h1.94zm3.883 0v.243H59.18v-.243h1.94zm3.882 0v.243h-1.941v-.243h1.941zm3.882 0v.243h-1.94v-.243h1.94z"/></g></g><g transform="translate(86 306)"><g transform="rotate(-33 79.317 158.046)"><use fill="#FFAE00" xlink:href="#R"/><use fill="url(#S)" xlink:href="#R"/></g><g transform="rotate(-50 55.907 139.986)"><use fill="#83BA89" xlink:href="#T"/><use fill="url(#U)" xlink:href="#T"/></g><g transform="rotate(18 111.45 83.132)"><use fill="#ADDFFF" xlink:href="#V"/><use fill="url(#W)" xlink:href="#V"/></g><use fill="#FFCB5D" xlink:href="#X"/><use fill="url(#Y)" xlink:href="#X"/><path fill="#115682" fill-rule="nonzero" d="M7.887 6.35l-.444-.784.016.355c1.497 34.027 9.388 57.227 23.68 69.597C38.96 82.285 43.62 87.87 47.022 94.12l.138.255c1.143 2.127 2.144 4.306 3.386 7.286l.34.823c.527 1.285 1.616 3.962 1.862 4.559l.27.656c.713 1.72 1.35 3.206 2.024 4.703l.084.187a129.053 129.053 0 007.033 13.441c9.653 16.148 24.56 28.603 44.718 37.365l16.615 9.373.008-.136c1.054-16.452 1.58-32.618 1.58-48.5 0-12.226-6.927-29.02-18.219-43.588-12.722-16.413-29.4-28.287-47.542-32.492-6.76-1.567-15.481-4.69-21.507-7.63-.402-.196-.667.2-.858 1.061l-.017.077c-.125.593-.206 1.274-.337 2.661l-.085.893c-.103 1.046-.174 1.58-.28 2.074-.079.363-.168.621-.267.77-.094.138-.181.168-.296.103-.434-.247-.783-1.542-1.417-4.86l-.27-1.43c-.587-3.08-.923-4.324-1.376-4.618C24.995 32.217 16.753 21.95 7.887 6.35zm-.211.58l-.03-.662-.176-.31c8.98 15.888 17.327 26.334 25.046 31.338l.025.018c.363.279.69 1.47 1.203 4.112l.15.784.197 1.042c.654 3.431.992 4.67 1.496 4.957.2.113.381.05.52-.156.109-.16.199-.414.278-.762l.03-.139c.105-.506.176-1.07.283-2.172l.095-1.004c.121-1.263.201-1.892.326-2.456.168-.76.372-1.064.618-.945l.397.193c6.018 2.888 14.52 5.914 21.145 7.45 18.1 4.195 34.747 16.046 47.447 32.43 11.27 14.54 18.183 31.3 18.183 43.484v.934a759.194 759.194 0 01-1.518 46.588l-.053.832-16.386-9.243c-20.135-8.753-35.014-21.185-44.648-37.3a128.894 128.894 0 01-6.886-13.119l-.138-.305a173.33 173.33 0 01-2.285-5.32l-2.069-5.062-.224-.542c-1.293-3.104-2.327-5.342-3.532-7.556-3.41-6.27-8.085-11.87-15.919-18.65C17.143 63.179 9.282 40.36 7.676 6.929z"/><path fill="#115682" fill-rule="nonzero" d="M84.089 59.73a.085.085 0 11.158.062c-4.237 10.977-6.355 20.139-6.355 27.483a.085.085 0 11-.17 0c0-7.368 2.123-16.55 6.367-27.545zm-54.173-.046a.085.085 0 10-.072.154c6.64 3.102 14.142 5.421 22.505 6.96a.085.085 0 00.031-.168c-8.35-1.536-15.838-3.851-22.464-6.946zm35.506 46.598a.085.085 0 10-.08.15c6.588 3.536 17.15 6.004 31.687 7.406a.085.085 0 00.016-.17c-14.516-1.4-25.058-3.863-31.623-7.386zm52.415-3.536c.039.026.05.078.024.118-7.218 11.04-11.39 19.908-12.519 26.6a.085.085 0 01-.168-.028c1.133-6.72 5.315-15.607 12.545-26.665a.085.085 0 01.118-.025z"/><path fill="#115682" fill-rule="nonzero" d="M15.924 29.275a.17.17 0 01.214.11c1.744 5.44 5.559 10.907 11.448 16.792l.287.285c4.652 4.611 10.176 9.164 18.654 15.596l2.234 1.688 5.733 4.307c5.669 4.268 8.955 6.81 12.413 9.646l.115.095c4.992 4.098 9.032 7.807 12.362 11.435 12.688 13.822 28.385 41.596 47.097 83.328a.17.17 0 01-.31.14c-18.699-41.701-34.38-69.45-47.038-83.238-3.266-3.558-7.22-7.198-12.094-11.21l-.233-.192c-3.65-2.997-7.078-5.643-13.288-10.311l-5.994-4.506-.94-.712c-8.814-6.678-14.465-11.34-19.239-16.11-5.924-5.92-9.768-11.43-11.531-16.93a.17.17 0 01.11-.213z"/></g><g transform="scale(-1 1) rotate(-9 1533.482 1764.891)"><use fill="#99E2A1" xlink:href="#Z"/><use fill="url(#aa)" xlink:href="#Z"/><use fill="#99E2A1" xlink:href="#ab"/><use fill="url(#ac)" xlink:href="#ab"/><use fill="#99E2A1" xlink:href="#ad"/><use fill="url(#ae)" xlink:href="#ad"/><use fill="#99E2A1" xlink:href="#af"/><use fill="url(#ag)" xlink:href="#af"/><use fill="#99E2A1" xlink:href="#ah"/><use fill="url(#ai)" xlink:href="#ah"/><use fill="#99E2A1" xlink:href="#aj"/><use fill="url(#ak)" xlink:href="#aj"/><use fill="#99E2A1" xlink:href="#al"/><use fill="url(#am)" xlink:href="#al"/><use fill="#99E2A1" xlink:href="#an"/><use fill="url(#ao)" xlink:href="#an"/><path fill="#115682" fill-rule="nonzero" d="M87.846 10.838a.342.342 0 01.481-.01c.136.129.14.343.01.478l-2.666 2.716c-.37.38-.697.717-.911.945-1.542 1.632-2.867 3.183-4.13 4.886-5.292 7.127-8.794 16.06-10.19 28.389l-.09.813a377.868 377.868 0 00-.35 3.422l-.567 5.91c-.698 7.204-1.273 11.094-2.412 15.268-2.605 9.547-8.202 18.795-20.57 33.483-15.309 18.18-26.06 45.14-32.247 80.879l-.183 1.07-3.908 51.334a.34.34 0 01-.332.313h-.033a.34.34 0 01-.315-.331l.001-.033 3.909-51.35.004-.03c6.173-36.389 17.03-63.818 32.581-82.286 12.311-14.62 17.86-23.79 20.436-33.226l.07-.258c1.068-3.99 1.629-7.796 2.3-14.676l.465-4.872.104-1.063c.143-1.463.277-2.76.42-4.066 1.38-12.64 4.943-21.795 10.36-29.092a53.032 53.032 0 013.937-4.687l.361-.383c.937-.983 3.261-3.33 3.466-3.543z"/><path fill="#115682" fill-rule="nonzero" d="M86.221 50.273l.187.13c-2.33 3.135-8.416 7.955-18.263 14.47l-.607.4-.13-.183.606-.4c9.726-6.433 15.773-11.21 18.135-14.32l.072-.097zm-30.59-20.517c.936 7.24 5.122 16.422 12.559 27.538l.226.338-.179.124c-7.52-11.181-11.784-20.43-12.791-27.75l-.03-.222.215-.028zM93.003 87.33l.128.195c-3.94 2.795-16.05 5.368-36.358 7.734l-.618.071-.024-.234c20.43-2.357 32.69-4.923 36.751-7.682l.121-.084zM39.201 59.91c1.115 3.706 6.314 14.581 15.592 32.61l1.18 2.291-.211.1-.89-1.727C45.5 74.991 40.214 63.964 39.01 60.091l-.036-.118.227-.062zm-6.824 70.302c19.814-5.978 33.73-8.51 41.758-7.591l.242.029-.027.234c-7.871-.983-21.645 1.474-41.313 7.374l-.598.18-.062-.226zM9.743 96.94c.85 8.253 6.993 21.041 18.427 38.353l.348.526-.19.12c-11.56-17.43-17.82-30.335-18.783-38.724l-.027-.253.225-.022zm55.41 54.999l.18.135c-6.194 8.276-22.55 20.398-49.077 36.38l-.807.485-.116-.194c26.708-16.044 43.254-28.233 49.63-36.555l.19-.251z"/></g><path fill="url(#ap)" d="M20.98 32.578c-5.41 28.698-5.41 47.698 0 57l6.942-22.558c-.68-13.96-2.514-24.607-5.5-31.938l-1.442-2.504z" transform="scale(-1 1) rotate(-43 207.452 778.08)"/><path fill="url(#aq)" d="M28.537 68.096c24.136-11.49 40.217-24.57 48.245-39.24-11.625 25.089-28.291 39.755-50 44l1.395-3.333.36-1.427z" transform="scale(-1 1) rotate(-43 207.452 778.08)"/><path fill="url(#ar)" d="M18.389 101.496c17.545-7.522 31.36-18.931 41.444-34.227-8.125 22.248-22.125 34.248-42 36l.572-1.09-.016-.683z" transform="scale(-1 1) rotate(-43 207.452 778.08)"/><path fill="url(#as)" d="M16.816 117.692C9.79 93.393 5.076 78.806 2.673 73.93c-4.777 13.693-.338 29.026 13.317 46l.419-1.25.407-.988z" transform="scale(-1 1) rotate(-43 207.452 778.08)"/><path fill="url(#at)" d="M32.761 57.244c-.564-25.333 2.174-42 8.214-50 2.08 14.868 2.267 26.4.559 34.594l-7.032 12.066-1.74 3.34z" transform="scale(-1 1) rotate(-43 207.452 778.08)"/><path fill="url(#au)" d="M48.429 33.747c13.34-7.612 22.34-18.612 27-33-14.983 10.01-23.983 21.01-27 33z" transform="scale(-1 1) rotate(-43 207.452 778.08)"/><path fill="#115682" fill-rule="nonzero" d="M417.335 339.083l-.983-.109c-3.6 36.15-15.433 65.445-35.495 87.904l-.61.679.735.667c20.374-22.482 32.454-51.834 36.241-88.041l.112-1.1z"/><path fill="url(#av)" d="M818.056-39.995c-4.584 24.245 5.752 45.44 31.007 63.588 37.883 27.221 132.15 1.884 183.197 12.735 51.047 10.851 70.39 27.601 82.412 43.726 12.023 16.126 24.756 49.076 72.696 68.647 47.94 19.57 143.577-3.22 196.756 38.212 35.453 27.62 69.931 50.316 103.435 68.087L1508-44l-689.944 4.005z" opacity=".3"/><path fill="url(#aw)" d="M974.993-14.546c-4.308 22.744 5.405 42.628 29.14 59.652 35.602 25.536 124.193 1.767 172.166 11.947s66.15 25.893 77.45 41.02c11.299 15.127 28.805 62.782 64.433 75.822 35.629 13.04 57.249-5.346 80.932 13.04 23.683 18.387 30.53 78.002 55.847 58.022 16.878-13.32 22.534-102.639 16.969-267.957l-496.937 8.454z" opacity=".5"/><g transform="translate(1147 192)"><path fill="url(#ax)" d="M38.162 7.667c5.005.111 8.535 1.254 10.587 3.43 3.08 3.264 3.818 8.266 3.449 11.302-.37 3.037-1.258 4.778 1.144 8.082 2.402 3.303 8.586 12.151 4.293 18.639-4.293 6.487-30.874 12.553-47.35 3.147C-.7 45.997-2.885 37.906 3.727 27.995c2.6-3.73 6.005-5.596 10.216-5.596 6.316 0 5.75-.863 6.33-3.635.58-2.773 2.884-10.488 11.822-11.024-1.54-2.759-1.786-4.853-.735-6.284.644-.765 1.753-1.41 3.417-1.454 1.51-.04 2.672.485 3.393 1.09 1.195 1.03 1.193 3.222-.008 6.575z" transform="translate(27.318 53.98)"/><path fill="#FFF" fill-rule="nonzero" d="M53.203 65.112a.112.112 0 11.178.135c-2.184 2.89-3.157 5.317-2.928 7.277l.012.088c.453 3.317-2.575 6.363-6.365 5.881-5.736-.79-9.644 1.499-11.752 6.886a.112.112 0 11-.208-.082c2.145-5.483 6.152-7.83 11.99-7.026 3.606.458 6.488-2.4 6.125-5.534l-.012-.095c-.28-2.045.71-4.554 2.96-7.53zm24.425 18.795a.112.112 0 01.158.016c4.194 5.186 6.294 9.537 6.294 13.062a.112.112 0 11-.224 0c0-3.463-2.08-7.772-6.244-12.92a.112.112 0 01.016-.158z"/><g transform="translate(90.237 34.27)"><mask id="aA" fill="#fff"><use xlink:href="#ay"/></mask><use fill="url(#az)" xlink:href="#ay"/><path fill="#000" mask="url(#aA)" d="M2.015 61.819l10.524 18.463-2.13 1.024z"/></g><path fill="#000" fill-rule="nonzero" d="M147.189 50.432l-.01-.224 10.748-.595c1.685-.24 2.581-1.1 2.718-2.599l.006-.078c.109-1.504-.96-2.297-3.253-2.385l-.098-.004-11.57 1.566-.044-.219 8.757-2.38.05-.034c1.07-.765 1.39-1.686.977-2.792l-.026-.066c-.44-1.106-2.018-1.334-4.762-.642l-.222.057-11.527 3.068 2.749-5.195c.726-1.846.404-2.952-.957-3.383-1.333-.422-2.269.06-3.116 1.234-.074.103-.147.21-.225.33l-.083.128-.222.354c-.123.196-.281.53-.53 1.108l-.598 1.412c-.105.246-.199.461-.292.673l-.11.246c-.474 1.049-.884 1.822-1.28 2.37-.204.281-.401.496-.593.639-.728.545-1.689 1.79-2.481 3.317a17.427 17.427 0 00-1.87 6.413.112.112 0 11-.223-.02 17.65 17.65 0 011.894-6.497c.787-1.517 1.74-2.763 2.49-3.35l.056-.042c.171-.128.353-.327.545-.592.4-.553.821-1.354 1.312-2.452l.135-.305c.094-.215.192-.442.304-.705l.438-1.038c.281-.66.456-1.038.596-1.268l.216-.345.048-.075c.103-.161.196-.3.292-.432.897-1.244 1.923-1.773 3.365-1.316 1.481.469 1.855 1.688 1.125 3.605l-.033.085-2.515 4.753 11.033-2.937.224-.057c2.807-.708 4.485-.479 5.005.728l.02.048c.492 1.235.144 2.286-1.03 3.124l-.067.047-.034.016-7.128 1.936 9.895-1.337c2.458.07 3.676.926 3.59 2.562l-.004.065c-.117 1.63-1.069 2.593-2.836 2.87l-.089.013-.725.04.067.006c1.905.176 2.824.972 2.71 2.388l-.005.061c-.164 1.645-1.05 2.517-2.631 2.587l-.08.003h-.864l.025.01c.856.35 1.18 1.127.961 2.303l-.014.074c-.397 1.347-1.88 1.944-4.403 1.813-7.223.617-12.246 2.833-15.068 6.627l-.702 1.284c-4.503 8.226-8.693 15.503-12.568 21.831a.112.112 0 11-.191-.117l.402-.657c3.962-6.501 8.25-13.984 12.87-22.462 2.875-3.866 7.957-6.107 15.253-6.73 2.446.127 3.832-.431 4.19-1.643.26-1.291-.148-2.022-1.228-2.242l-.06-.012-6.845-.08v-.223h8.24c1.488-.04 2.306-.8 2.481-2.308l.009-.08c.15-1.515-.973-2.261-3.445-2.24l-.097.002-9.042.362z"/><g transform="translate(.224 .224)"><mask id="aD" fill="#fff"><use xlink:href="#aB"/></mask><use fill="#FFC7CA" xlink:href="#aB"/><use fill="url(#aC)" xlink:href="#aB"/><path fill="#000" mask="url(#aD)" d="M31.487 83.559l-20.48 6.706v3.36l21.013-8.511z"/></g><path fill="#000" fill-rule="nonzero" d="M6.019.502C7.125-.126 8.277.005 9.464.895l.539.504c5.734 5.35 9.168 8.048 10.207 8.048.925 0 1.405-1.194 1.752-3.694l.045-.337.166-1.326c.03-.243.058-.439.086-.624.3-1.996 1.129-2.601 2.661-2.601 1.184 0 2.05 1.434 1.795 3.151l-.012.075c-.372 2.23-.451 7.066-.023 9.515l.022.125c.51 2.7.05 5.698-1.168 7.925l-.064.114c-.777 1.374-1.167 3.703-1.164 6.969l.002.335 3.12 21.772a.112.112 0 01-.217.052l-.004-.02-3.122-21.787c-.032-3.436.35-5.887 1.15-7.359l.04-.072c1.218-2.153 1.699-5.09 1.233-7.748l-.026-.14c-.458-2.434-.383-7.426 0-9.718.272-1.628-.52-2.966-1.562-2.966-1.406 0-2.134.517-2.427 2.326l-.013.086a32.05 32.05 0 00-.107.788l-.123.996-.041.314-.01.074c-.366 2.707-.871 4-1.989 4-1.163 0-4.762-2.855-10.89-8.606C8.21.236 7.154.116 6.13.697c-.976.554-.91 1.613.235 3.218l.055.076 7.831 7.26-.151.165-8.657-7.848c-1.101-.937-2.037-1.09-2.837-.48l-.047.037c-1.094.88-.677 2.474.747 3.698l.752.637c.463.394 1.073.917 1.83 1.57l4.717 4.077-.145.17-7.722-6.403-.042.006c-.656.097-1.146.318-1.474.662l-.044.047c-.515.582-.524 1.736-.007 2.222l.11.1c.567.503 2.625 2.23 6.167 5.172l1.04.863-.141.174-6.414-5.067-.034.006c-.596.114-1.032.358-1.312.728l-.037.052c-.438.629-.19 1.742.556 2.276l.107.074c.669.473 2.945 2.502 6.846 6.101a.112.112 0 01-.151.165L6.22 18.904c-2.934-2.688-4.661-4.21-5.17-4.556l-.018-.012c-.885-.587-1.188-1.875-.666-2.625.315-.452.814-.742 1.492-.872l.086-.016.047-.008-.506-.43c-.194-.167-.334-.29-.42-.367l-.048-.044C.41 9.4.42 8.109 1.01 7.44c.367-.415.92-.675 1.655-.783l.122-.016-.016-.017c-1.178-1.231-1.463-2.731-.4-3.635l.047-.04c.89-.715 1.934-.577 3.107.395l.065.055.405.367-.005-.007C4.983 2.228 4.963 1.137 5.97.53l.049-.029z"/><use fill="#FFC7CA" xlink:href="#aE"/><use fill="url(#aF)" xlink:href="#aE"/><g transform="translate(49.933 286.25)"><mask id="aH" fill="#fff"><use xlink:href="#aG"/></mask><use fill="#FFC7CA" xlink:href="#aG"/><path fill="#000" mask="url(#aH)" d="M17.68 4.629l-14.2 9.79 1.273 1.863L17.946 5.018z"/></g><g transform="translate(118.45 195.538)"><mask id="aJ" fill="#fff"><use xlink:href="#aI"/></mask><use fill="#FFC7CA" xlink:href="#aI"/><path fill="#000" mask="url(#aJ)" d="M9.628 3.594l.439-.234 8.578 12.041-1.816 1.022z"/></g><path fill="#FFF" d="M77.138 172.68c-7.35 6.64-26.284 6.068-56.804-1.717v-19.335c-2.091-7.537-2.846-12.218-2.265-14.043 1.465-6.825 2.22-16.437 2.265-28.835-5.782-4.187-9.449-8.875-10.998-14.064L35.614 83.77c2.162 2.792 3.56 4.565 4.194 5.319.95 1.13 3.355 4.078 5.815 8.613 2.46 4.534 11.22 8.923 16.486 3.512 12.057.4 21.495-2.629 28.315-9.084l11.233 26.077c-4.151 3.156-8.779 5.487-13.883 6.993-.985.29-4.465 7.931-4.465 13.57 0 2.432-4.87 12.187-3.12 21.47.588 3.125-.429 7.271-3.05 12.44z"/><path fill="#000" fill-rule="nonzero" d="M35.571 83.666L9.293 94.582a.112.112 0 00-.064.136l.048.16c1.568 5.097 5.174 9.709 10.815 13.834l.13.095-.003.683c-.072 12.034-.826 21.391-2.26 28.071l-.017.056c-.55 1.864.192 6.461 2.222 13.815l.058.212v19.319c0 .05.035.095.085.108 30.556 7.795 49.517 8.369 56.907 1.692l.024-.032c2.603-5.131 3.631-9.265 3.08-12.406l-.02-.105a21.148 21.148 0 01-.245-1.677c-.428-4.023.165-8.149 1.545-13.054l.125-.439c.075-.257.174-.588.281-.947l.865-2.843.091-.309c.31-1.06.452-1.701.46-2.141v-.04c0-2.537.716-5.706 1.857-8.751l.116-.306c.923-2.39 1.975-4.276 2.413-4.406 5.117-1.51 9.757-3.847 13.919-7.011a.112.112 0 00.035-.133L90.526 92.086a.112.112 0 00-.18-.037c-6.795 6.433-16.204 9.451-28.234 9.053a.112.112 0 00-.084.034c-2.393 2.459-5.699 3.035-9.181 1.945-3.058-.957-5.88-3.136-7.125-5.433-1.888-3.479-3.723-6.094-5.59-8.346l-.362-.434c-.681-.822-2.037-2.545-4.067-5.167a.112.112 0 00-.132-.035zm47.084 57.53l-.6 1.963c-.219.722-.444 1.473-.576 1.93l-.028.096c-1.436 5.038-2.06 9.259-1.62 13.381a21 21 0 00.197 1.417l.07.382c.535 3.048-.454 7.08-2.973 12.093l-.077.152-.207.183c-7.392 6.332-25.922 5.772-55.568-1.708l-.827-.21v-19.247l-.004-.03-.123-.447c-1.99-7.251-2.704-11.773-2.144-13.532 1.47-6.845 2.226-16.463 2.271-28.868a.112.112 0 00-.046-.091l-.176-.128c-5.604-4.099-9.18-8.672-10.733-13.72l-.019-.062 26.106-10.844 1.467 1.888c1.286 1.65 2.169 2.76 2.648 3.332l.029.035c1.94 2.306 3.843 4.982 5.803 8.594 1.275 2.35 4.144 4.566 7.255 5.54l.116.035c3.477 1.053 6.789.473 9.212-1.956l.046-.047.313.01c11.792.325 21.07-2.652 27.827-8.932l.09-.084 11.135 25.85.07-.053c-4.14 3.147-8.755 5.472-13.846 6.974-.553.164-1.663 2.172-2.636 4.742l-.04.106c-1.125 3.004-1.84 6.13-1.87 8.668v.161c0 .45-.166 1.167-.542 2.427z"/><path d="M17.074 97.696l10.395-3.993.626 1.632L17.7 99.327zm14.413 5.811l10.528 3.627-.568 1.652-10.528-3.627zm54.398-3.666l9.544 5.738-.9 1.498-9.544-5.738zm-.434 14.193l10.528 3.627-.57 1.653-10.527-3.628zm-28.538 23.095l10.528 3.627-.568 1.653-10.528-3.627zm-34.02-15.702l9.643-5.57.872 1.513-9.641 5.57zm2.211 21.553l1.55-11.033 1.729.243-1.55 11.033zm18.24-17.7l8.274-7.456 1.168 1.3-8.273 7.454zm11.672 34.26l9.643-5.57.873 1.512-9.643 5.57zm6.169 14.982l10.398-3.993.626 1.631-10.398 3.993zm13.438-73.386l4.35 10.256-1.607.683-4.351-10.256zm-21.258 5.329l10.755 2.883-.452 1.688-10.754-2.884zm14.945 14.512l6.386 9.127-1.43 1.003-6.387-9.127zm-31.452 22.151l8.53 7.161-1.122 1.339-8.53-7.162zm-16.524 14.405l10.891-2.318.363 1.71-10.89 2.317zm19.901 6.142l9.83 5.231-.82 1.543-9.83-5.23z" fill="#DDE9FF" opacity=".636"/><g transform="translate(3.807 92.057)"><mask id="aM" fill="#fff"><use xlink:href="#aK"/></mask><use fill="url(#aL)" xlink:href="#aK"/><path fill="#FFF" fill-rule="nonzero" d="M22.29 76.78l.203.093c-3.784 8.34-8.667 14.004-14.65 16.987l-.18.09-.099-.202c5.954-2.904 10.825-8.475 14.611-16.717l.114-.25zm46.001 1.667c2.169 9.419 7.497 14.894 15.997 16.443l.259.046-.038.22c-8.656-1.485-14.116-6.95-16.369-16.372l-.067-.287.218-.05z" mask="url(#aM)"/><path fill="#FFF" fill-rule="nonzero" d="M22.045 77.168l-.39 1.978.22.043.39-1.978-.22-.043zm-.78 3.955l-.39 1.978.22.043.39-1.977-.22-.044zm-.78 3.956l-.389 1.978.22.043.39-1.978-.22-.043zm-.779 3.955l-.39 1.978.22.044.39-1.978-.22-.044zm-.78 3.956l-.39 1.978.22.043.39-1.978-.22-.043zm-.78 3.956l-.39 1.977.22.044.39-1.978-.22-.043zm-.78 3.955l-.389 1.978.22.043.39-1.978-.22-.043zm-.779 3.956l-.39 1.977.22.044.39-1.978-.22-.043zm-.78 3.955l-.39 1.978.22.043.39-1.978-.22-.043zm-.78 3.956l-.39 1.977.22.044.39-1.978-.22-.043zm-.779 3.955l-.39 1.978.22.043.39-1.977-.22-.044zm-.78 3.956l-.39 1.977.22.044.39-1.978-.22-.043zm-.78 3.955l-.39 1.978.22.043.39-1.977-.22-.044zm-.78 3.956l-.39 1.978.22.043.39-1.978-.22-.043zm-.779 3.955l-.39 1.978.22.043.39-1.977-.22-.044zm-.78 3.956l-.39 1.978.22.043.39-1.978-.22-.043zm-.697 3.977c-.082.685-.15 1.355-.204 2.01l.223.018a56.81 56.81 0 01.203-2.001l-.222-.027zm-.328 4.028a39.727 39.727 0 00-.029 2.022l.224-.002c-.008-.652.002-1.322.029-2.01l-.224-.01zm.055 4.045c.05.695.123 1.366.218 2.013l.222-.033a27.358 27.358 0 01-.217-1.996l-.223.016zm.6 4.001c.162.68.354 1.328.576 1.944l.21-.075a18.384 18.384 0 01-.569-1.921l-.218.052zm1.387 3.817c.269.52.564 1.013.885 1.477l.173.243.182-.13-.051-.07a13.037 13.037 0 01-.99-1.623l-.2.103zm2.402 3.24l-.184.128.492.708c.207.298.425.615.655.949l.184-.127-.655-.95a316.09 316.09 0 00-.492-.708zm2.288 3.32l-.185.126 1.136 1.665.185-.126-1.001-1.468-.135-.197zm2.084 3.458l1.131 1.67.186-.126-1.131-1.67-.186.126zm2.26 3.338l1.128 1.672.186-.126-1.128-1.67-.186.124zm2.253 3.341l1.125 1.672.186-.125-1.125-1.672-.186.125zm2.25 3.346l1.124 1.674.186-.125-1.124-1.674-.186.125zm2.246 3.346l1.122 1.674.186-.125-1.122-1.674-.186.125zm2.245 3.35l1.122 1.675.186-.125-1.122-1.675-.186.125zm2.243 3.351l1.12 1.676.187-.125-1.12-1.675-.187.124zm2.24 3.351l1.12 1.676.187-.124-1.12-1.676-.186.124zm2.239 3.351l1.119 1.677.186-.125-1.119-1.676-.186.124zm2.238 3.354l.962 1.442.186-.124-.962-1.442-.186.124zm32.944-109.75l.706 1.646.206-.088-.706-1.647-.206.089zm1.412 3.293l.706 1.647.206-.088-.706-1.647-.206.088zm1.412 3.294l.706 1.647.206-.089-.706-1.646-.206.088zm1.412 3.294l.706 1.646.206-.088-.706-1.647-.206.089zm1.412 3.293l.706 1.647.206-.088-.706-1.647-.206.088zm1.412 3.294l.706 1.647.206-.089-.706-1.646-.206.088zm1.412 3.294l.706 1.646.206-.088-.706-1.647-.206.089zm1.412 3.293l.706 1.647.206-.088-.706-1.647-.206.088zm1.412 3.294l.706 1.647.206-.089-.706-1.646-.206.088zm1.412 3.294l.245.57.015.025c.247.315.495.618.746.908l.17-.146a25.667 25.667 0 01-.74-.9l.015.025-.245-.57-.206.088zm2.235 2.822c.442.435.89.836 1.343 1.202l.14-.174a18.02 18.02 0 01-1.326-1.188l-.157.16zm2.814 2.255c.524.329 1.055.613 1.593.852l.091-.204a12.588 12.588 0 01-1.565-.838l-.12.19zm3.299 1.456c.586.155 1.18.26 1.782.316l.02-.223a10.559 10.559 0 01-1.745-.31l-.057.217zm3.585.333a12.31 12.31 0 001.789-.262l-.049-.219c-.592.131-1.177.217-1.756.258l.016.223zm3.517-.828l1.598-.808-.1-.2-1.6.808.102.2zm3.197-1.617l1.598-.809-.1-.2-1.6.81.102.199zm3.197-1.617l1.598-.809-.1-.2-1.6.809.102.2zm3.197-1.618l1.598-.808-.1-.2-1.6.809.102.2zm3.197-1.617l1.599-.809-.102-.2-1.598.81.101.2zm3.197-1.617l.69-.35-.101-.199-.69.349.101.2z" mask="url(#aM)"/><path fill="#FFF" fill-rule="nonzero" d="M11.534 74.46C40.1 80.787 62.03 81.127 77.32 75.492l.461-.172.159.419c-15.25 5.791-37.127 5.571-65.637-.65l-.866-.19.097-.437z" mask="url(#aM)"/><path fill="#000" d="M43.54 100.793l-8.029 41.326c-.782 7.53 1.894 14.895 8.029 22.094 6.135 7.2 14.834 17.417 26.097 30.653L45.22 160.5c-3.939-4.714-5.813-10.762-5.622-18.145 1.209-9.13 2.523-22.984 3.942-41.562z" mask="url(#aM)"/></g><path fill="#FFF" d="M59.66 309.594c-14.878 5.744-20.54 12.626-16.983 20.646l5.16 9.095 40.143-29.383c.321-6.382-3.683-10.397-12.012-12.047l-1.002-1.423c-.634-.643-1.283-.769-1.946-.38-.663.39-.775 1.104-.337 2.143l1.069 1.777c-3.13 6.381-7.718 9.572-13.762 9.572l-.148-.003-.181.003z"/><path fill="#FFCE66" d="M75.849 297.898l6.267 14.416 5.882-4.337c-.823-4.707-4.074-7.837-9.754-9.392l-2.395-.687z"/><path fill="#95BDEC" d="M47.022 337.667l40.976-29.69v2.141l-40.249 29.217-.727-1.38z"/><path fill="#000" fill-rule="nonzero" d="M72.917 296.034c-.678.429-.785 1.193-.337 2.255l1.044 1.738.028-.054c-3.113 6.344-7.663 9.509-13.662 9.509l-.146-.003-.185.003-.038.007c-14.93 5.764-20.636 12.7-17.047 20.796l5.228 9.214 40.287-29.489.012-.245c.231-6.268-3.735-10.246-11.86-11.92l-.207-.041-.976-1.387c-.68-.69-1.385-.828-2.095-.41l-.046.027zm1.97.526l1.016 1.446.29.058c8.03 1.653 11.911 5.546 11.684 11.693l-.006.136-39.999 29.277-5.098-8.985-.103-.238c-3.267-7.754 2.238-14.446 16.588-20.077l.424-.165.16-.002.146.002c6.03 0 10.622-3.152 13.769-9.442l.121-.246-1.1-1.83c-.412-.978-.309-1.631.298-1.988.616-.362 1.21-.246 1.81.361z"/><path fill="#4A82ED" fill-rule="nonzero" d="M43.154 316.619a.112.112 0 01.143.016l.012.016 5.022 7.707a.112.112 0 01-.176.138l-.012-.016-5.021-7.706a.112.112 0 01.032-.155zm2.015-1.568a.112.112 0 01.143.017l.012.015 5.022 7.707a.112.112 0 01-.175.138l-.013-.016-5.021-7.706a.112.112 0 01.032-.155zm2.24-1.792a.112.112 0 01.142.017l.012.016 5.022 7.706a.112.112 0 01-.175.138l-.013-.016-5.021-7.706a.112.112 0 01.033-.155z"/><path fill="#FFF" d="M142.402 208.056c2.785 16.687 8.44 24.75 16.967 24.188 8.526-.562 13.248-3.252 14.165-8.068l-22.861-40.917c-7.588-.444-13.421 2.838-17.5 9.843-.694.36-1.122.605-1.285.734-.245.194-.903.728-.43 1.702.471.974 1.482.707 2.008.473.35-.155.747-.346 1.187-.572 3.778.656 6.22 2.176 7.328 4.56 1.107 2.385 1.248 5.07.421 8.057z"/><path fill="url(#aN)" d="M2.265 10.414l20.362-2.537-4.35-7.436C12.068.565 7.188 3.237 3.637 8.459l-.685.983-.687.972z" transform="translate(130.85 182.778)"/><path fill="#95BDEC" d="M149.127 183.219l23.92 42.557.487-1.484-22.752-41.073z"/><path fill="#000" fill-rule="nonzero" d="M133.2 192.836l-.108.182-.265.139c-.529.28-.863.476-1.009.591l-.033.026c-.573.462-.818 1.01-.428 1.813.422.87 1.252.927 2.155.527l.107-.048c.29-.13.607-.284.954-.46l.098-.05-.037-.007c3.745.65 6.155 2.15 7.245 4.498 1.096 2.36 1.235 5.017.415 7.98l-.002.047c2.793 16.738 8.483 24.849 17.084 24.282 8.485-.56 13.243-3.227 14.24-8.013l.036-.186-22.911-41.007-.062-.003c-7.554-.442-13.386 2.792-17.48 9.689zm17.405-9.47l22.811 40.829.008-.04c-.906 4.755-5.582 7.418-14.063 7.977l-.252.014c-8.226.378-13.735-7.476-16.512-23.612l-.08-.473-.007.025c.833-3.011.692-5.724-.428-8.134-1.11-2.392-3.537-3.923-7.267-4.598l-.18-.032-.033.017c-.439.226-.833.415-1.181.57-.807.358-1.51.31-1.863-.42-.324-.67-.145-1.11.326-1.506l.074-.06.038-.029c.174-.125.56-.344 1.153-.653l.104-.054.016-.028c4.018-6.9 9.737-10.164 17.172-9.8l.164.008z"/><path fill="#4A82ED" fill-rule="nonzero" d="M155.847 222.65l.13.183-8.916 6.342-.13-.182zm-1.004-1.669l.13.182-8.915 6.343-.13-.182zm-1.343-1.568l.13.183-8.916 6.342-.13-.182z"/><ellipse cx="64.711" cy="78.058" fill="#FFF" rx="1" ry="1.68"/><ellipse cx="64.823" cy="78.058" fill="#000" rx="1" ry="1.456"/><ellipse cx="71.429" cy="78.73" fill="#FFF" rx="1" ry="1.68"/><ellipse cx="71.541" cy="78.73" fill="#000" rx="1" ry="1.456"/><path fill="#000" fill-rule="nonzero" d="M65.722 86.262a.224.224 0 01.304.087c.696 1.25 1.572 1.336 2.79.25a.224.224 0 11.299.334c-1.423 1.268-2.637 1.148-3.48-.366a.224.224 0 01.087-.305z"/><path fill="#2F1B16" d="M62.295 90.763c-1.425-.988-2.785-2.573-4.077-4.753 1.568 3.042 2.865 5.058 3.892 6.047l.185-1.294z"/><path fill="#000" fill-rule="nonzero" d="M16.366 12.209c.06.011.101.07.09.13-.548 2.963-2.3 4.716-5.24 5.242a.112.112 0 01-.04-.22c2.848-.51 4.529-2.19 5.06-5.062a.112.112 0 01.11-.092l.02.002zm2.837.908a.112.112 0 01.152.044c1.21 2.208 2.377 3.302 3.484 3.302a.112.112 0 010 .224c-1.213 0-2.435-1.146-3.68-3.418a.112.112 0 01.044-.152zm123.152 34.48a.112.112 0 01.095.128c-.488 3.364.196 5.788 2.045 7.288a.112.112 0 01-.14.174c-1.919-1.556-2.625-4.059-2.127-7.495a.112.112 0 01.107-.095h.02zm-3.855-.828a.112.112 0 11.206.087c-.78 1.832-2.089 2.756-3.91 2.756a.112.112 0 010-.224c1.729 0 2.958-.868 3.704-2.62z"/><path fill="#2F1B16" fill-rule="nonzero" d="M57.576 54.137a.112.112 0 11.18.134c-1.422 1.914-.876 4.4 1.668 7.477a.112.112 0 01-.173.143l-.158-.194c-2.467-3.06-2.982-5.587-1.517-7.56z"/><path fill="#2F1B16" fill-rule="nonzero" d="M55.52 57.004a.112.112 0 01.122.1c.208 2.107 1.374 3.565 3.512 4.387a.112.112 0 01-.08.209c-2.215-.852-3.438-2.38-3.655-4.573a.112.112 0 01.1-.123zm9.856 4.48c5.114-.335 9.084.983 11.897 3.955 2.813 2.97 4.077 7.068 3.797 12.298-.374 2.894.159 4.868 1.589 5.937l.064.048c2.44 1.747 5.747 7.127 6.058 10.115a.112.112 0 11-.222.024c-.301-2.894-3.51-8.14-5.894-9.905l-.072-.052c-1.557-1.114-2.134-3.185-1.746-6.188.277-5.163-.97-9.202-3.736-12.123-2.765-2.92-6.669-4.216-11.72-3.886a.112.112 0 01-.015-.223z"/><path fill="#000" fill-rule="nonzero" d="M68.15 79.517a.224.224 0 01.258.185l.042.265c.228 1.48.279 2.547.149 3.213-.158.805-.631 1.11-1.297.792a.224.224 0 01.193-.404c.378.18.559.064.664-.474.125-.64.062-1.75-.193-3.32a.224.224 0 01.185-.257z"/><path fill="#FFF" fill-rule="nonzero" d="M35.63 112.034l-.408 1.043.208.082.409-1.043-.208-.082zm-.817 2.085l-.409 1.043.209.082.408-1.043-.208-.082zm-.818 2.086l-.409 1.042.209.082.409-1.043-.209-.081zm-.817 2.085l-.41 1.042.21.082.408-1.042-.208-.082zm-.61 2.167l-.208-.082-.278.708.671.032.011-.224-.515-.025.099.153.22-.562zm1.304.712l1.118.053L35 121l-1.118-.054-.01.224zm2.236.107l1.118.054.011-.224-1.118-.053-.01.223zm2.237.108l1.118.054.01-.224-1.117-.054-.011.224zm2.236.108l1.119.053.01-.223-1.118-.054-.01.224zm2.237.107l1.118.054.01-.224-1.117-.053-.011.223zm2.236.108l1.119.054.01-.224-1.118-.054-.01.224zm2.237.108l1.118.053.011-.223-1.118-.054-.011.224zm2.237.107l1.118.054.01-.224-1.118-.054-.01.224zm2.236.108l1.118.054.011-.224-1.118-.054-.01.224zm2.237.107l1.118.054.01-.223-1.118-.054-.01.223zm2.236.108l1.118.054.011-.224-1.118-.054-.01.224zm2.237.108l1.118.054.01-.224-1.117-.054-.011.224zm2.236.107l1.119.054.01-.223-1.118-.054-.01.223zm2.237.108l1.118.054.01-.224-1.117-.054-.011.224zm2.236.108l1.119.054.01-.224-1.118-.054-.01.224zm2.237.107l1.118.054.011-.223-1.118-.054-.011.223zm2.237.108l1.118.054.01-.224-1.118-.054-.01.224zm2.247-.116l-.01.224 1.224.059.01-.11-.224-.018v.002l.111.009.006-.112-1.117-.054zm1.313-.943l.09-1.116-.223-.018-.09 1.116.223.018zm.18-2.233l.09-1.116-.223-.018-.09 1.116.223.018zm.18-2.232l.09-1.117-.223-.018-.09 1.117.223.018zm.18-2.233l.09-1.116-.223-.018-.09 1.116.223.018zm.18-2.232l.066-.818-.223-.018-.066.818.223.018z"/><ellipse cx="33.027" cy="119.719" fill="#5382B9" rx="1.903" ry="1.904"/><ellipse cx="72.66" cy="122.407" fill="#5382B9" rx="1.903" ry="1.904"/><path fill="#FFF" fill-rule="nonzero" d="M116.576 199.53l.916 1.54.193-.114-.916-1.54-.193.115zm1.832 3.08l.916 1.54.193-.114-.916-1.54-.193.115zm1.832 3.08l.916 1.54.193-.114-.916-1.54-.193.114zm1.832 3.08l.916 1.54.193-.115-.916-1.54-.193.115zm1.832 3.08l.916 1.54.193-.115-.916-1.54-.193.115zm1.832 3.08l.916 1.54.193-.115-.916-1.54-.193.115zm1.832 3.08l.916 1.54.193-.115-.916-1.54-.193.114zm1.832 3.08l.916 1.539.193-.115-.916-1.54-.193.115zm1.832 3.079l.445.748.193-.115-.445-.748-.193.115zm-96.235 73.326l1.456-1.044-.13-.182-1.457 1.044.13.182zm2.911-2.088l1.456-1.044-.13-.182-1.456 1.044.13.182zm2.912-2.088l1.456-1.044-.13-.182-1.456 1.044.13.182zm2.912-2.087l1.456-1.044-.13-.182-1.456 1.044.13.182zm2.912-2.088L48.1 288.1l-.13-.182-1.456 1.044.13.182zm2.912-2.088l1.456-1.044-.13-.182-1.456 1.044.13.182zm2.912-2.088l1.456-1.043-.13-.182-1.456 1.043.13.182zm2.912-2.087l1.456-1.044-.13-.182-1.456 1.044.13.182zm2.912-2.088l1.456-1.044-.13-.182-1.456 1.044.13.182zm2.912-2.088l1.456-1.043-.13-.183-1.456 1.044.13.182zm2.912-2.087l.194-.14-.13-.181-.194.139.13.182z"/><path fill="#000" fill-rule="nonzero" d="M69.618 74.409c1.313-.514 2.55-.315 3.659.589a.336.336 0 01-.424.521c-.923-.752-1.903-.91-2.99-.484a.336.336 0 11-.245-.626z"/><path fill="#FFBDC1" d="M56.33 77.834c-.176-1.19-.773-1.785-1.79-1.785-1.526 0-1.248 4.223 1.79 6.489v-4.704z"/><path fill="#000" fill-rule="nonzero" d="M62.76 73.822c1.252-.649 2.502-.58 3.7.203a.336.336 0 01-.367.563c-.996-.651-1.988-.706-3.024-.17a.336.336 0 11-.31-.596z"/></g><circle cx="476" cy="310" r="7.75" stroke="#84CAF7" stroke-width=".5"/><circle cx="1332.5" cy="277.5" r="4.25" stroke="#84CAF7" stroke-width=".5"/><circle cx="181" cy="218" r="7.75" stroke="#84CAF7" stroke-width=".5"/><circle cx="996" cy="341" r="7.75" stroke="#84CAF7" stroke-width=".5"/><path fill="url(#aO)" d="M-18.005 170c13.2-27.655 33.775-48.655 61.727-63C85.65 85.482 158.463 65.964 177.083 28.482 189.497 3.494 197.803-20.667 202-44H-61.651L-78 170h59.995z" opacity=".5"/><path fill="url(#aP)" d="M-35 331c54.263-37.064 83.986-71.616 89.17-103.655 7.776-48.059-17.585-64.16 0-97.472 17.585-33.313 82.776-55.837 96.803-92.882C160.324 12.294 165-5.403 165-16.1L-15.194-31-35 331z" opacity=".4"/><circle cx="912" cy="227" r="17" fill="url(#aQ)" opacity=".7"/><circle cx="141" cy="146" r="9" fill="url(#aQ)" opacity=".4"/></g></svg>