<?xml version="1.0" encoding="utf-8"?>
<!-- Generator: Adobe Illustrator 23.1.0, SVG Export Plug-In . SVG Version: 6.00 Build 0)  -->
<svg version="1.1" id="图层_1" xmlns="http://www.w3.org/2000/svg" xmlns:xlink="http://www.w3.org/1999/xlink" x="0px" y="0px"
	 viewBox="0 0 1440 538" style="enable-background:new 0 0 1440 538;" xml:space="preserve">
<style type="text/css">
	.st0{display:none;fill-rule:evenodd;clip-rule:evenodd;fill:#090724;}
	.st1{opacity:0.3;filter:url(#b);enable-background:new    ;}
	.st2{fill-rule:evenodd;clip-rule:evenodd;fill:url(#SVGID_1_);}
	.st3{fill-rule:evenodd;clip-rule:evenodd;fill:url(#SVGID_2_);}
	.st4{fill-rule:evenodd;clip-rule:evenodd;fill:#F4BB42;}
	.st5{fill-rule:evenodd;clip-rule:evenodd;fill:url(#SVGID_3_);}
	.st6{fill-rule:evenodd;clip-rule:evenodd;fill:url(#SVGID_4_);}
	.st7{fill-rule:evenodd;clip-rule:evenodd;fill:url(#SVGID_5_);}
	.st8{fill-rule:evenodd;clip-rule:evenodd;fill:url(#SVGID_6_);}
	.st9{fill:#115682;}
	.st10{fill-rule:evenodd;clip-rule:evenodd;fill:url(#SVGID_7_);}
	.st11{fill-rule:evenodd;clip-rule:evenodd;fill:url(#SVGID_8_);}
	.st12{fill-rule:evenodd;clip-rule:evenodd;fill:url(#SVGID_9_);}
	.st13{fill-rule:evenodd;clip-rule:evenodd;fill:url(#SVGID_10_);}
	.st14{opacity:0.34;filter:url(#i);enable-background:new    ;}
	.st15{fill-rule:evenodd;clip-rule:evenodd;fill:url(#SVGID_11_);}
	.st16{opacity:0.7;filter:url(#k);enable-background:new    ;}
	.st17{fill-rule:evenodd;clip-rule:evenodd;fill:url(#SVGID_12_);}
	.st18{fill-rule:evenodd;clip-rule:evenodd;fill:url(#SVGID_13_);}
	.st19{fill-rule:evenodd;clip-rule:evenodd;fill:url(#SVGID_14_);}
	.st20{fill-rule:evenodd;clip-rule:evenodd;fill:url(#n_1_);}
	.st21{fill-rule:evenodd;clip-rule:evenodd;fill:url(#SVGID_15_);}
	.st22{fill-rule:evenodd;clip-rule:evenodd;fill:url(#SVGID_16_);}
	.st23{fill-rule:evenodd;clip-rule:evenodd;fill:url(#SVGID_17_);}
	.st24{fill-rule:evenodd;clip-rule:evenodd;fill:#1D5B80;}
	.st25{fill-rule:evenodd;clip-rule:evenodd;fill:#FFC7CA;}
	.st26{fill-rule:evenodd;clip-rule:evenodd;fill:url(#SVGID_18_);}
	.st27{fill-rule:evenodd;clip-rule:evenodd;fill:url(#w_1_);}
	.st28{fill-rule:evenodd;clip-rule:evenodd;fill:url(#SVGID_19_);}
	.st29{fill-rule:evenodd;clip-rule:evenodd;fill:url(#SVGID_20_);}
	.st30{fill-rule:evenodd;clip-rule:evenodd;fill:url(#SVGID_21_);}
	.st31{filter:url(#Adobe_OpacityMaskFilter);}
	.st32{fill-rule:evenodd;clip-rule:evenodd;fill:#FFFFFF;}
	.st33{mask:url(#z_1_);fill-rule:evenodd;clip-rule:evenodd;fill:#FDF7DA;}
	.st34{filter:url(#Adobe_OpacityMaskFilter_1_);}
	.st35{mask:url(#z_2_);fill-rule:evenodd;clip-rule:evenodd;}
	.st36{filter:url(#Adobe_OpacityMaskFilter_2_);}
	.st37{mask:url(#B_1_);fill-rule:evenodd;clip-rule:evenodd;fill:#FDF7DA;}
	.st38{filter:url(#Adobe_OpacityMaskFilter_3_);}
	.st39{mask:url(#B_2_);fill-rule:evenodd;clip-rule:evenodd;}
	.st40{filter:url(#Adobe_OpacityMaskFilter_4_);}
	.st41{mask:url(#D_1_);fill:#E7F4FF;}
	.st42{fill-rule:evenodd;clip-rule:evenodd;}
	.st43{filter:url(#Adobe_OpacityMaskFilter_5_);}
	.st44{mask:url(#G_1_);fill-rule:evenodd;clip-rule:evenodd;}
	.st45{fill-rule:evenodd;clip-rule:evenodd;fill:url(#SVGID_22_);}
	.st46{fill-rule:evenodd;clip-rule:evenodd;fill:#95BDEC;}
	.st47{fill:#0083EC;}
	.st48{fill-rule:evenodd;clip-rule:evenodd;fill:#FFCB5D;}
	.st49{filter:url(#Adobe_OpacityMaskFilter_6_);}
	.st50{mask:url(#J_1_);fill-rule:evenodd;clip-rule:evenodd;fill:#83A8D3;}
	.st51{fill-rule:evenodd;clip-rule:evenodd;fill:#FFAE00;}
	.st52{fill-rule:evenodd;clip-rule:evenodd;fill:url(#L_1_);}
	.st53{fill-rule:evenodd;clip-rule:evenodd;fill:url(#N_1_);}
	.st54{fill-rule:evenodd;clip-rule:evenodd;fill:url(#SVGID_23_);}
	.st55{fill-rule:evenodd;clip-rule:evenodd;fill:url(#SVGID_24_);}
	.st56{fill-rule:evenodd;clip-rule:evenodd;fill:url(#SVGID_25_);}
	.st57{fill-rule:evenodd;clip-rule:evenodd;fill:url(#SVGID_26_);}
	.st58{fill-rule:evenodd;clip-rule:evenodd;fill:url(#SVGID_27_);}
	.st59{fill-rule:evenodd;clip-rule:evenodd;fill:url(#T_1_);}
	.st60{fill-rule:evenodd;clip-rule:evenodd;fill:url(#SVGID_28_);}
	.st61{fill-rule:evenodd;clip-rule:evenodd;fill:#ADDFFF;}
	.st62{fill-rule:evenodd;clip-rule:evenodd;fill:url(#SVGID_29_);}
	.st63{fill-rule:evenodd;clip-rule:evenodd;fill:url(#SVGID_30_);}
	.st64{fill-rule:evenodd;clip-rule:evenodd;fill:url(#SVGID_31_);}
	.st65{fill-rule:evenodd;clip-rule:evenodd;fill:url(#SVGID_32_);}
	.st66{fill-rule:evenodd;clip-rule:evenodd;fill:url(#SVGID_33_);}
	.st67{fill-rule:evenodd;clip-rule:evenodd;fill:#99E2A1;}
	.st68{fill-rule:evenodd;clip-rule:evenodd;fill:url(#SVGID_34_);}
	.st69{fill-rule:evenodd;clip-rule:evenodd;fill:url(#SVGID_35_);}
	.st70{fill-rule:evenodd;clip-rule:evenodd;fill:url(#SVGID_36_);}
	.st71{fill-rule:evenodd;clip-rule:evenodd;fill:url(#SVGID_37_);}
	.st72{fill-rule:evenodd;clip-rule:evenodd;fill:url(#SVGID_38_);}
	.st73{fill-rule:evenodd;clip-rule:evenodd;fill:url(#SVGID_39_);}
	.st74{fill-rule:evenodd;clip-rule:evenodd;fill:url(#SVGID_40_);}
	.st75{fill-rule:evenodd;clip-rule:evenodd;fill:url(#SVGID_41_);}
	.st76{fill-rule:evenodd;clip-rule:evenodd;fill:url(#SVGID_42_);}
	.st77{fill-rule:evenodd;clip-rule:evenodd;fill:url(#SVGID_43_);}
	.st78{fill-rule:evenodd;clip-rule:evenodd;fill:url(#SVGID_44_);}
	.st79{fill-rule:evenodd;clip-rule:evenodd;fill:url(#SVGID_45_);}
	.st80{fill-rule:evenodd;clip-rule:evenodd;fill:url(#SVGID_46_);}
	.st81{fill-rule:evenodd;clip-rule:evenodd;fill:url(#SVGID_47_);}
	.st82{fill-rule:evenodd;clip-rule:evenodd;fill:url(#SVGID_48_);}
	.st83{opacity:0.3;fill-rule:evenodd;clip-rule:evenodd;fill:url(#SVGID_49_);enable-background:new    ;}
	.st84{opacity:0.5;fill-rule:evenodd;clip-rule:evenodd;fill:url(#SVGID_50_);enable-background:new    ;}
	.st85{fill-rule:evenodd;clip-rule:evenodd;fill:url(#SVGID_51_);}
	.st86{fill-rule:evenodd;clip-rule:evenodd;fill:url(#SVGID_52_);}
	.st87{fill-rule:evenodd;clip-rule:evenodd;fill:url(#SVGID_53_);}
	.st88{filter:url(#Adobe_OpacityMaskFilter_7_);}
	.st89{mask:url(#aA_1_);fill-rule:evenodd;clip-rule:evenodd;}
	.st90{fill-rule:evenodd;clip-rule:evenodd;fill:url(#SVGID_54_);}
	.st91{filter:url(#Adobe_OpacityMaskFilter_8_);}
	.st92{mask:url(#aD_1_);fill-rule:evenodd;clip-rule:evenodd;}
	.st93{fill-rule:evenodd;clip-rule:evenodd;fill:url(#SVGID_55_);}
	.st94{filter:url(#Adobe_OpacityMaskFilter_9_);}
	.st95{mask:url(#aH_1_);fill-rule:evenodd;clip-rule:evenodd;}
	.st96{filter:url(#Adobe_OpacityMaskFilter_10_);}
	.st97{mask:url(#aJ_1_);fill-rule:evenodd;clip-rule:evenodd;}
	.st98{fill-rule:evenodd;clip-rule:evenodd;fill:#DDE9FF;}
	.st99{filter:url(#Adobe_OpacityMaskFilter_11_);}
	.st100{mask:url(#aM_1_);fill:#FFFFFF;}
	.st101{filter:url(#Adobe_OpacityMaskFilter_12_);}
	.st102{mask:url(#aM_3_);fill:#FFFFFF;}
	.st103{filter:url(#Adobe_OpacityMaskFilter_13_);}
	.st104{mask:url(#aM_4_);fill-rule:evenodd;clip-rule:evenodd;}
	.st105{fill-rule:evenodd;clip-rule:evenodd;fill:#FFCE66;}
	.st106{fill-rule:evenodd;clip-rule:evenodd;fill:url(#SVGID_56_);}
	.st107{fill:#4A82ED;}
	.st108{fill-rule:evenodd;clip-rule:evenodd;fill:#2F1B16;}
	.st109{fill:#FFFFFF;}
	.st110{fill-rule:evenodd;clip-rule:evenodd;fill:#5382B9;}
	.st111{fill-rule:evenodd;clip-rule:evenodd;fill:#FFBDC1;}
	.st112{fill:none;stroke:#84CAF7;stroke-width:0.5;}
	.st113{opacity:0.5;fill-rule:evenodd;clip-rule:evenodd;fill:url(#SVGID_57_);enable-background:new    ;}
	.st114{opacity:0.4;fill-rule:evenodd;clip-rule:evenodd;fill:url(#SVGID_58_);enable-background:new    ;}
	.st115{opacity:0.7;fill-rule:evenodd;clip-rule:evenodd;fill:url(#SVGID_59_);enable-background:new    ;}
	.st116{opacity:0.4;fill-rule:evenodd;clip-rule:evenodd;fill:url(#SVGID_60_);enable-background:new    ;}
</style>
<filter  filterUnits="objectBoundingBox" height="131.6%" id="k" width="131.6%" x="-15.8%" y="-15.8%">
	<feGaussianBlur  in="SourceGraphic" stdDeviation="2"></feGaussianBlur>
</filter>
<filter  filterUnits="objectBoundingBox" height="130.3%" id="i" width="130.3%" x="-15.2%" y="-15.2%">
	<feGaussianBlur  in="SourceGraphic" stdDeviation="10 0"></feGaussianBlur>
</filter>
<filter  filterUnits="objectBoundingBox" height="130.3%" id="b" width="130.3%" x="-15.2%" y="-15.2%">
	<feGaussianBlur  in="SourceGraphic" stdDeviation="10 0"></feGaussianBlur>
</filter>
<g>
	<path class="st0" d="M0,0h1440v1324H0V0z"/>
	<g class="st1">
		
			<linearGradient id="SVGID_1_" gradientUnits="userSpaceOnUse" x1="420.2159" y1="688.8018" x2="420.6872" y2="688.2475" gradientTransform="matrix(198 0 0 -198 -82047 136745.1719)">
			<stop  offset="0" style="stop-color:#0096FF"/>
			<stop  offset="1" style="stop-color:#0061FB"/>
		</linearGradient>
		<circle class="st2" cx="1186" cy="398" r="99"/>
	</g>
	<g transform="matrix(-1 0 0 1 1363 314)">
		
			<linearGradient id="SVGID_2_" gradientUnits="userSpaceOnUse" x1="935.8457" y1="367.2444" x2="933.8792" y2="367.3829" gradientTransform="matrix(-67.6181 32.9795 -17.3574 -35.5879 69754.2188 -17644.2344)">
			<stop  offset="0" style="stop-color:#016AFA"/>
			<stop  offset="1" style="stop-color:#ADDFFF"/>
		</linearGradient>
		<path class="st3" d="M96.7,143.5c-33.2-0.5-56.8,8.3-70.8,26.4c31.1-12.6,57.8-13.2,80.1-1.9L96.7,143.5z"/>
		<g>
			<path id="d" class="st4" d="M116.4,174.8c-17.8-13-39.4-22.3-65.1-28c-38.4-8.4-46.6-10.7-50.8-27.7c-4.2-17,22.4-23.2,39-23.2
				H86c6.9,11.9,10.3,22.7,10.3,32.4c2.8-11.9,4.3-21.3,4.3-28.3c8.3,1.2,13.7,2.4,16.2,3.4l0.1,68.1L116.4,174.8L116.4,174.8z"/>
		</g>
		<g>
			
				<linearGradient id="SVGID_3_" gradientUnits="userSpaceOnUse" x1="936.8885" y1="373.9617" x2="936.8885" y2="372.9617" gradientTransform="matrix(-116.8512 0 0 -78.836 109534.9531 29577.6387)">
				<stop  offset="0" style="stop-color:#F6E216"/>
				<stop  offset="1" style="stop-color:#F7A011"/>
			</linearGradient>
			<path class="st5" d="M116.4,174.8c-17.8-13-39.4-22.3-65.1-28c-38.4-8.4-46.6-10.7-50.8-27.7c-4.2-17,22.4-23.2,39-23.2H86
				c6.9,11.9,10.3,22.7,10.3,32.4c2.8-11.9,4.3-21.3,4.3-28.3c8.3,1.2,13.7,2.4,16.2,3.4l0.1,68.1L116.4,174.8L116.4,174.8z"/>
		</g>
		
			<linearGradient id="SVGID_4_" gradientUnits="userSpaceOnUse" x1="937.3885" y1="375.1794" x2="937.3885" y2="375.1794" gradientTransform="matrix(-116.8512 0 0 -78.836 109534.9531 29577.6387)">
			<stop  offset="0" style="stop-color:#F6E216"/>
			<stop  offset="1" style="stop-color:#F7A011"/>
		</linearGradient>
		<path class="st6" d="M0,0"/>
		
			<linearGradient id="SVGID_5_" gradientUnits="userSpaceOnUse" x1="937.3885" y1="375.1794" x2="937.3885" y2="375.1794" gradientTransform="matrix(-116.8512 0 0 -78.836 109534.9531 29577.6387)">
			<stop  offset="0" style="stop-color:#F6E216"/>
			<stop  offset="1" style="stop-color:#F7A011"/>
		</linearGradient>
		<path class="st7" d="M0,0"/>
		
			<linearGradient id="SVGID_6_" gradientUnits="userSpaceOnUse" x1="937.2813" y1="375.0382" x2="937.3269" y2="374.1641" gradientTransform="matrix(-130.0669 0 0 -178.7728 121996.2188 67046.875)">
			<stop  offset="0" style="stop-color:#90ED8D"/>
			<stop  offset="9.700001e-04" style="stop-color:#89EC8D"/>
			<stop  offset="1" style="stop-color:#0FD88D"/>
		</linearGradient>
		<path class="st8" d="M91.3,159.6C40.6,107.6,19.1,54.5,26.8,0.4C37.5-1.2,52.9,2.2,73,10.7l0.2,22.6l12.6-14.6
			c10.3,7.6,17.7,13.8,22.1,18.6L89.3,77.8l5,8.8l25.3-32.8c14.8,17.4,26.1,45.6,34,84.5c11.9,58.4-42.9,39.8-55.4,27.9l-4.9-4.7
			L91.3,159.6L91.3,159.6z"/>
		<path class="st9" d="M23.5,1.2L23.5,1.2L23.5,1.2C15.7,55.5,37.2,108.6,88,160.6l2,1.9l4.9,4.7c3.3,3.1,9.1,6.5,15.7,8.9
			c7.4,2.7,14.9,4.1,21.3,3.5c7.5-0.6,13.3-3.8,16.8-9.7c3.9-6.8,4.7-16.9,1.9-30.7c-7.9-38.9-19.3-67.1-34.1-84.6l-0.1-0.1
			L91.1,87.4l-4.9-8.6l18.6-40.4l-0.1-0.1c-4.4-4.7-11.6-10.8-21.5-18.2l-0.7-0.5L70,34l-0.1-22.4l-0.1,0C49.7,3,34.3-0.4,23.5,1.2
			L23.5,1.2z M69.1,11.5l0.5,0.2l0.2,22.9l12.7-14.7l0.8,0.6c9.7,7.2,16.7,13.2,21.1,17.8l0.1,0.1L85.9,78.8l5.1,9L116.4,55
			l-0.1-0.1c14.7,17.4,26.1,45.6,34,84.4c2.8,13.8,2,23.9-1.9,30.6c-3.4,5.8-9.1,9-16.6,9.6c-6.3,0.5-13.7-0.8-21-3.4l-0.3-0.1
			c-6.5-2.4-12.4-5.8-15.6-8.8l-4.9-4.7l-1.9-1.9l-1.5-1.6C37.5,107.9,16.4,55.9,23.5,3l0.2-1.5l-0.1,0C34.1-0.2,49.3,3.2,69.1,11.5
			z"/>
		<path class="st9" d="M57.9,7.1l0.2,0l-1.9,34.8l-0.2,0L57.9,7.1z M40.4,64.6c13.8,7.1,27,11.7,39.5,13.8l0.4,0.1l0,0.2
			C67.7,76.6,54.6,72,40.7,65l-0.4-0.2C40.3,64.8,40.4,64.6,40.4,64.6z M60.3,107.5c9.8,2.3,23,2.9,39.8,1.7l0.5,0l0,0.2
			c-16.8,1.2-30.2,0.7-40.1-1.6l-0.3-0.1L60.3,107.5z M75.1,71.7c2.6-7.1,4.1-17.1,4.5-29.7l0-0.4l0.2,0l0,0.8
			c-0.4,12.4-1.9,22.1-4.4,29.2l-0.1,0.2L75.1,71.7z M0,0"/>
	</g>
	
		<linearGradient id="SVGID_7_" gradientUnits="userSpaceOnUse" x1="426.1505" y1="687.796" x2="426.1505" y2="686.796" gradientTransform="matrix(-86.8233 -33.3284 50.1715 -130.7013 3610.4329 104418.2813)">
		<stop  offset="0" style="stop-color:#F6E216"/>
		<stop  offset="1" style="stop-color:#F7A011"/>
	</linearGradient>
	<path class="st10" d="M1060.3,437.4c-4.8-16.8,3.9-24.8,7.3-33.7c3.4-8.9,6.5-17.3,0.9-26.7c-5.6-9.3-5.4-14.7-1.1-26
		c4.3-11.3,4-17.5,1.6-23.3c-4.3-8.2,5.6-20.8,16.9-19.8c11.3,1,17.8,11,17,18.5c-0.8,7.4-2.9,15.8,3.6,25.1
		c6.5,9.4,7.8,12,5.3,18.6c-2.6,6.7-7.3,13.2,1.2,22.9c18.9,12.5,19.9,65.2-20.8,63.9C1074.1,455.1,1063.5,448.6,1060.3,437.4
		L1060.3,437.4z"/>
	
		<linearGradient id="SVGID_8_" gradientUnits="userSpaceOnUse" x1="438.6089" y1="687.0643" x2="438.6089" y2="687.0643" gradientTransform="matrix(-86.8233 -33.3284 50.1715 -130.7013 3610.4329 104418.2813)">
		<stop  offset="0" style="stop-color:#F6E216"/>
		<stop  offset="1" style="stop-color:#F7A011"/>
	</linearGradient>
	<path class="st11" d="M0,0"/>
	
		<linearGradient id="SVGID_9_" gradientUnits="userSpaceOnUse" x1="438.6089" y1="687.0643" x2="438.6089" y2="687.0643" gradientTransform="matrix(-86.8233 -33.3284 50.1715 -130.7013 3610.4329 104418.2813)">
		<stop  offset="0" style="stop-color:#F6E216"/>
		<stop  offset="1" style="stop-color:#F7A011"/>
	</linearGradient>
	<path class="st12" d="M0,0"/>
	
		<linearGradient id="SVGID_10_" gradientUnits="userSpaceOnUse" x1="426.4921" y1="685.9837" x2="426.4921" y2="684.9837" gradientTransform="matrix(-60.8585 -36.5675 45.8382 -76.2875 -4423.3926 68284.9375)">
		<stop  offset="0" style="stop-color:#016AFA"/>
		<stop  offset="1" style="stop-color:#ADDFFF"/>
	</linearGradient>
	<path class="st13" d="M1014.5,423.7c-2.3-11.7,4.6-15.5,7.7-20.7c3.1-5.2,5.9-10.2,2.5-17.2c-3.4-7-2.9-10.5,1.1-17.1
		c4-6.6,4.2-10.6,2.8-14.9c-2.5-6.1,5.6-12.6,13.7-10s12.2,10.2,11.1,14.9c-1.1,4.7-3.3,9.7,0.8,16.9c4.1,7.2,4.9,9.1,2.5,13
		c-2.3,3.9-6.3,7.3-0.7,15.1c12.9,11.4,9.8,45.8-19.7,38C1023.3,437.6,1016,431.5,1014.5,423.7L1014.5,423.7z"/>
	<path class="st9" d="M1054.4,350.7c1.8,2.8,2.6,5.8,2.1,8.2l0,0.1c-0.1,0.4-0.2,0.8-0.3,1.4l-0.3,1.1c-0.4,1.6-0.5,2.2-0.7,3.2
		l0,0.1c-0.6,3.8-0.1,7.2,2.1,11l0.4,0.7c2.1,3.8,3,5.5,3.3,7.1c0.4,1.8,0.1,3.2-1.1,5.2l-0.1,0.2c-0.2,0.4-0.5,0.7-0.9,1.5
		l-0.2,0.3c-0.4,0.6-0.6,0.9-0.8,1.3c-1,1.7-1.5,3.2-1.5,4.9l0,0.1c0.1,2,0.9,4.1,2.7,6.7l0.1,0.2l0,0c6.4,5.6,9,17,6.1,26.2
		c-1.5,4.8-4.4,8.6-8.4,10.8c-4.5,2.5-10.4,2.9-17.4,1c-13-4.3-20.3-10.4-21.8-18.2c-0.8-4.1-0.6-7.4,0.6-10.3
		c0.8-2.1,1.9-3.7,4-6.3l0.7-0.9c1.2-1.5,1.7-2.1,2.3-3l0.1-0.1l0.2-0.3c2.1-3.5,3-5.3,3.5-7.5c0.7-3,0.4-5.9-1.1-9.1l-0.1-0.1
		c-3.3-6.7-3-10.2,1-16.9l0.1-0.2c3.7-6.1,4.3-10.2,2.8-14.8c-1.2-2.9,0-6.1,2.9-8.3c2.9-2.2,7.1-3,10.9-1.7
		C1049.2,345.3,1052.3,347.7,1054.4,350.7L1054.4,350.7z M1045.3,344.2c-3.8-1.2-7.9-0.5-10.8,1.7c-2.9,2.1-4,5.3-2.8,8.1
		c1.5,4.6,0.9,8.7-2.7,14.7l-0.1,0.2c-4,6.7-4.4,10.1-1.2,16.8l0.1,0.2c1.6,3.3,1.9,6.3,1.2,9.3c-0.6,2.3-1.5,4.1-3.5,7.6l-0.2,0.4
		c-0.6,1-1.2,1.7-2.7,3.5l-0.4,0.4c-2.2,2.6-3.2,4.1-4,6.3c-1.1,2.9-1.4,6.2-0.6,10.3c1.5,7.8,8.8,13.8,21.8,18.1
		c7,1.8,12.8,1.4,17.3-1c4-2.2,6.9-5.9,8.4-10.7c2.9-9.1,0.3-20.5-6-26.1l0,0c-1.9-2.7-2.8-4.9-2.8-7c0-1.7,0.5-3.2,1.5-4.9l0.1-0.2
		c0.2-0.3,0.4-0.7,0.8-1.2l0.4-0.6c0.3-0.5,0.5-0.8,0.7-1.2c1.2-2,1.5-3.4,1.1-5.2l0-0.1c-0.4-1.6-1.2-3.3-3.3-7.1l-0.3-0.5
		c-2.2-3.9-2.7-7.3-2.2-11.1l0-0.1c0.2-1,0.3-1.6,0.7-3.1l0.4-1.7c0.1-0.4,0.2-0.7,0.2-1c0.5-2.4-0.2-5.4-2.1-8.2
		C1052.2,347.8,1049.1,345.4,1045.3,344.2L1045.3,344.2z M0,0 M0,0"/>
	<g class="st14">
		
			<linearGradient id="SVGID_11_" gradientUnits="userSpaceOnUse" x1="420.2159" y1="688.8018" x2="420.6872" y2="688.2475" gradientTransform="matrix(198 0 0 -198 -82886 136769.1719)">
			<stop  offset="0" style="stop-color:#0096FF"/>
			<stop  offset="1" style="stop-color:#0061FB"/>
		</linearGradient>
		<circle class="st15" cx="347" cy="422" r="99"/>
	</g>
	<g class="st16">
		
			<linearGradient id="SVGID_12_" gradientUnits="userSpaceOnUse" x1="411.1089" y1="685.8871" x2="411.6836" y2="684.8871" gradientTransform="matrix(38 0 0 -38 -15267 26162.8105)">
			<stop  offset="0" style="stop-color:#CDF8FF"/>
			<stop  offset="1" style="stop-color:#00C4D6"/>
		</linearGradient>
		<circle class="st17" cx="366" cy="118" r="19"/>
	</g>
	
		<radialGradient id="SVGID_13_" cx="413.4804" cy="694.4193" r="0.8176" gradientTransform="matrix(29.3259 -31.4482 -31.4482 -29.3259 10806.3682 33532.3633)" gradientUnits="userSpaceOnUse">
		<stop  offset="0" style="stop-color:#0E3AAD"/>
		<stop  offset="0.3532" style="stop-color:#0F2E92"/>
		<stop  offset="1" style="stop-color:#090724"/>
	</radialGradient>
	<circle class="st18" cx="1094.5" cy="180.5" r="21.5"/>
	
		<radialGradient id="SVGID_14_" cx="401.6587" cy="682.0526" r="0.8176" gradientTransform="matrix(20 0 0 -20 -7453 14010.7949)" gradientUnits="userSpaceOnUse">
		<stop  offset="0" style="stop-color:#0E3AAD"/>
		<stop  offset="0.3532" style="stop-color:#0F2E92"/>
		<stop  offset="1" style="stop-color:#090724"/>
	</radialGradient>
	<circle class="st19" cx="575" cy="375" r="10"/>
	<g>
		
			<linearGradient id="n_1_" gradientUnits="userSpaceOnUse" x1="419.6678" y1="686.7231" x2="419.6678" y2="685.7231" gradientTransform="matrix(149 0 0 -48 -61536 33344.707)">
			<stop  offset="0" style="stop-color:#31C8FD"/>
			<stop  offset="1" style="stop-color:#84CAF7"/>
		</linearGradient>
		<path id="n" class="st20" d="M920,430c5.7-32,21.5-48,47.5-48c17,0,29.7,6.9,38,20.6c2.8-0.9,5.9-1.3,9.2-1.3
			c7.9,0,14.2,2.4,19,7.3c3.3-1.9,7.1-2.8,11.6-2.8c13,0,20.9,8.1,23.7,24.3l-25.7,0l0,0H920z"/>
	</g>
	<g>
		
			<linearGradient id="SVGID_15_" gradientUnits="userSpaceOnUse" x1="419.6678" y1="686.7231" x2="419.6678" y2="685.7231" gradientTransform="matrix(149 0 0 -48 -61536 33344.707)">
			<stop  offset="0" style="stop-color:#448FFE"/>
			<stop  offset="1" style="stop-color:#0046EF"/>
		</linearGradient>
		<path class="st21" d="M920,430c5.7-32,21.5-48,47.5-48c17,0,29.7,6.9,38,20.6c2.8-0.9,5.9-1.3,9.2-1.3c7.9,0,14.2,2.4,19,7.3
			c3.3-1.9,7.1-2.8,11.6-2.8c13,0,20.9,8.1,23.7,24.3l-25.7,0l0,0H920z"/>
	</g>
	
		<linearGradient id="SVGID_16_" gradientUnits="userSpaceOnUse" x1="417.3211" y1="678.7642" x2="417.3211" y2="677.7642" gradientTransform="matrix(26.0675 26.0675 25.7965 -25.7965 -27406.2188 7007.3887)">
		<stop  offset="0" style="stop-color:#F6D415"/>
		<stop  offset="1" style="stop-color:#FFCE66"/>
	</linearGradient>
	<path class="st22" d="M963.1,404.2c4-1.9,7.1-2.2,9.4-1c3.4,1.8,6.6,1.9,8.5,0c1.9-1.9,0.6-4.9-0.8-6.2c-1.4-1.3-3.4-5-0.8-8.6
		s1.5-7-1.5-8.5c-3.1-1.5-4.2-3-4.2-5.8s0.6-6.4-2.7-8.8c-3.3-2.4-6,1.8-6.6,2.3c-0.5,0.5-1.6,3.6-4.3,4.7c-2.7,1.1-4.1,5.3-2.7,8.5
		c1.4,3.2,0.6,5.4-1.7,5.3c-2.3-0.2-5.6,1.6-5.5,3.9c0.1,2.3,6,3.4,6.9,6.4c1,3-1.6,6.3,1.3,7.6
		C959.8,404.8,961.3,404.9,963.1,404.2z"/>
	
		<linearGradient id="SVGID_17_" gradientUnits="userSpaceOnUse" x1="391.2701" y1="667.0211" x2="391.2701" y2="667.0211" gradientTransform="matrix(26.0675 26.0675 25.7965 -25.7965 -27406.2188 7007.3887)">
		<stop  offset="0" style="stop-color:#F6D415"/>
		<stop  offset="1" style="stop-color:#FFCE66"/>
	</linearGradient>
	<path class="st23" d="M0,0"/>
	<path class="st9" d="M968.5,372.5c0.3,0,0.5,0.1,0.5,0.2l0,0v91.6c0,0.1-0.2,0.2-0.5,0.2c-0.3,0-0.5-0.1-0.5-0.2l0,0v-91.6
		C968,372.6,968.2,372.5,968.5,372.5z"/>
	<path class="st9" d="M0,0"/>
	<path class="st9" d="M853,0"/>
	<path class="st9" d="M220,372"/>
	<path class="st9" d="M0,0"/>
	<path class="st9" d="M1049,372"/>
	<path class="st9" d="M0,0"/>
	<g transform="translate(469 349)">
		<g>
			<path id="s" class="st9" d="M0,0"/>
		</g>
		<g>
			<path class="st9" d="M0,0"/>
		</g>
		<path class="st9" d="M0,0"/>
		<path class="st9" d="M0,0"/>
		<path class="st24" d="M22.9,6.8h1v133.1h-1V6.8z"/>
		<path class="st24" d="M0,0"/>
	</g>
	<g transform="translate(194 198)">
		<g>
			<path id="u" class="st25" d="M64.9,39.1c2.6-1.9,4.2-4,4.6-6.1c-0.8-4.8-0.2-9.4,2.5-9.2c1.8,0.1,2.6,1.3,2.5,3.5
				c1.8-2.1,2.5-4.8,2.3-8.3c1.9,7.2,1.9,13.4,0,18.6c-1.9,5.1-4.9,7.4-9,6.9c-0.1,3.8,0.1,7.1,0.7,9.7c0.9,4-8.2,8.5-12.3,8.5
				c-2.7,0-3.2-6.9-1.6-20.6C58.8,42,62.2,41,64.9,39.1z"/>
		</g>
		<g>
			
				<linearGradient id="SVGID_18_" gradientUnits="userSpaceOnUse" x1="211.2807" y1="488.4063" x2="211.2807" y2="487.4063" gradientTransform="matrix(24.5075 0 0 -43.635 -5112.0757 21330.5195)">
				<stop  offset="0" style="stop-color:#FFE5E7"/>
				<stop  offset="1" style="stop-color:#FFC7CA"/>
			</linearGradient>
			<path class="st26" d="M64.9,39.1c2.6-1.9,4.2-4,4.6-6.1c-0.8-4.8-0.2-9.4,2.5-9.2c1.8,0.1,2.6,1.3,2.5,3.5
				c1.8-2.1,2.5-4.8,2.3-8.3c1.9,7.2,1.9,13.4,0,18.6c-1.9,5.1-4.9,7.4-9,6.9c-0.1,3.8,0.1,7.1,0.7,9.7c0.9,4-8.2,8.5-12.3,8.5
				c-2.7,0-3.2-6.9-1.6-20.6C58.8,42,62.2,41,64.9,39.1z"/>
		</g>
		<g transform="translate(41.357)">
			<g>
				
					<linearGradient id="w_1_" gradientUnits="userSpaceOnUse" x1="168.9232" y1="488.8396" x2="168.9232" y2="488.8396" gradientTransform="matrix(24.5075 0 0 -43.635 -4139.8779 21330.5195)">
					<stop  offset="0" style="stop-color:#FFE5E7"/>
					<stop  offset="1" style="stop-color:#FFC7CA"/>
				</linearGradient>
				<path id="w" class="st27" d="M0,0"/>
			</g>
			<g>
				
					<linearGradient id="SVGID_19_" gradientUnits="userSpaceOnUse" x1="168.9232" y1="488.8396" x2="168.9232" y2="488.8396" gradientTransform="matrix(24.5075 0 0 -43.635 -4139.8779 21330.5195)">
					<stop  offset="0" style="stop-color:#FFE5E7"/>
					<stop  offset="1" style="stop-color:#FFC7CA"/>
				</linearGradient>
				<path class="st28" d="M0,0"/>
			</g>
			
				<linearGradient id="SVGID_20_" gradientUnits="userSpaceOnUse" x1="168.9232" y1="488.8396" x2="168.9232" y2="488.8396" gradientTransform="matrix(24.5075 0 0 -43.635 -4139.8779 21330.5195)">
				<stop  offset="0" style="stop-color:#FFE5E7"/>
				<stop  offset="1" style="stop-color:#FFC7CA"/>
			</linearGradient>
			<path class="st29" d="M0,0"/>
			
				<linearGradient id="SVGID_21_" gradientUnits="userSpaceOnUse" x1="168.9232" y1="488.8396" x2="168.9232" y2="488.8396" gradientTransform="matrix(24.5075 0 0 -43.635 -4139.8779 21330.5195)">
				<stop  offset="0" style="stop-color:#FFE5E7"/>
				<stop  offset="1" style="stop-color:#FFC7CA"/>
			</linearGradient>
			<path class="st30" d="M0,0"/>
		</g>
		<g transform="translate(16.014 237.082)">
			<g>
				<path class="st25" d="M6.9,0L0,92.4c13.5,3.7,21.7,3.1,24.6-1.7c2.9-4.8,7.6-35,14-90.7H6.9z"/>
			</g>
			<defs>
				<filter id="Adobe_OpacityMaskFilter" filterUnits="userSpaceOnUse" x="0.8" y="70.7" width="29" height="19.7">
					<feColorMatrix  type="matrix" values="1 0 0 0 0  0 1 0 0 0  0 0 1 0 0  0 0 0 1 0"/>
				</filter>
			</defs>
			<mask maskUnits="userSpaceOnUse" x="0.8" y="70.7" width="29" height="19.7" id="z_1_">
				<g class="st31">
					<path id="y_1_" class="st32" d="M6.9,0L0,92.4c13.5,3.7,21.7,3.1,24.6-1.7c2.9-4.8,7.6-35,14-90.7H6.9z"/>
				</g>
			</mask>
			<path class="st33" d="M0.8,83.3V70.7l29,1.2l-3.5,14.6l-9.5,3.1L3.1,90.5L0.8,83.3z"/>
			<defs>
				<filter id="Adobe_OpacityMaskFilter_1_" filterUnits="userSpaceOnUse" x="4.6" y="4.5" width="34" height="5.2">
					<feColorMatrix  type="matrix" values="1 0 0 0 0  0 1 0 0 0  0 0 1 0 0  0 0 0 1 0"/>
				</filter>
			</defs>
			<mask maskUnits="userSpaceOnUse" x="4.6" y="4.5" width="34" height="5.2" id="z_2_">
				<g class="st34">
					<path id="y_2_" class="st32" d="M6.9,0L0,92.4c13.5,3.7,21.7,3.1,24.6-1.7c2.9-4.8,7.6-35,14-90.7H6.9z"/>
				</g>
			</mask>
			<path class="st35" d="M38.6,7.1l-34,2.6L5,4.5l33.6,0.8V7.1z"/>
		</g>
		<g transform="translate(76.19 238.294)">
			<g>
				<path class="st25" d="M0,0l8.5,88.3c9.3,3.9,17.2,3.9,23.8,0l0-87.8L0,0z"/>
			</g>
			<defs>
				<filter id="Adobe_OpacityMaskFilter_2_" filterUnits="userSpaceOnUse" x="5.6" y="67.3" width="26.7" height="19.8">
					<feColorMatrix  type="matrix" values="1 0 0 0 0  0 1 0 0 0  0 0 1 0 0  0 0 0 1 0"/>
				</filter>
			</defs>
			<mask maskUnits="userSpaceOnUse" x="5.6" y="67.3" width="26.7" height="19.8" id="B_1_">
				<g class="st36">
					<path id="A_1_" class="st32" d="M0,0l8.5,88.3c9.3,3.9,17.2,3.9,23.8,0l0-87.8L0,0z"/>
				</g>
			</mask>
			<path class="st37" d="M6.8,80.2L5.6,67.3l26.6,2l0.1,13.1l-11.5,3.7l-14.3,1L6.8,80.2z"/>
			<defs>
				<filter id="Adobe_OpacityMaskFilter_3_" filterUnits="userSpaceOnUse" x="0" y="3.2" width="32.8" height="6.7">
					<feColorMatrix  type="matrix" values="1 0 0 0 0  0 1 0 0 0  0 0 1 0 0  0 0 0 1 0"/>
				</filter>
			</defs>
			<mask maskUnits="userSpaceOnUse" x="0" y="3.2" width="32.8" height="6.7" id="B_2_">
				<g class="st38">
					<path id="A_2_" class="st32" d="M0,0l8.5,88.3c9.3,3.9,17.2,3.9,23.8,0l0-87.8L0,0z"/>
				</g>
			</mask>
			<path class="st39" d="M32.8,4.3L0.5,9.9L0,4.1l32.8-0.9V4.3z"/>
		</g>
		<g transform="translate(10.73 148.17)">
			<g>
				<path class="st32" d="M90.2,0.4L105,93.6l-46.2,1.1v-7.6L54.2,64l-5,30.7L0.4,93.6L7.1,2.4L90.2,0.4z"/>
			</g>
			<defs>
				<filter id="Adobe_OpacityMaskFilter_4_" filterUnits="userSpaceOnUse" x="-5.4" y="5.6" width="114.3" height="91.8">
					<feColorMatrix  type="matrix" values="1 0 0 0 0  0 1 0 0 0  0 0 1 0 0  0 0 0 1 0"/>
				</filter>
			</defs>
			<mask maskUnits="userSpaceOnUse" x="-5.4" y="5.6" width="114.3" height="91.8" id="D_1_">
				<g class="st40">
					<path id="C_1_" class="st32" d="M90.2,0.4L105,93.6l-46.2,1.1v-7.6L54.2,64l-5,30.7L0.4,93.6L7.1,2.4L90.2,0.4z"/>
				</g>
			</mask>
			<path class="st41" d="M15.4,25.4c4.1,0,7.4,3.4,7.4,7.5c0,4.2-3.3,7.5-7.4,7.5S8,37.1,8,33S11.3,25.4,15.4,25.4z M15.4,27.4
				c-3,0-5.5,2.5-5.5,5.6c0,3.1,2.5,5.6,5.5,5.6s5.5-2.5,5.5-5.6S18.4,27.4,15.4,27.4L15.4,27.4z M44,82.4c4.1,0,7.4,3.4,7.4,7.5
				c0,4.2-3.3,7.6-7.4,7.6s-7.4-3.4-7.4-7.6C36.6,85.7,39.9,82.4,44,82.4z M44,84.3c-3,0-5.5,2.5-5.5,5.6c0,3.1,2.5,5.6,5.5,5.6
				s5.5-2.5,5.5-5.6C49.4,86.8,47,84.3,44,84.3z M94,40.5c4.1,0,7.4,3.4,7.4,7.5c0,4.2-3.3,7.5-7.4,7.5c-4.1,0-7.4-3.4-7.4-7.5
				S89.9,40.5,94,40.5L94,40.5z M94,42.5c-3,0-5.5,2.5-5.5,5.6c0,3.1,2.5,5.6,5.5,5.6c3,0,5.5-2.5,5.5-5.6S97,42.5,94,42.5L94,42.5z
				 M56.6,10.3c4.1,0,7.4,3.4,7.4,7.5c0,4.2-3.3,7.6-7.4,7.6c-4.1,0-7.4-3.4-7.4-7.5C49.2,13.7,52.5,10.3,56.6,10.3z M56.6,12.3
				c-3,0-5.5,2.5-5.5,5.6c0,3.1,2.5,5.6,5.5,5.6s5.5-2.5,5.5-5.6C62.1,14.8,59.6,12.3,56.6,12.3z M2,65.8c4.1,0,7.4,3.4,7.4,7.5
				S6.1,80.9,2,80.9c-4.1,0-7.4-3.4-7.4-7.6C-5.4,69.2-2.1,65.8,2,65.8z M2,67.7c-3,0-5.5,2.5-5.5,5.6S-1,78.9,2,78.9
				c3,0,5.5-2.5,5.5-5.6S5,67.7,2,67.7L2,67.7z M30.2,50.7c4.1,0,7.4,3.4,7.4,7.5s-3.3,7.5-7.4,7.5s-7.4-3.4-7.4-7.5
				C22.8,54.1,26.1,50.7,30.2,50.7z M30.2,52.6c-3,0-5.5,2.5-5.5,5.6s2.5,5.6,5.5,5.6s5.5-2.5,5.5-5.6S33.2,52.6,30.2,52.6
				L30.2,52.6z M57.8,43c4.1,0,7.4,3.4,7.4,7.5c0,4.2-3.3,7.5-7.4,7.5c-4.1,0-7.4-3.4-7.4-7.5S53.7,43,57.8,43L57.8,43z M57.8,44.9
				c-3,0-5.5,2.5-5.5,5.6c0,3.1,2.5,5.6,5.5,5.6s5.5-2.5,5.5-5.6S60.8,44.9,57.8,44.9L57.8,44.9z M75,65.8c4.1,0,7.4,3.4,7.4,7.6
				c0,4.2-3.3,7.5-7.4,7.5c-4.1,0-7.4-3.4-7.4-7.6C67.6,69.1,71,65.8,75,65.8L75,65.8z M75,67.7c-3,0-5.5,2.5-5.5,5.6
				s2.5,5.6,5.5,5.6s5.5-2.5,5.5-5.6S78,67.7,75,67.7z M87.9,5.6c4.1,0,7.4,3.4,7.4,7.5s-3.3,7.5-7.4,7.5c-4.1,0-7.4-3.4-7.4-7.6
				C80.5,9,83.8,5.6,87.9,5.6z M87.9,7.6c-3,0-5.5,2.5-5.5,5.6s2.5,5.6,5.5,5.6s5.5-2.5,5.5-5.6S90.9,7.6,87.9,7.6L87.9,7.6z
				 M101.5,79.6c4.1,0,7.4,3.4,7.4,7.5c0,4.2-3.3,7.5-7.4,7.5c-4.1,0-7.4-3.4-7.4-7.6C94.1,83,97.4,79.6,101.5,79.6z M101.5,81.6
				c-3,0-5.5,2.5-5.5,5.6s2.5,5.6,5.5,5.6c3,0,5.5-2.5,5.5-5.6S104.5,81.6,101.5,81.6L101.5,81.6z"/>
			<path d="M105.2,93.7L90.3,0.3L7,2.3L0.3,93.7l49,1.1l4.9-30.2l4.5,22.5l0,7.7L105.2,93.7L105.2,93.7z M90.1,0.6l14.8,92.9
				L59,94.6v-7.4l-4.8-23.9l-5.1,31.3L0.6,93.5l6.6-91L90.1,0.6L90.1,0.6z"/>
			<path class="st42" d="M46.3,12.8l8,51.3l-1.4,9.9L46.3,12.8z M91.6,7.9L6.1,14.7v-4.3L91.6,7.9z"/>
		</g>
		<g transform="translate(106.035 105.208)">
			<g>
				<path class="st42" d="M0,0"/>
			</g>
			<g>
				<path class="st42" d="M0,0"/>
			</g>
			<defs>
				<filter id="Adobe_OpacityMaskFilter_5_" filterUnits="userSpaceOnUse" x="0.1" y="1.7" width="21.1" height="15.3">
					<feColorMatrix  type="matrix" values="1 0 0 0 0  0 1 0 0 0  0 0 1 0 0  0 0 0 1 0"/>
				</filter>
			</defs>
			<mask maskUnits="userSpaceOnUse" x="0.1" y="1.7" width="21.1" height="15.3" id="G_1_">
				<g class="st43">
					<path id="E_1_" class="st42" d="M0,0"/>
				</g>
			</mask>
			<path class="st44" d="M21.2,1.7L1.5,17.1l-1.4-2L21.2,1.7z"/>
		</g>
		<path class="st42" d="M0,0"/>
		
			<linearGradient id="SVGID_22_" gradientUnits="userSpaceOnUse" x1="225.092" y1="490.4814" x2="225.092" y2="489.4814" gradientTransform="matrix(123.828 0 0 -107.931 -27805.041 52991)">
			<stop  offset="0" style="stop-color:#66A4FF"/>
			<stop  offset="1" style="stop-color:#0348B8"/>
		</linearGradient>
		<path class="st45" d="M10.7,160.8l88.9-4.5c4.8,0,7-1.9,6.6-5.8c-0.4-3.9-4.9-20.2-13.4-48.9l2.9,4.8l9.3,15.3l24.6-16.1
			c-15.8-35-35.6-52.5-59.4-52.5c-7.3,6.2-13,6.1-17.3-0.2c-14.6,0-26,5.5-34.2,16.4c-8.2,10.9-12.5,41.4-12.9,91.5H10.7L10.7,160.8
			z"/>
		<path class="st32" d="M82.8,318.5l-0.5-6.4c-0.7-0.4-1.3-0.5-1.7-0.3c-0.7,0.3-1.1,0.9-1.1,2.3v5c-8.9,2.8-12,9.6-9.4,20.2
			l65.8-0.1c-1.7-21.8-10.8-29.2-27.2-22.1c-4.6,3.8-8.8,5.8-12.6,5.9C92.4,323.1,87.9,321.6,82.8,318.5L82.8,318.5z"/>
		<path class="st46" d="M69.6,337.7h66l0.2,1.6l-65.9,0.1L69.6,337.7z"/>
		<path d="M80.5,311.8c-0.8,0.4-1.2,1.1-1.2,2.4v4.9l0.1,0c-9,2.8-12.1,9.6-9.5,20.4l0,0.1l66.1-0.1l0-0.1
			c-1.7-21.9-10.8-29.4-27.4-22.2l0,0c-4.6,3.8-8.8,5.8-12.5,5.8l-0.1,0c-3.6,0-7.9-1.4-12.9-4.4l-0.1-0.1l-0.5-6.4l-0.1,0
			C81.7,311.6,81.1,311.5,80.5,311.8C80.6,311.7,80.5,311.8,80.5,311.8z M82.2,312.2L82.2,312.2l0.5,6.4l0.1,0
			c5.1,3.1,9.6,4.6,13.4,4.5l0.1,0c3.7-0.1,7.8-2,12.3-5.7l0.1-0.1l0.5-0.2c15.9-6.6,24.7,0.5,26.5,21.6l0,0.5l-65.6,0.1l0,0.1
			c-2.6-10.6,0.5-17.3,9.3-20.1l0.1,0v-5.1c0-1.3,0.4-1.9,1.1-2.2C81.1,311.8,81.6,311.9,82.2,312.2L82.2,312.2z"/>
		<path class="st47" d="M116.8,311.5c0.2,0,0.4,0,0.5,0.1l0,0v10.9c0,0.1-0.2,0.1-0.5,0.1c-0.2,0-0.4,0-0.5-0.1l0,0v-10.9
			C116.3,311.6,116.6,311.5,116.8,311.5L116.8,311.5z M119.3,311.5c0.2,0,0.4,0,0.5,0.1l0,0v10.9c0,0.1-0.2,0.1-0.5,0.1
			c-0.2,0-0.4,0-0.5-0.1l0,0v-10.9C118.8,311.6,119,311.5,119.3,311.5L119.3,311.5z M121.7,311.5c0.2,0,0.4,0,0.5,0.1l0,0v10.9
			c0,0.1-0.2,0.1-0.5,0.1c-0.2,0-0.4,0-0.5-0.1l0,0v-10.9C121.2,311.6,121.4,311.5,121.7,311.5L121.7,311.5z"/>
		<g transform="translate(0 39.514)">
			<path class="st32" d="M16.5,280.9L16,275c-0.7-0.3-1.2-0.4-1.6-0.3c-0.6,0.3-1.1,0.8-1.1,2.1v4.5c-8.5,2.6-11.5,8.7-9,18.5
				l63-0.1c-0.3-19.1-8.4-25.4-24.1-18.9c-5.7,2.7-10.3,4-13.9,4.1S21.3,283.7,16.5,280.9z"/>
			<path class="st46" d="M67.2,299.8v-1.5H3.9l0.3,1.5L67.2,299.8z"/>
			<path d="M14.3,274.7c-0.8,0.3-1.1,1-1.1,2.2v4.4l0.1,0c-8.5,2.6-11.6,8.7-9.2,18.3l0.1,0.4l63.2-0.1l0-0.1
				c-0.4-19.2-8.5-25.5-24.3-19c-5.7,2.7-10.3,4-13.9,4.1l-0.1,0c-3.5,0-7.6-1.3-12.3-4l-0.1-0.1l-0.5-5.8l-0.1,0
				C15.4,274.5,14.8,274.5,14.3,274.7L14.3,274.7L14.3,274.7z M15.9,275.1L15.9,275.1l0.5,5.8l0.1,0c4.9,2.8,9.2,4.2,12.8,4.1
				c3.6-0.1,8.3-1.4,13.9-4.1l0.5-0.2c15.2-6.1,23,0.1,23.5,18.4l0,0.4l-62.7,0.1l0,0.1c-2.5-9.7,0.5-15.8,8.9-18.3l0.1,0v-4.6
				c0-1.2,0.3-1.7,1-2C14.8,274.7,15.3,274.8,15.9,275.1L15.9,275.1z"/>
			<path class="st47" d="M51.3,274.2c0.2,0,0.5,0,0.5,0.1l0,0v10.9c0,0.1-0.2,0.1-0.5,0.1c-0.2,0-0.5,0-0.5-0.1l0,0v-10.9
				C50.8,274.2,51.1,274.2,51.3,274.2z M53.8,274.2c0.2,0,0.5,0,0.5,0.1l0,0v10.9c0,0.1-0.2,0.1-0.5,0.1c-0.2,0-0.5,0-0.5-0.1l0,0
				v-10.9C53.3,274.2,53.5,274.2,53.8,274.2z M56.2,274.2c0.2,0,0.5,0,0.5,0.1l0,0v10.9c0,0.1-0.2,0.1-0.5,0.1c-0.2,0-0.5,0-0.5-0.1
				l0,0v-10.9C55.7,274.2,55.9,274.2,56.2,274.2z"/>
			<path class="st48" d="M37.9,14.7l-10.2,3.3c1.4-3.4,3.2-5.8,5.3-7c3.3-1.9,8.9-2.7,11.8-1.1c1.9,1,3.6,2.3,4.9,3.8l-8.2,0.7
				c0-1.4-0.7-1.9-2-1.6C38.3,12.9,37.7,13.6,37.9,14.7L37.9,14.7z"/>
			<g transform="translate(49.5 8.485)">
				<g>
					<path class="st48" d="M0,9.1L12.6,2c2-1.3,3.5-1.9,4.8-1.9c1.9,0,8.8,2.1,11.8,3.3c2,0.8,3.3,1.9,4.1,3.3l-5.9-1.2l-4.9,3.5
						l-5,3.6L0,9.1z"/>
				</g>
				<defs>
					<filter id="Adobe_OpacityMaskFilter_6_" filterUnits="userSpaceOnUse" x="22.4" y="6.5" width="7.3" height="12">
						<feColorMatrix  type="matrix" values="1 0 0 0 0  0 1 0 0 0  0 0 1 0 0  0 0 0 1 0"/>
					</filter>
				</defs>
				<mask maskUnits="userSpaceOnUse" x="22.4" y="6.5" width="7.3" height="12" id="J_1_">
					<g class="st49">
						<path id="I_1_" class="st32" d="M0,9.1L12.6,2c2-1.3,3.5-1.9,4.8-1.9c1.9,0,8.8,2.1,11.8,3.3c2,0.8,3.3,1.9,4.1,3.3l-5.9-1.2
							l-4.9,3.5l-5,3.6L0,9.1z"/>
					</g>
				</mask>
				<path class="st50" d="M22.4,9.1l3.5-2.6l3.7,12L22.4,9.1z"/>
			</g>
			<path class="st51" d="M58.7,17.5c-0.3-6.5-2.4-11.6-6.3-15.3c-5.8-5.5-13.6,1.1-16,3.4c-1.7,1.5-3,5.5-4.1,12h8.6
				c-0.1-8.3,1.4-13.3,4.6-14.9c4.8-2.4,8.4-1,8.7,4.1c0.2,3.4-1.1,7-3.8,10.8L58.7,17.5L58.7,17.5z"/>
			<g>
				
					<linearGradient id="L_1_" gradientUnits="userSpaceOnUse" x1="223.0345" y1="450.7702" x2="223.3096" y2="450.2702" gradientTransform="matrix(80.315 0 0 -102.057 -17886.666 46029.6914)">
					<stop  offset="0" style="stop-color:#FFD700"/>
					<stop  offset="1" style="stop-color:#FFAE00"/>
				</linearGradient>
				<path id="L" class="st52" d="M43.3,13.6c22.2,0,40.2,18,40.2,40.2v21.7c0,22.2-18,40.2-40.2,40.2S3.2,97.7,3.2,75.5V53.7
					C3.2,31.6,21.1,13.6,43.3,13.6z"/>
			</g>
			<g>
				
					<linearGradient id="N_1_" gradientUnits="userSpaceOnUse" x1="222.5643" y1="450.8072" x2="222.5643" y2="449.816" gradientTransform="matrix(71.095 0 0 -97.451 -15784.5059 43950.6523)">
					<stop  offset="0" style="stop-color:#FFE564"/>
					<stop  offset="1" style="stop-color:#FFC03B"/>
				</linearGradient>
				<path id="N" class="st53" d="M38.7,18.2c19.6,0,35.5,15.9,35.5,35.5v39.9c0,12.2-9.8,22-22,22H38.7c-19.6,0-35.5-15.9-35.5-35.5
					V53.7C3.2,34.1,19.1,18.2,38.7,18.2z"/>
			</g>
			
				<linearGradient id="SVGID_23_" gradientUnits="userSpaceOnUse" x1="222.7027" y1="449.11" x2="222.7027" y2="448.11" gradientTransform="matrix(72.793 0 0 -46.544 -16173.3477 20972.4648)">
				<stop  offset="0" style="stop-color:#73A6D4"/>
				<stop  offset="1" style="stop-color:#5281BA"/>
			</linearGradient>
			<path class="st54" d="M24.7,69.1h39.5c5.5,0,10,4.5,10,10v17.5c0,10.5-8.5,19-19,19H24.7c-12.9,0-23.3-10.4-23.3-23.3
				C1.5,79.5,11.9,69.1,24.7,69.1z"/>
			
				<linearGradient id="SVGID_24_" gradientUnits="userSpaceOnUse" x1="222.2664" y1="449.11" x2="222.2664" y2="448.11" gradientTransform="matrix(67.698 0 0 -46.544 -15011.6875 20972.4648)">
				<stop  offset="0" style="stop-color:#B1D2F0"/>
				<stop  offset="1" style="stop-color:#83AFE3"/>
			</linearGradient>
			<path class="st55" d="M24.7,69.1h21.2c12.9,0,23.3,10.4,23.3,23.3l0,0c0,12.9-10.4,23.3-23.3,23.3H24.7
				c-12.9,0-23.3-10.4-23.3-23.3l0,0C1.5,79.5,11.9,69.1,24.7,69.1z"/>
			
				<linearGradient id="SVGID_25_" gradientUnits="userSpaceOnUse" x1="222.7027" y1="446.1677" x2="222.7027" y2="445.1677" gradientTransform="matrix(72.7928 0 0 -24.4843 -16174.7529 10993.4199)">
				<stop  offset="0" style="stop-color:#EDF6FF"/>
				<stop  offset="1" style="stop-color:#C0DDFF"/>
			</linearGradient>
			<path class="st56" d="M3.7,69.3h69.1c-1.6,1.4-2.8,8.2-3.6,20.2c0,4.7-12.4,4-20.6,4.2c-8.2,0.2-27.8,0.1-33.2-0.5
				c-5.4-0.7-15.2-2-15.2-5.9s-0.5-12,0-14.4C0.5,71.3,1.7,70.1,3.7,69.3L3.7,69.3z"/>
			
				<linearGradient id="SVGID_26_" gradientUnits="userSpaceOnUse" x1="222.2027" y1="448.9993" x2="222.2027" y2="448.9993" gradientTransform="matrix(72.7928 0 0 -24.4843 -16174.7529 10993.4199)">
				<stop  offset="0" style="stop-color:#EDF6FF"/>
				<stop  offset="1" style="stop-color:#C0DDFF"/>
			</linearGradient>
			<path class="st57" d="M0,0"/>
		</g>
	</g>
	<g transform="translate(86 306)">
		<g transform="rotate(-33 79.317 158.046)">
			<g>
				<path id="R" class="st51" d="M108.7,187.2c-16.4-24.1-29.1-37.3-38.2-39.5c-13.6-3.3-24.1,4.9-22.1-6.8c2-11.7,21-18.2,39.5-6.7
					c18.5,11.5,23.6,45,22.2,51.5l-0.6,2.1L108.7,187.2L108.7,187.2z"/>
			</g>
			<g>
				
					<linearGradient id="SVGID_27_" gradientUnits="userSpaceOnUse" x1="165.1782" y1="485.1393" x2="165.1782" y2="484.1393" gradientTransform="matrix(52.1286 32.4768 33.8527 -50.01 -24954.459 19025.584)">
					<stop  offset="0" style="stop-color:#016AFA"/>
					<stop  offset="1" style="stop-color:#ADDFFF"/>
				</linearGradient>
				<path class="st58" d="M108.7,187.2c-16.4-24.1-29.1-37.3-38.2-39.5c-13.6-3.3-24.1,4.9-22.1-6.8c2-11.7,21-18.2,39.5-6.7
					c18.5,11.5,23.6,45,22.2,51.5l-0.6,2.1L108.7,187.2L108.7,187.2z"/>
			</g>
		</g>
		<g transform="rotate(-50 55.907 139.986)">
			<g>
				
					<linearGradient id="T_1_" gradientUnits="userSpaceOnUse" x1="41.0341" y1="507.3944" x2="41.0341" y2="507.3944" gradientTransform="matrix(24.8522 55.3645 56.7403 -22.7336 -29809.5156 9263.0742)">
					<stop  offset="0" style="stop-color:#016AFA"/>
					<stop  offset="1" style="stop-color:#ADDFFF"/>
				</linearGradient>
				<path id="T" class="st59" d="M0,0"/>
			</g>
			<g>
				
					<linearGradient id="SVGID_28_" gradientUnits="userSpaceOnUse" x1="41.0341" y1="507.3944" x2="41.0341" y2="507.3944" gradientTransform="matrix(24.8522 55.3645 56.7403 -22.7336 -29809.5156 9263.0742)">
					<stop  offset="0" style="stop-color:#016AFA"/>
					<stop  offset="1" style="stop-color:#ADDFFF"/>
				</linearGradient>
				<path class="st60" d="M0,0"/>
			</g>
		</g>
		<g transform="rotate(18 111.45 83.132)">
			<g>
				<path id="V" class="st61" d="M137.3,157c-14.9-8.9-25.3-22.3-31.2-40.4c-8.9-27.1,0.1-24.2-10.5-38.1C85,64.6,82.1,47.9,82,36.4
					c-0.1-11.5-3.6-25.6-9.8-27.9c12.9,1,24.1,7,33.5,17.9c14.1,16.3,2.2,38.6,20.2,49.3c18,10.7,10.5,23.1,15.9,35.9
					c5.4,12.8,8.8,23.4,8.8,36.2l0.1,9.4L137.3,157L137.3,157z"/>
			</g>
			<g>
				
					<linearGradient id="SVGID_29_" gradientUnits="userSpaceOnUse" x1="413.5558" y1="299.2618" x2="413.5558" y2="298.2618" gradientTransform="matrix(74.5999 -45.9267 -24.239 -141.3479 -23485.9961 61301.7617)">
					<stop  offset="0" style="stop-color:#016AFA"/>
					<stop  offset="1" style="stop-color:#ADDFFF"/>
				</linearGradient>
				<path class="st62" d="M137.3,157c-14.9-8.9-25.3-22.3-31.2-40.4c-8.9-27.1,0.1-24.2-10.5-38.1C85,64.6,82.1,47.9,82,36.4
					c-0.1-11.5-3.6-25.6-9.8-27.9c12.9,1,24.1,7,33.5,17.9c14.1,16.3,2.2,38.6,20.2,49.3c18,10.7,10.5,23.1,15.9,35.9
					c5.4,12.8,8.8,23.4,8.8,36.2l0.1,9.4L137.3,157L137.3,157z"/>
			</g>
		</g>
		<g>
			<path id="X" class="st48" d="M110,163.3c-20.1-8.8-35-21.2-44.7-37.3c-14.5-24.2-9.6-32-31-50.5C20,63.1,12.1,39.9,10.6,5.9
				c9,15.9,17.3,26.3,25,31.3c1.1,0.7,1.9,10.2,3.1,10.9c1.3,0.8,0.7-8.3,2.1-7.6c5.8,2.8,14.5,6,21.5,7.6
				c39.1,9.1,65.7,52.2,65.7,76c0,15.9-0.5,32-1.6,48.5L110,163.3z"/>
		</g>
		<g>
			
				<linearGradient id="SVGID_30_" gradientUnits="userSpaceOnUse" x1="332.907" y1="382.978" x2="332.907" y2="381.978" gradientTransform="matrix(117.451 0 0 -166.71 -39030.8867 63852.1758)">
				<stop  offset="0" style="stop-color:#F6E216"/>
				<stop  offset="1" style="stop-color:#F7A011"/>
			</linearGradient>
			<path class="st63" d="M110,163.3c-20.1-8.8-35-21.2-44.7-37.3c-14.5-24.2-9.6-32-31-50.5C20,63.1,12.1,39.9,10.6,5.9
				c9,15.9,17.3,26.3,25,31.3c1.1,0.7,1.9,10.2,3.1,10.9c1.3,0.8,0.7-8.3,2.1-7.6c5.8,2.8,14.5,6,21.5,7.6
				c39.1,9.1,65.7,52.2,65.7,76c0,15.9-0.5,32-1.6,48.5L110,163.3z"/>
		</g>
		
			<linearGradient id="SVGID_31_" gradientUnits="userSpaceOnUse" x1="332.3163" y1="383.0135" x2="332.3163" y2="383.0135" gradientTransform="matrix(117.451 0 0 -166.71 -39030.8867 63852.1758)">
			<stop  offset="0" style="stop-color:#F6E216"/>
			<stop  offset="1" style="stop-color:#F7A011"/>
		</linearGradient>
		<path class="st64" d="M0,0"/>
		
			<linearGradient id="SVGID_32_" gradientUnits="userSpaceOnUse" x1="332.3163" y1="383.0135" x2="332.3163" y2="383.0135" gradientTransform="matrix(117.451 0 0 -166.71 -39030.8867 63852.1758)">
			<stop  offset="0" style="stop-color:#F6E216"/>
			<stop  offset="1" style="stop-color:#F7A011"/>
		</linearGradient>
		<path class="st65" d="M0,0"/>
		
			<linearGradient id="SVGID_33_" gradientUnits="userSpaceOnUse" x1="332.3163" y1="383.0135" x2="332.3163" y2="383.0135" gradientTransform="matrix(117.451 0 0 -166.71 -39030.8867 63852.1758)">
			<stop  offset="0" style="stop-color:#F6E216"/>
			<stop  offset="1" style="stop-color:#F7A011"/>
		</linearGradient>
		<path class="st66" d="M0,0"/>
	</g>
	<g transform="scale(-1 1) rotate(-9 1533.482 1764.891)">
		<g>
			<path id="Z" class="st67" d="M74.1,31.3C74,18.9,76,10,80.2,4.7c6.3-7.9,22.8-4.5,18,3.6C95,13.7,87,21.4,74.1,31.3L74.1,31.3z"
				/>
		</g>
		<g>
			
				<linearGradient id="SVGID_34_" gradientUnits="userSpaceOnUse" x1="-244.6518" y1="387.7996" x2="-244.5957" y2="386.9255" gradientTransform="matrix(-24.691 4.8494 -3.9107 -30.618 -4438.4707 13060.418)">
				<stop  offset="0" style="stop-color:#90ED8D"/>
				<stop  offset="9.700001e-04" style="stop-color:#89EC8D"/>
				<stop  offset="1" style="stop-color:#0FD88D"/>
			</linearGradient>
			<path class="st68" d="M74.1,31.3C74,18.9,76,10,80.2,4.7c6.3-7.9,22.8-4.5,18,3.6C95,13.7,87,21.4,74.1,31.3L74.1,31.3z"/>
		</g>
		<g>
			<path id="ab" class="st67" d="M68.1,65.8C71.3,55.9,75,49.2,79,45.6c6-5.3,10.9-3.7,13-2.3c2.1,1.4,7.2,7.3-3.3,17.4
				C84.6,64.8,77.8,66.5,68.1,65.8z"/>
		</g>
		<g>
			
				<linearGradient id="SVGID_35_" gradientUnits="userSpaceOnUse" x1="-243.137" y1="385.8684" x2="-243.0508" y2="385.1778" gradientTransform="matrix(-26.6675 3.7544 -4.2237 -23.7043 -4774.2827 10104.2588)">
				<stop  offset="0" style="stop-color:#90ED8D"/>
				<stop  offset="9.700001e-04" style="stop-color:#89EC8D"/>
				<stop  offset="1" style="stop-color:#0FD88D"/>
			</linearGradient>
			<path class="st69" d="M68.1,65.8C71.3,55.9,75,49.2,79,45.6c6-5.3,10.9-3.7,13-2.3c2.1,1.4,7.2,7.3-3.3,17.4
				C84.6,64.8,77.8,66.5,68.1,65.8z"/>
		</g>
		<g>
			<path id="ad" class="st67" d="M55.5,94.9c9.8-9.9,18.8-16.3,27.1-19.3c12.4-4.4,19.5,1,20.7,9.6c1.6,13.7-5.9,18.5-15,19.7
				C82.3,105.7,71.3,102.4,55.5,94.9z"/>
		</g>
		<g>
			
				<linearGradient id="SVGID_36_" gradientUnits="userSpaceOnUse" x1="-237.1523" y1="388.6831" x2="-237.066" y2="388.3186" gradientTransform="matrix(-47.4095 4.8495 -7.5089 -30.6183 -8247.5459 13134.3242)">
				<stop  offset="0" style="stop-color:#90ED8D"/>
				<stop  offset="9.700001e-04" style="stop-color:#89EC8D"/>
				<stop  offset="1" style="stop-color:#0FD88D"/>
			</linearGradient>
			<path class="st70" d="M55.5,94.9c9.8-9.9,18.8-16.3,27.1-19.3c12.4-4.4,19.5,1,20.7,9.6c1.6,13.7-5.9,18.5-15,19.7
				C82.3,105.7,71.3,102.4,55.5,94.9z"/>
		</g>
		<g>
			<path id="af" class="st67" d="M68.9,58.2c-11.4-4.3-18.1-10.7-20.2-19.3c-3.2-12.8,3.8-15.7,6.1-15.7c2.3,0,7.8-1.5,10.4,8.5
				C66.9,38.3,68.2,47.1,68.9,58.2L68.9,58.2z"/>
		</g>
		<g>
			
				<linearGradient id="SVGID_37_" gradientUnits="userSpaceOnUse" x1="-247.7466" y1="388.118" x2="-247.7155" y2="387.2439" gradientTransform="matrix(-20.7428 5.4753 -3.2853 -34.5695 -3805.9773 14796.7158)">
				<stop  offset="0" style="stop-color:#90ED8D"/>
				<stop  offset="9.700001e-04" style="stop-color:#89EC8D"/>
				<stop  offset="1" style="stop-color:#0FD88D"/>
			</linearGradient>
			<path class="st71" d="M68.9,58.2c-11.4-4.3-18.1-10.7-20.2-19.3c-3.2-12.8,3.8-15.7,6.1-15.7c2.3,0,7.8-1.5,10.4,8.5
				C66.9,38.3,68.2,47.1,68.9,58.2L68.9,58.2z"/>
		</g>
		<g>
			<path id="ah" class="st67" d="M56.3,94.3c1.1-16.6-0.5-28.3-4.8-35.1C45,49,35.4,50.7,33.1,53.5c-2.3,2.9-2.2,11.5,2,19.3
				C37.9,78,44.9,85.2,56.3,94.3z"/>
		</g>
		<g>
			
				<linearGradient id="SVGID_38_" gradientUnits="userSpaceOnUse" x1="-244.9772" y1="389.7201" x2="-244.948" y2="388.846" gradientTransform="matrix(-24.6916 6.7267 -3.9108 -42.4705 -4481.0225 18250.8613)">
				<stop  offset="0" style="stop-color:#90ED8D"/>
				<stop  offset="9.700001e-04" style="stop-color:#89EC8D"/>
				<stop  offset="1" style="stop-color:#0FD88D"/>
			</linearGradient>
			<path class="st72" d="M56.3,94.3c1.1-16.6-0.5-28.3-4.8-35.1C45,49,35.4,50.7,33.1,53.5c-2.3,2.9-2.2,11.5,2,19.3
				C37.9,78,44.9,85.2,56.3,94.3z"/>
		</g>
		<g>
			<path id="aj" class="st67" d="M30.9,131c15.9-11.9,27.4-18.1,34.6-18.7c10.8-0.8,19.6,5.4,20.3,12.3c0.7,7-5.6,11.5-17.2,10.4
				C60.8,134.4,48.3,133,30.9,131z"/>
		</g>
		<g>
			
				<linearGradient id="SVGID_39_" gradientUnits="userSpaceOnUse" x1="-235.6962" y1="386.3054" x2="-235.6099" y2="386.1526" gradientTransform="matrix(-54.3225 3.5979 -8.6038 -22.716 -9425.5479 9745.9297)">
				<stop  offset="0" style="stop-color:#90ED8D"/>
				<stop  offset="9.700001e-04" style="stop-color:#89EC8D"/>
				<stop  offset="1" style="stop-color:#0FD88D"/>
			</linearGradient>
			<path class="st73" d="M30.9,131c15.9-11.9,27.4-18.1,34.6-18.7c10.8-0.8,19.6,5.4,20.3,12.3c0.7,7-5.6,11.5-17.2,10.4
				C60.8,134.4,48.3,133,30.9,131z"/>
		</g>
		<g>
			<path id="al" class="st67" d="M27.8,135.1c1.2-12.7-0.3-25.3-4.6-37.9C18.9,86,8.6,87.1,5.2,90.4c-3.4,3.3-8.4,9.5-1.6,26
				C8.1,127.3,16.2,133.6,27.8,135.1z"/>
		</g>
		<g>
			
				<linearGradient id="SVGID_40_" gradientUnits="userSpaceOnUse" x1="-243.3766" y1="390.4066" x2="-243.346" y2="389.5325" gradientTransform="matrix(-27.6552 7.3525 -4.3802 -46.4219 -5006.9146 20000.9941)">
				<stop  offset="0" style="stop-color:#90ED8D"/>
				<stop  offset="9.700001e-04" style="stop-color:#89EC8D"/>
				<stop  offset="1" style="stop-color:#0FD88D"/>
			</linearGradient>
			<path class="st74" d="M27.8,135.1c1.2-12.7-0.3-25.3-4.6-37.9C18.9,86,8.6,87.1,5.2,90.4c-3.4,3.3-8.4,9.5-1.6,26
				C8.1,127.3,16.2,133.6,27.8,135.1z"/>
		</g>
		<g>
			<path id="an" class="st67" d="M14.2,189.3c14.1-28.5,26.4-44.3,36.9-47.4c15.8-4.7,25.5,7.1,26.9,14.7c1.4,7.6-6.5,24.3-24,29.4
				C42.4,189.5,29.1,190.6,14.2,189.3L14.2,189.3z"/>
		</g>
		<g>
			
				<linearGradient id="SVGID_41_" gradientUnits="userSpaceOnUse" x1="-235.5187" y1="391.6196" x2="-235.4324" y2="391.1073" gradientTransform="matrix(-63.2123 7.6653 -10.0118 -48.3965 -10925.4102 20909.8809)">
				<stop  offset="0" style="stop-color:#90ED8D"/>
				<stop  offset="9.700001e-04" style="stop-color:#89EC8D"/>
				<stop  offset="1" style="stop-color:#0FD88D"/>
			</linearGradient>
			<path class="st75" d="M14.2,189.3c14.1-28.5,26.4-44.3,36.9-47.4c15.8-4.7,25.5,7.1,26.9,14.7c1.4,7.6-6.5,24.3-24,29.4
				C42.4,189.5,29.1,190.6,14.2,189.3L14.2,189.3z"/>
		</g>
		
			<linearGradient id="SVGID_42_" gradientUnits="userSpaceOnUse" x1="-235.363" y1="394.7757" x2="-235.363" y2="394.7757" gradientTransform="matrix(-63.2123 7.6653 -10.0118 -48.3965 -10925.4102 20909.8809)">
			<stop  offset="0" style="stop-color:#90ED8D"/>
			<stop  offset="9.700001e-04" style="stop-color:#89EC8D"/>
			<stop  offset="1" style="stop-color:#0FD88D"/>
		</linearGradient>
		<path class="st76" d="M0,0"/>
		<path class="st9" d="M86.2,50.3l0.2,0.1c-2.3,3.1-8.4,8-18.3,14.5l-0.6,0.4l-0.1-0.2l0.6-0.4C77.7,58.3,83.8,53.5,86.2,50.3
			C86.1,50.4,86.2,50.3,86.2,50.3z M55.6,29.8c0.9,7.2,5.1,16.4,12.6,27.5l0.2,0.3l-0.2,0.1C60.7,46.6,56.5,37.3,55.4,30l0-0.2
			C55.4,29.8,55.6,29.8,55.6,29.8z M93,87.3l0.1,0.2c-3.9,2.8-16.1,5.4-36.4,7.7l-0.6,0.1l0-0.2c20.4-2.4,32.7-4.9,36.8-7.7L93,87.3
			z M39.2,59.9c1.1,3.7,6.3,14.6,15.6,32.6l1.2,2.3l-0.2,0.1l-0.9-1.7C45.5,75,40.2,64,39,60.1l0-0.1L39.2,59.9L39.2,59.9z
			 M32.4,130.2c19.8-6,33.7-8.5,41.8-7.6l0.2,0l0,0.2c-7.9-1-21.6,1.5-41.3,7.4l-0.6,0.2L32.4,130.2L32.4,130.2z M9.7,96.9
			c0.9,8.3,7,21,18.4,38.4l0.3,0.5l-0.2,0.1c-11.6-17.4-17.8-30.3-18.8-38.7l0-0.3C9.5,97,9.7,96.9,9.7,96.9z M65.2,151.9l0.2,0.1
			c-6.2,8.3-22.6,20.4-49.1,36.4l-0.8,0.5l-0.1-0.2c26.7-16,43.3-28.2,49.6-36.6L65.2,151.9z"/>
	</g>
	
		<linearGradient id="SVGID_43_" gradientUnits="userSpaceOnUse" x1="441.1342" y1="682.8903" x2="441.1342" y2="681.8903" gradientTransform="matrix(-8.0445 -7.5016 38.8739 -41.6872 -22561.5996 32136.0352)">
		<stop  offset="0" style="stop-color:#1BD88C"/>
		<stop  offset="1" style="stop-color:#99E2A1"/>
	</linearGradient>
	<path class="st77" d="M437.4,360c-15.6,24.7-28.6,38.6-38.9,41.7l10.3-21.2c10-9.7,18.6-16.3,25.8-19.6
		C434.6,360.9,437.4,360,437.4,360z"/>
	
		<linearGradient id="SVGID_44_" gradientUnits="userSpaceOnUse" x1="426.5994" y1="680.8223" x2="426.5994" y2="679.8223" gradientTransform="matrix(-36.5677 -34.0999 30.0079 -32.1796 -4412.9502 36791.8672)">
		<stop  offset="0" style="stop-color:#1BD88C"/>
		<stop  offset="1" style="stop-color:#99E2A1"/>
	</linearGradient>
	<path class="st78" d="M407.6,380.9c-9.8-24.9-12.7-45.4-8.5-61.6c-8.6,26.3-6.4,48.4,6.6,66.3l1.3-3.4
		C406.9,382.1,407.6,380.9,407.6,380.9z"/>
	
		<linearGradient id="SVGID_45_" gradientUnits="userSpaceOnUse" x1="427.3802" y1="678.8073" x2="427.3802" y2="677.8073" gradientTransform="matrix(-30.7169 -28.6439 24.5519 -26.3287 -3137.6216 30487.209)">
		<stop  offset="0" style="stop-color:#1BD88C"/>
		<stop  offset="1" style="stop-color:#99E2A1"/>
	</linearGradient>
	<path class="st79" d="M392.2,412.2c-7.7-17.5-10-35.2-7-53.3c-9.2,21.8-7.2,40.1,6.2,55l0.3-1.2L392.2,412.2z"/>
	
		<linearGradient id="SVGID_46_" gradientUnits="userSpaceOnUse" x1="435.3104" y1="681.2166" x2="435.3104" y2="680.2166" gradientTransform="matrix(-11.7017 -10.912 31.3719 -33.6423 -15859.1455 28066.3555)">
		<stop  offset="0" style="stop-color:#1BD88C"/>
		<stop  offset="1" style="stop-color:#99E2A1"/>
	</linearGradient>
	<path class="st80" d="M382.4,425.1c21.7-13,35.1-20.4,40.2-22.4c-5.8,13.3-19.5,21.5-41.1,24.6l0.5-1.2L382.4,425.1z"/>
	
		<linearGradient id="SVGID_47_" gradientUnits="userSpaceOnUse" x1="442.9967" y1="681.9104" x2="442.9967" y2="680.9104" gradientTransform="matrix(-7.3136 -6.82 34.0999 -36.5677 -19570.793 28287.2266)">
		<stop  offset="0" style="stop-color:#1BD88C"/>
		<stop  offset="1" style="stop-color:#99E2A1"/>
	</linearGradient>
	<path class="st81" d="M411.9,370c17.7-18.1,27.1-32.2,28.1-42.2c-11.7,9.5-19.7,17.8-24,24.9l-3.1,13.6L411.9,370L411.9,370z"/>
	
		<linearGradient id="SVGID_48_" gradientUnits="userSpaceOnUse" x1="430.0914" y1="677.7998" x2="430.0914" y2="676.7998" gradientTransform="matrix(-19.7465 -18.414 22.5059 -24.1347 -6332.5879 24586.9805)">
		<stop  offset="0" style="stop-color:#1BD88C"/>
		<stop  offset="1" style="stop-color:#99E2A1"/>
	</linearGradient>
	<path class="st82" d="M416.5,342.2c-4.6-14.7-3.6-28.8,2.8-42.5C423.4,317.2,422.5,331.3,416.5,342.2z"/>
	<path class="st9" d="M417.3,339.1l-1-0.1c-3.6,36.1-15.4,65.4-35.5,87.9l-0.6,0.7l0.7,0.7c20.4-22.5,32.5-51.8,36.2-88L417.3,339.1
		L417.3,339.1z"/>
	
		<linearGradient id="SVGID_49_" gradientUnits="userSpaceOnUse" x1="420.9802" y1="688.7751" x2="422.3033" y2="688.9223" gradientTransform="matrix(691.0002 0 0 -299 -290363.0625 206081.0469)">
		<stop  offset="0" style="stop-color:#0A5FFD"/>
		<stop  offset="1" style="stop-color:#090724"/>
	</linearGradient>
	<path class="st83" d="M818.1-40c-4.6,24.2,5.8,45.4,31,63.6c37.9,27.2,132.1,1.9,183.2,12.7s70.4,27.6,82.4,43.7
		c12,16.1,24.8,49.1,72.7,68.6c47.9,19.6,143.6-3.2,196.8,38.2c35.5,27.6,69.9,50.3,103.4,68.1L1508-44L818.1-40z"/>
	
		<linearGradient id="SVGID_50_" gradientUnits="userSpaceOnUse" x1="420.7534" y1="688.6614" x2="422.0765" y2="688.8942" gradientTransform="matrix(499.9995 0 0 -272 -209603.7656 187475.0156)">
		<stop  offset="0" style="stop-color:#0A5FFD"/>
		<stop  offset="1" style="stop-color:#090724"/>
	</linearGradient>
	<path class="st84" d="M975-14.5c-4.3,22.7,5.4,42.6,29.1,59.7c35.6,25.5,124.2,1.8,172.2,11.9s66.2,25.9,77.4,41
		c11.3,15.1,28.8,62.8,64.4,75.8c35.6,13,57.2-5.3,80.9,13c23.7,18.4,30.5,78,55.8,58c16.9-13.3,22.5-102.6,17-268L975-14.5
		L975-14.5z"/>
	<g transform="translate(1147 192)">
		
			<linearGradient id="SVGID_51_" gradientUnits="userSpaceOnUse" x1="-731.6388" y1="495.2285" x2="-731.6388" y2="494.2285" gradientTransform="matrix(59.1136 0 0 -57.1159 43306.6445 28339.3789)">
			<stop  offset="0" style="stop-color:#EF793F"/>
			<stop  offset="1" style="stop-color:#7D3315"/>
		</linearGradient>
		<path class="st85" d="M65.5,61.6c5,0.1,8.5,1.3,10.6,3.4c3.1,3.3,3.8,8.3,3.4,11.3c-0.4,3-1.3,4.8,1.1,8.1
			c2.4,3.3,8.6,12.2,4.3,18.6c-4.3,6.5-30.9,12.6-47.3,3.1C26.6,100,24.4,91.9,31,82c2.6-3.7,6-5.6,10.2-5.6c6.3,0,5.8-0.9,6.3-3.6
			c0.6-2.8,2.9-10.5,11.8-11c-1.5-2.8-1.8-4.9-0.7-6.3c0.6-0.8,1.8-1.4,3.4-1.5c1.5,0,2.7,0.5,3.4,1.1
			C66.7,56.1,66.7,58.3,65.5,61.6z"/>
		
			<linearGradient id="SVGID_52_" gradientUnits="userSpaceOnUse" x1="-732.601" y1="496.1736" x2="-732.601" y2="496.1736" gradientTransform="matrix(59.1136 0 0 -57.1159 43306.6445 28339.3789)">
			<stop  offset="0" style="stop-color:#EF793F"/>
			<stop  offset="1" style="stop-color:#7D3315"/>
		</linearGradient>
		<path class="st86" d="M0,0"/>
		<g transform="translate(90.237 34.27)">
			<g>
				
					<linearGradient id="SVGID_53_" gradientUnits="userSpaceOnUse" x1="-820.72" y1="461.7605" x2="-820.72" y2="460.7605" gradientTransform="matrix(70.5338 0 0 -81.7538 57923.7422 37750.6563)">
					<stop  offset="0" style="stop-color:#FFE5E7"/>
					<stop  offset="1" style="stop-color:#FFC7CA"/>
				</linearGradient>
				<path class="st87" d="M8.4,81.8c6.1-1.4,12.2-6.5,18.2-15.3c6-8.8,13-20.4,21-35.1c2.9-3.8,7.9-6.1,15.2-6.7
					c2.5,0.1,3.9-0.5,4.3-1.7c0.3-1.4-0.2-2.2-1.4-2.4l-6.8-0.1H67c1.6,0,2.4-0.9,2.6-2.5c0.2-1.6-1.1-2.4-3.7-2.4l-9,0.4l10.8-0.6
					c1.8-0.3,2.7-1.2,2.8-2.8c0.1-1.6-1-2.4-3.5-2.5l-11.6,1.6l8.8-2.4c1.2-0.8,1.5-1.8,1.1-3c-0.5-1.2-2.2-1.4-5.1-0.7l-11.3,3
					l2.6-5c0.7-1.9,0.4-3.1-1-3.5c-2.1-0.7-3.2,1.1-3.8,2.1c-0.6,1-2.1,5.4-3.4,6.4c-1.3,1-3.9,4.7-4.4,9.8c-0.3,3.4-1.3,5.5-3,6.3
					L0,63.7L8.4,81.8z"/>
			</g>
			<defs>
				<filter id="Adobe_OpacityMaskFilter_7_" filterUnits="userSpaceOnUse" x="2" y="61.8" width="10.5" height="19.5">
					<feColorMatrix  type="matrix" values="1 0 0 0 0  0 1 0 0 0  0 0 1 0 0  0 0 0 1 0"/>
				</filter>
			</defs>
			<mask maskUnits="userSpaceOnUse" x="2" y="61.8" width="10.5" height="19.5" id="aA_1_">
				<g class="st88">
					<path id="ay_1_" class="st32" d="M8.4,81.8c6.1-1.4,12.2-6.5,18.2-15.3c6-8.8,13-20.4,21-35.1c2.9-3.8,7.9-6.1,15.2-6.7
						c2.5,0.1,3.9-0.5,4.3-1.7c0.3-1.4-0.2-2.2-1.4-2.4l-6.8-0.1H67c1.6,0,2.4-0.9,2.6-2.5c0.2-1.6-1.1-2.4-3.7-2.4l-9,0.4l10.8-0.6
						c1.8-0.3,2.7-1.2,2.8-2.8c0.1-1.6-1-2.4-3.5-2.5l-11.6,1.6l8.8-2.4c1.2-0.8,1.5-1.8,1.1-3c-0.5-1.2-2.2-1.4-5.1-0.7l-11.3,3
						l2.6-5c0.7-1.9,0.4-3.1-1-3.5c-2.1-0.7-3.2,1.1-3.8,2.1c-0.6,1-2.1,5.4-3.4,6.4c-1.3,1-3.9,4.7-4.4,9.8c-0.3,3.4-1.3,5.5-3,6.3
						L0,63.7L8.4,81.8z"/>
				</g>
			</mask>
			<path class="st89" d="M2,61.8l10.5,18.5l-2.1,1L2,61.8z"/>
		</g>
		<path class="st42" d="M0,0"/>
		<g transform="translate(.224 .224)">
			<g>
				<path class="st25" d="M32,86.7l-8-57.9c0-3.5,0.4-5.9,1.2-7.4c1.2-2.2,1.7-5.2,1.2-8c-0.5-2.8-0.3-7.9,0-9.7
					c0.3-1.8-0.6-3.1-1.7-3.1c-1,0-2.2,0.2-2.5,2.5c-0.3,2.3-0.5,6.1-2.2,6.1c-1.1,0-4.7-2.9-10.8-8.6C8-0.1,6.9-0.2,5.8,0.4
					C4.8,1,4.9,2.1,6.1,3.8l7.8,7.3L5.3,3.3c-1.2-1-2.2-1.1-3-0.4C1,3.8,1.7,5.6,3.1,6.7C4,7.5,6.4,9.6,10.3,13L2.5,6.5
					C1.8,6.6,1.2,6.9,0.9,7.3c-0.5,0.6-0.6,1.8,0,2.4c0.4,0.4,2.8,2.4,7.3,6.1l-6.5-5.1c-0.7,0.1-1.2,0.4-1.5,0.8
					C-0.2,12.2,0,13.4,0.9,14c0.6,0.4,2.9,2.4,6.9,6.1c3.4,3.6,5,7,4.8,10.5c-0.4,5.1-2.3,57.6-1.2,64.6l19-7.7L32,86.7L32,86.7z"/>
			</g>
			<g>
				
					<linearGradient id="SVGID_54_" gradientUnits="userSpaceOnUse" x1="-737.9033" y1="496.069" x2="-737.9033" y2="495.069" gradientTransform="matrix(32.0201 0 0 -95.1933 23643.7129 47222.4609)">
					<stop  offset="0" style="stop-color:#FFE5E7"/>
					<stop  offset="1" style="stop-color:#FFC7CA"/>
				</linearGradient>
				<path class="st90" d="M32,86.7l-8-57.9c0-3.5,0.4-5.9,1.2-7.4c1.2-2.2,1.7-5.2,1.2-8c-0.5-2.8-0.3-7.9,0-9.7
					c0.3-1.8-0.6-3.1-1.7-3.1c-1,0-2.2,0.2-2.5,2.5c-0.3,2.3-0.5,6.1-2.2,6.1c-1.1,0-4.7-2.9-10.8-8.6C8-0.1,6.9-0.2,5.8,0.4
					C4.8,1,4.9,2.1,6.1,3.8l7.8,7.3L5.3,3.3c-1.2-1-2.2-1.1-3-0.4C1,3.8,1.7,5.6,3.1,6.7C4,7.5,6.4,9.6,10.3,13L2.5,6.5
					C1.8,6.6,1.2,6.9,0.9,7.3c-0.5,0.6-0.6,1.8,0,2.4c0.4,0.4,2.8,2.4,7.3,6.1l-6.5-5.1c-0.7,0.1-1.2,0.4-1.5,0.8
					C-0.2,12.2,0,13.4,0.9,14c0.6,0.4,2.9,2.4,6.9,6.1c3.4,3.6,5,7,4.8,10.5c-0.4,5.1-2.3,57.6-1.2,64.6l19-7.7L32,86.7L32,86.7z"/>
			</g>
			<defs>
				<filter id="Adobe_OpacityMaskFilter_8_" filterUnits="userSpaceOnUse" x="11" y="83.6" width="21" height="10.1">
					<feColorMatrix  type="matrix" values="1 0 0 0 0  0 1 0 0 0  0 0 1 0 0  0 0 0 1 0"/>
				</filter>
			</defs>
			<mask maskUnits="userSpaceOnUse" x="11" y="83.6" width="21" height="10.1" id="aD_1_">
				<g class="st91">
					<path id="aB_1_" class="st32" d="M32,86.7l-8-57.9c0-3.5,0.4-5.9,1.2-7.4c1.2-2.2,1.7-5.2,1.2-8c-0.5-2.8-0.3-7.9,0-9.7
						c0.3-1.8-0.6-3.1-1.7-3.1c-1,0-2.2,0.2-2.5,2.5c-0.3,2.3-0.5,6.1-2.2,6.1c-1.1,0-4.7-2.9-10.8-8.6C8-0.1,6.9-0.2,5.8,0.4
						C4.8,1,4.9,2.1,6.1,3.8l7.8,7.3L5.3,3.3c-1.2-1-2.2-1.1-3-0.4C1,3.8,1.7,5.6,3.1,6.7C4,7.5,6.4,9.6,10.3,13L2.5,6.5
						C1.8,6.6,1.2,6.9,0.9,7.3c-0.5,0.6-0.6,1.8,0,2.4c0.4,0.4,2.8,2.4,7.3,6.1l-6.5-5.1c-0.7,0.1-1.2,0.4-1.5,0.8
						C-0.2,12.2,0,13.4,0.9,14c0.6,0.4,2.9,2.4,6.9,6.1c3.4,3.6,5,7,4.8,10.5c-0.4,5.1-2.3,57.6-1.2,64.6l19-7.7L32,86.7L32,86.7z"
						/>
				</g>
			</mask>
			<path class="st92" d="M31.5,83.6L11,90.3v3.4l21-8.5L31.5,83.6z"/>
		</g>
		<path class="st42" d="M0,0"/>
		<g>
			<path id="aE" class="st25" d="M56.8,76.3c-0.9-1.4-1.9-1.7-3.2-1c-1.8,1-1.1,6.6,2.6,9.2c-2.5,8-6.6,13.2-12.2,15.5
				c5.9,6.2,12.2,7.4,19.1,3.8c-1.6-3.3-1.9-7.6-0.9-13c5.2,2.1,8.7,0.5,10.5-5c2.7-8.2-0.3-16.1-1.1-17.1c-0.8-1-3.2-2.8-5.3,0.9
				c-2.1,3.7-4.1,4.6-6.5,4.6C58.3,74.3,57.2,74.9,56.8,76.3L56.8,76.3z"/>
		</g>
		<g>
			
				<linearGradient id="SVGID_55_" gradientUnits="userSpaceOnUse" x1="-738.6701" y1="493.9212" x2="-738.6701" y2="492.9212" gradientTransform="matrix(29.781 0 0 -38.301 22057.3301 18985.0742)">
				<stop  offset="0" style="stop-color:#FFE5E7"/>
				<stop  offset="1" style="stop-color:#FFC7CA"/>
			</linearGradient>
			<path class="st93" d="M56.8,76.3c-0.9-1.4-1.9-1.7-3.2-1c-1.8,1-1.1,6.6,2.6,9.2c-2.5,8-6.6,13.2-12.2,15.5
				c5.9,6.2,12.2,7.4,19.1,3.8c-1.6-3.3-1.9-7.6-0.9-13c5.2,2.1,8.7,0.5,10.5-5c2.7-8.2-0.3-16.1-1.1-17.1c-0.8-1-3.2-2.8-5.3,0.9
				c-2.1,3.7-4.1,4.6-6.5,4.6C58.3,74.3,57.2,74.9,56.8,76.3L56.8,76.3z"/>
		</g>
		<g transform="translate(49.933 286.25)">
			<g>
				<path class="st25" d="M0,9.3l9.4,13.9c8.5,0.7,13.4-2.5,14.5-9.4L14.5,0L0,9.3z"/>
			</g>
			<defs>
				<filter id="Adobe_OpacityMaskFilter_9_" filterUnits="userSpaceOnUse" x="3.5" y="4.6" width="14.5" height="11.7">
					<feColorMatrix  type="matrix" values="1 0 0 0 0  0 1 0 0 0  0 0 1 0 0  0 0 0 1 0"/>
				</filter>
			</defs>
			<mask maskUnits="userSpaceOnUse" x="3.5" y="4.6" width="14.5" height="11.7" id="aH_1_">
				<g class="st94">
					<path id="aG_1_" class="st32" d="M0,9.3l9.4,13.9c8.5,0.7,13.4-2.5,14.5-9.4L14.5,0L0,9.3z"/>
				</g>
			</mask>
			<path class="st95" d="M17.7,4.6L3.5,14.4l1.3,1.9L17.9,5L17.7,4.6z"/>
		</g>
		<g transform="translate(118.45 195.538)">
			<g>
				<path class="st25" d="M0,8.7L16.3,0c6.9,0.6,10.3,4.2,10.3,11l-19.8,11L0,8.7L0,8.7z"/>
			</g>
			<defs>
				<filter id="Adobe_OpacityMaskFilter_10_" filterUnits="userSpaceOnUse" x="9.6" y="3.4" width="9" height="13.1">
					<feColorMatrix  type="matrix" values="1 0 0 0 0  0 1 0 0 0  0 0 1 0 0  0 0 0 1 0"/>
				</filter>
			</defs>
			<mask maskUnits="userSpaceOnUse" x="9.6" y="3.4" width="9" height="13.1" id="aJ_1_">
				<g class="st96">
					<path id="aI_1_" class="st32" d="M0,8.7L16.3,0c6.9,0.6,10.3,4.2,10.3,11l-19.8,11L0,8.7L0,8.7z"/>
				</g>
			</mask>
			<path class="st97" d="M9.6,3.6l0.4-0.2l8.6,12l-1.8,1L9.6,3.6z"/>
		</g>
		<path class="st32" d="M77.1,172.7c-7.3,6.6-26.3,6.1-56.8-1.7v-19.3c-2.1-7.5-2.8-12.2-2.3-14c1.5-6.8,2.2-16.4,2.3-28.8
			c-5.8-4.2-9.4-8.9-11-14.1l26.3-10.9c2.2,2.8,3.6,4.6,4.2,5.3c1,1.1,3.4,4.1,5.8,8.6c2.5,4.5,11.2,8.9,16.5,3.5
			c12.1,0.4,21.5-2.6,28.3-9.1l11.2,26.1c-4.2,3.2-8.8,5.5-13.9,7c-1,0.3-4.5,7.9-4.5,13.6c0,2.4-4.9,12.2-3.1,21.5
			C80.8,163.4,79.8,167.5,77.1,172.7L77.1,172.7z"/>
		<path class="st32" d="M0,0"/>
		<path id="aK" class="st98" d="M17.1,97.7l10.4-4l0.6,1.6l-10.4,4L17.1,97.7z M31.5,103.5l10.5,3.6l-0.6,1.7l-10.5-3.6L31.5,103.5z
			 M85.9,99.8l9.5,5.7l-0.9,1.5l-9.5-5.7L85.9,99.8z M85.5,114l10.5,3.6l-0.6,1.7l-10.5-3.6L85.5,114z M56.9,137.1l10.5,3.6
			l-0.6,1.7l-10.5-3.6L56.9,137.1z M22.9,121.4l9.6-5.6l0.9,1.5l-9.6,5.6L22.9,121.4z M25.1,143l1.5-11l1.7,0.2l-1.5,11L25.1,143z
			 M43.3,125.3l8.3-7.5l1.2,1.3l-8.3,7.5L43.3,125.3z M55,159.5l9.6-5.6l0.9,1.5l-9.6,5.6L55,159.5z M61.2,174.5l10.4-4l0.6,1.6
			l-10.4,4L61.2,174.5z M74.6,101.1l4.3,10.3l-1.6,0.7L73,101.8L74.6,101.1z M53.4,106.5l10.8,2.9l-0.5,1.7l-10.8-2.9L53.4,106.5z
			 M68.3,121l6.4,9.1l-1.4,1l-6.4-9.1L68.3,121z M36.9,143.1l8.5,7.2l-1.1,1.3l-8.5-7.2L36.9,143.1z M20.3,157.5l10.9-2.3l0.4,1.7
			l-10.9,2.3L20.3,157.5z M40.2,163.7l9.8,5.2l-0.8,1.5l-9.8-5.2L40.2,163.7z M3.8,92.1"/>
		<g transform="translate(3.807 92.057)">
			<g>
				<path class="st98" d="M0,0"/>
			</g>
			<defs>
				<filter id="Adobe_OpacityMaskFilter_11_" filterUnits="userSpaceOnUse" x="0" y="0" width="84.5" height="95.2">
					<feColorMatrix  type="matrix" values="1 0 0 0 0  0 1 0 0 0  0 0 1 0 0  0 0 0 1 0"/>
				</filter>
			</defs>
			<mask maskUnits="userSpaceOnUse" x="0" y="0" width="84.5" height="95.2" id="aM_1_">
				<g class="st99">
				</g>
				<g>
				</g>
			</mask>
			<path class="st100" d="M22.3,76.8l0.2,0.1c-3.8,8.3-8.7,14-14.6,17l-0.2,0.1l-0.1-0.2c6-2.9,10.8-8.5,14.6-16.7L22.3,76.8
				L22.3,76.8z M68.3,78.4c2.2,9.4,7.5,14.9,16,16.4l0.3,0l0,0.2c-8.7-1.5-14.1-6.9-16.4-16.4l-0.1-0.3
				C68.1,78.5,68.3,78.4,68.3,78.4z M0,0"/>
			<defs>
				<filter id="Adobe_OpacityMaskFilter_12_" filterUnits="userSpaceOnUse" x="11.4" y="74.5" width="66.5" height="5.5">
					<feColorMatrix  type="matrix" values="1 0 0 0 0  0 1 0 0 0  0 0 1 0 0  0 0 0 1 0"/>
				</filter>
			</defs>
			<mask maskUnits="userSpaceOnUse" x="11.4" y="74.5" width="66.5" height="5.5" id="aM_3_">
				<g class="st101">
				</g>
			</mask>
			<path class="st102" d="M11.5,74.5c28.6,6.3,50.5,6.7,65.8,1l0.5-0.2l0.2,0.4c-15.3,5.8-37.1,5.6-65.6-0.7l-0.9-0.2L11.5,74.5
				L11.5,74.5z"/>
			<defs>
				<filter id="Adobe_OpacityMaskFilter_13_" filterUnits="userSpaceOnUse" x="35.4" y="100.8" width="34.3" height="94.1">
					<feColorMatrix  type="matrix" values="1 0 0 0 0  0 1 0 0 0  0 0 1 0 0  0 0 0 1 0"/>
				</filter>
			</defs>
			<mask maskUnits="userSpaceOnUse" x="35.4" y="100.8" width="34.3" height="94.1" id="aM_4_">
				<g class="st103">
				</g>
			</mask>
			<path class="st104" d="M43.5,100.8l-8,41.3c-0.8,7.5,1.9,14.9,8,22.1c6.1,7.2,14.8,17.4,26.1,30.7l-24.4-34.4
				c-3.9-4.7-5.8-10.8-5.6-18.1C40.8,133.2,42.1,119.4,43.5,100.8z"/>
		</g>
		<path class="st32" d="M59.7,309.6c-14.9,5.7-20.5,12.6-17,20.6l5.2,9.1L88,310c0.3-6.4-3.7-10.4-12-12l-1-1.4
			c-0.6-0.6-1.3-0.8-1.9-0.4c-0.7,0.4-0.8,1.1-0.3,2.1l1.1,1.8c-3.1,6.4-7.7,9.6-13.8,9.6l-0.1,0L59.7,309.6L59.7,309.6z"/>
		<path class="st105" d="M75.8,297.9l6.3,14.4L88,308c-0.8-4.7-4.1-7.8-9.8-9.4C78.2,298.6,75.8,297.9,75.8,297.9z"/>
		<path class="st46" d="M47,337.7L88,308v2.1l-40.2,29.2L47,338V337.7z"/>
		<path d="M72.9,296c-0.7,0.4-0.8,1.2-0.3,2.3l1,1.7l0-0.1c-3.1,6.3-7.7,9.5-13.7,9.5l-0.1,0l-0.2,0l0,0
			c-14.9,5.8-20.6,12.7-17,20.8l5.2,9.2L88.1,310l0-0.2c0.2-6.3-3.7-10.2-11.9-11.9l-0.2,0l-1-1.4C74.4,295.7,73.7,295.6,72.9,296
			C73,296,72.9,296,72.9,296z M74.9,296.6l1,1.4l0.3,0.1c8,1.7,11.9,5.5,11.7,11.7l0,0.1l-40,29.3l-5.1-9l-0.1-0.2
			c-3.3-7.8,2.2-14.4,16.6-20.1l0.4-0.2l0.2,0l0.1,0c6,0,10.6-3.2,13.8-9.4l0.1-0.2l-1.1-1.8c-0.4-1-0.3-1.6,0.3-2
			C73.7,295.8,74.3,296,74.9,296.6L74.9,296.6z M0,0"/>
		<path class="st32" d="M142.4,208.1c2.8,16.7,8.4,24.8,17,24.2c8.5-0.6,13.2-3.3,14.2-8.1l-22.9-40.9c-7.6-0.4-13.4,2.8-17.5,9.8
			c-0.7,0.4-1.1,0.6-1.3,0.7c-0.2,0.2-0.9,0.7-0.4,1.7c0.5,1,1.5,0.7,2,0.5c0.4-0.2,0.7-0.3,1.2-0.6c3.8,0.7,6.2,2.2,7.3,4.6
			C143.1,202.4,143.2,205.1,142.4,208.1L142.4,208.1z"/>
		
			<linearGradient id="SVGID_56_" gradientUnits="userSpaceOnUse" x1="-745.2887" y1="482.129" x2="-744.9047" y2="481.9533" gradientTransform="matrix(20.362 0 0 -9.973 15317.5645 4996.6733)">
			<stop  offset="0" style="stop-color:#FFC810"/>
			<stop  offset="1" style="stop-color:#FFCE66"/>
		</linearGradient>
		<path class="st106" d="M133.1,193.2l20.4-2.5l-4.4-7.4c-6.2,0.1-11.1,2.8-14.6,8l-0.7,1L133.1,193.2z"/>
		<path class="st46" d="M149.1,183.2l23.9,42.6l0.5-1.5l-22.8-41.1L149.1,183.2z"/>
		<path d="M133.2,192.8l-0.1,0.2l-0.3,0.1c-0.5,0.3-0.9,0.5-1,0.6l0,0c-0.6,0.5-0.8,1-0.4,1.8c0.4,0.9,1.3,0.9,2.2,0.5l0.1,0
			c0.3-0.1,0.6-0.3,1-0.5l0.1-0.1l0,0c3.7,0.6,6.2,2.1,7.2,4.5c1.1,2.4,1.2,5,0.4,8l0,0c2.8,16.7,8.5,24.8,17.1,24.3
			c8.5-0.6,13.2-3.2,14.2-8l0-0.2l-22.9-41l-0.1,0C143.1,182.7,137.3,185.9,133.2,192.8L133.2,192.8z M150.6,183.4l22.8,40.8l0,0
			c-0.9,4.8-5.6,7.4-14.1,8l-0.3,0c-8.2,0.4-13.7-7.5-16.5-23.6l-0.1-0.5l0,0c0.8-3,0.7-5.7-0.4-8.1c-1.1-2.4-3.5-3.9-7.3-4.6
			l-0.2,0l0,0c-0.4,0.2-0.8,0.4-1.2,0.6c-0.8,0.4-1.5,0.3-1.9-0.4c-0.3-0.7-0.1-1.1,0.3-1.5l0.1-0.1l0,0c0.2-0.1,0.6-0.3,1.2-0.7
			l0.1-0.1l0,0c4-6.9,9.7-10.2,17.2-9.8L150.6,183.4L150.6,183.4z"/>
		<path class="st107" d="M155.8,222.6l0.1,0.2l-8.9,6.3l-0.1-0.2L155.8,222.6z M154.8,221l0.1,0.2l-8.9,6.3l-0.1-0.2L154.8,221z
			 M153.5,219.4l0.1,0.2l-8.9,6.3l-0.1-0.2L153.5,219.4z"/>
		<ellipse class="st32" cx="64.7" cy="78.1" rx="1" ry="1.7"/>
		<ellipse class="st42" cx="64.8" cy="78.1" rx="1" ry="1.5"/>
		<ellipse class="st32" cx="71.4" cy="78.7" rx="1" ry="1.7"/>
		<ellipse class="st42" cx="71.5" cy="78.7" rx="1" ry="1.5"/>
		<path class="st42" d="M0,0"/>
		<path class="st108" d="M62.3,90.8c-1.4-1-2.8-2.6-4.1-4.8c1.6,3,2.9,5.1,3.9,6L62.3,90.8z"/>
		<path class="st108" d="M0,0"/>
		<path class="st108" d="M0,0"/>
		<path class="st108" d="M0,0"/>
		<path class="st108" d="M0,0"/>
		<path class="st109" d="M35.6,112l-0.4,1l0.2,0.1l0.4-1L35.6,112L35.6,112z M34.8,114.1l-0.4,1l0.2,0.1l0.4-1L34.8,114.1z
			 M34,116.2l-0.4,1l0.2,0.1l0.4-1L34,116.2z M33.2,118.3l-0.4,1l0.2,0.1l0.4-1L33.2,118.3z M32.6,120.5l-0.2-0.1l-0.3,0.7l0.7,0
			l0-0.2l-0.5,0l0.1,0.2C32.3,121,32.6,120.5,32.6,120.5z M33.9,121.2l1.1,0.1l0-0.2l-1.1-0.1L33.9,121.2L33.9,121.2z M36.1,121.3
			l1.1,0.1l0-0.2l-1.1-0.1L36.1,121.3L36.1,121.3z M38.3,121.4l1.1,0.1l0-0.2l-1.1-0.1C38.4,121.2,38.3,121.4,38.3,121.4z
			 M40.6,121.5l1.1,0.1l0-0.2l-1.1-0.1L40.6,121.5L40.6,121.5z M42.8,121.6l1.1,0.1l0-0.2l-1.1-0.1
			C42.8,121.4,42.8,121.6,42.8,121.6z M45.1,121.7l1.1,0.1l0-0.2l-1.1-0.1L45.1,121.7L45.1,121.7z M47.3,121.8l1.1,0.1l0-0.2
			l-1.1-0.1L47.3,121.8z M49.5,121.9l1.1,0.1l0-0.2l-1.1-0.1L49.5,121.9z M51.8,122l1.1,0.1l0-0.2l-1.1-0.1L51.8,122L51.8,122z
			 M54,122.1l1.1,0.1l0-0.2l-1.1-0.1L54,122.1z M56.2,122.2l1.1,0.1l0-0.2l-1.1-0.1L56.2,122.2L56.2,122.2z M58.5,122.4l1.1,0.1
			l0-0.2l-1.1-0.1C58.5,122.1,58.5,122.4,58.5,122.4z M60.7,122.5l1.1,0.1l0-0.2l-1.1-0.1L60.7,122.5L60.7,122.5z M62.9,122.6
			l1.1,0.1l0-0.2l-1.1-0.1L62.9,122.6z M65.2,122.7l1.1,0.1l0-0.2l-1.1-0.1L65.2,122.7L65.2,122.7z M67.4,122.8l1.1,0.1l0-0.2
			l-1.1-0.1L67.4,122.8z M69.7,122.9l1.1,0.1l0-0.2l-1.1-0.1C69.7,122.7,69.7,122.9,69.7,122.9z M71.9,122.8l0,0.2l1.2,0.1l0-0.1
			l-0.2,0v0l0.1,0l0-0.1L71.9,122.8z M73.2,121.8l0.1-1.1l-0.2,0l-0.1,1.1L73.2,121.8z M73.4,119.6l0.1-1.1l-0.2,0l-0.1,1.1
			L73.4,119.6z M73.6,117.4l0.1-1.1l-0.2,0l-0.1,1.1L73.6,117.4z M73.8,115.1l0.1-1.1l-0.2,0l-0.1,1.1L73.8,115.1z M73.9,112.9
			l0.1-0.8l-0.2,0l-0.1,0.8L73.9,112.9z"/>
		<ellipse class="st110" cx="33" cy="119.7" rx="1.9" ry="1.9"/>
		<ellipse class="st110" cx="72.7" cy="122.4" rx="1.9" ry="1.9"/>
		<path class="st109" d="M116.6,199.5l0.9,1.5l0.2-0.1l-0.9-1.5L116.6,199.5L116.6,199.5z M118.4,202.6l0.9,1.5l0.2-0.1l-0.9-1.5
			L118.4,202.6L118.4,202.6z M120.2,205.7l0.9,1.5l0.2-0.1l-0.9-1.5L120.2,205.7z M122.1,208.8l0.9,1.5l0.2-0.1l-0.9-1.5
			L122.1,208.8z M123.9,211.9l0.9,1.5l0.2-0.1l-0.9-1.5L123.9,211.9z M125.7,214.9l0.9,1.5l0.2-0.1l-0.9-1.5L125.7,214.9z
			 M127.6,218l0.9,1.5l0.2-0.1l-0.9-1.5L127.6,218L127.6,218z M129.4,221.1l0.9,1.5l0.2-0.1l-0.9-1.5L129.4,221.1L129.4,221.1z
			 M131.2,224.2l0.4,0.7l0.2-0.1l-0.4-0.7L131.2,224.2z M35,297.5l1.5-1l-0.1-0.2l-1.5,1L35,297.5L35,297.5z M37.9,295.4l1.5-1
			l-0.1-0.2l-1.5,1L37.9,295.4z M40.8,293.3l1.5-1l-0.1-0.2l-1.5,1L40.8,293.3z M43.7,291.2l1.5-1l-0.1-0.2l-1.5,1L43.7,291.2z
			 M46.6,289.1l1.5-1l-0.1-0.2l-1.5,1L46.6,289.1L46.6,289.1z M49.6,287.1l1.5-1l-0.1-0.2l-1.5,1L49.6,287.1z M52.5,285l1.5-1
			l-0.1-0.2l-1.5,1L52.5,285z M55.4,282.9l1.5-1l-0.1-0.2l-1.5,1L55.4,282.9z M58.3,280.8l1.5-1l-0.1-0.2l-1.5,1L58.3,280.8z
			 M61.2,278.7l1.5-1l-0.1-0.2l-1.5,1L61.2,278.7z M64.1,276.6l0.2-0.1l-0.1-0.2l-0.2,0.1L64.1,276.6z M0,0"/>
		<path class="st111" d="M56.3,77.8c-0.2-1.2-0.8-1.8-1.8-1.8c-1.5,0-1.2,4.2,1.8,6.5C56.3,82.5,56.3,77.8,56.3,77.8z"/>
		<path class="st111" d="M0,0"/>
	</g>
	<circle class="st112" cx="476" cy="310" r="7.8"/>
	<circle class="st112" cx="1332.5" cy="277.5" r="4.3"/>
	<circle class="st112" cx="181" cy="218" r="7.8"/>
	<circle class="st112" cx="996" cy="341" r="7.8"/>
	
		<linearGradient id="SVGID_57_" gradientUnits="userSpaceOnUse" x1="421.3718" y1="688.281" x2="420.8311" y2="688.8495" gradientTransform="matrix(280 0 0 -214 -117816 147440.4063)">
		<stop  offset="0" style="stop-color:#0A5FFD"/>
		<stop  offset="1" style="stop-color:#090724"/>
	</linearGradient>
	<path class="st113" d="M-18,170c13.2-27.7,33.8-48.7,61.7-63c41.9-21.5,114.7-41,133.4-78.5c12.4-25,20.7-49.1,24.9-72.5H-61.7
		L-78,170C-78,170-18,170-18,170z"/>
	
		<linearGradient id="SVGID_58_" gradientUnits="userSpaceOnUse" x1="420.6131" y1="688.3035" x2="420.2905" y2="689.2374" gradientTransform="matrix(200 0 0 -362 -84013 249557.0938)">
		<stop  offset="0" style="stop-color:#0A5FFD"/>
		<stop  offset="1" style="stop-color:#090724"/>
	</linearGradient>
	<path class="st114" d="M-35,331c54.3-37.1,84-71.6,89.2-103.7c7.8-48.1-17.6-64.2,0-97.5C71.8,96.6,136.9,74,151,37
		c9.4-24.7,14-42.4,14-53.1L-15.2-31L-35,331z"/>
	
		<radialGradient id="SVGID_59_" cx="410.347" cy="685.182" r="0.8176" gradientTransform="matrix(34 0 0 -34 -13031 23514.252)" gradientUnits="userSpaceOnUse">
		<stop  offset="0" style="stop-color:#FA6BDE"/>
		<stop  offset="0.6468" style="stop-color:#FF8EF4"/>
		<stop  offset="1" style="stop-color:#F964D9"/>
	</radialGradient>
	<circle class="st115" cx="912" cy="227" r="17"/>
	
		<radialGradient id="SVGID_60_" cx="399.3143" cy="681.2081" r="0.8176" gradientTransform="matrix(18 0 0 -18 -7042 12403.0156)" gradientUnits="userSpaceOnUse">
		<stop  offset="0" style="stop-color:#FA6BDE"/>
		<stop  offset="0.6468" style="stop-color:#FF8EF4"/>
		<stop  offset="1" style="stop-color:#F964D9"/>
	</radialGradient>
	<circle class="st116" cx="141" cy="146" r="9"/>
</g>
</svg>
