<?xml version="1.0" encoding="utf-8"?>
<!-- Generator: Adobe Illustrator 23.1.0, SVG Export Plug-In . SVG Version: 6.00 Build 0)  -->
<svg version="1.1" id="图层_1" xmlns="http://www.w3.org/2000/svg" xmlns:xlink="http://www.w3.org/1999/xlink" x="0px" y="0px"
	 viewBox="0 0 1440 538" style="enable-background:new 0 0 1440 538;" xml:space="preserve">
<style type="text/css">
	.st0{display:none;fill-rule:evenodd;clip-rule:evenodd;fill:#090724;}
	.st1{display:none;}
	.st2{display:inline;fill:#FFE7B6;}
	.st3{display:inline;fill:#DF6387;}
	.st4{display:inline;fill:#DB4965;}
	.st5{display:inline;fill:#EA535A;}
	.st6{display:inline;fill:#2D9BD6;}
	.st7{display:inline;fill:#FFCA55;}
	.st8{display:inline;fill:#F993BB;}
	.st9{display:inline;fill:#2F5ED3;}
	.st10{display:inline;fill:#8CD3A1;}
	.st11{display:inline;fill:none;stroke:#FFCA55;stroke-miterlimit:10;}
	.st12{opacity:0.3;fill-rule:evenodd;clip-rule:evenodd;fill:url(#SVGID_1_);enable-background:new    ;}
	.st13{opacity:0.5;fill-rule:evenodd;clip-rule:evenodd;fill:url(#SVGID_2_);enable-background:new    ;}
	.st14{opacity:0.5;fill-rule:evenodd;clip-rule:evenodd;fill:url(#SVGID_3_);enable-background:new    ;}
	.st15{opacity:0.4;fill-rule:evenodd;clip-rule:evenodd;fill:url(#SVGID_4_);enable-background:new    ;}
	.st16{fill:#7C5233;stroke:#2938F7;stroke-width:1.49;stroke-miterlimit:10;}
	.st17{fill:#F7D2C5;stroke:#2938F7;stroke-width:1.49;stroke-miterlimit:10;}
	.st18{fill:#262626;stroke:#2938F7;stroke-width:1.49;stroke-miterlimit:10;}
	.st19{fill:#FF8DA5;stroke:#2938F7;stroke-width:1.49;stroke-miterlimit:10;}
	.st20{fill:#FFD2D2;stroke:#2938F7;stroke-width:1.49;stroke-miterlimit:10;}
	.st21{fill:#FFFFFF;stroke:#2938F7;stroke-width:1.49;stroke-miterlimit:10;}
	.st22{fill:none;stroke:#2938F7;stroke-width:1.49;stroke-miterlimit:10;}
	.st23{fill:#FF3342;stroke:#2938F7;stroke-width:0.75;stroke-miterlimit:10;}
	.st24{fill:#FFF66C;stroke:#2938F7;stroke-width:1.49;stroke-miterlimit:10;}
	.st25{fill:#E55564;}
	.st26{fill:#FF8597;}
	.st27{opacity:0.3;fill:#FF8FAC;enable-background:new    ;}
	.st28{opacity:0.3;fill:#B53E39;enable-background:new    ;}
	.st29{fill:#FFFFFF;}
	.st30{opacity:0.3;fill:#E55564;enable-background:new    ;}
	.st31{fill:#677DE8;}
	.st32{fill:url(#SVGID_5_);}
	.st33{opacity:0.3;fill:url(#SVGID_6_);enable-background:new    ;}
	.st34{opacity:0.7;fill:#E26954;enable-background:new    ;}
	.st35{fill:#FFDA99;}
	.st36{opacity:0.5;fill:#EDA951;enable-background:new    ;}
	.st37{fill:url(#SVGID_7_);}
	.st38{fill:#262626;stroke:#2938F7;stroke-width:1.54;stroke-miterlimit:10;}
	.st39{fill:none;stroke:#2938F7;stroke-width:2.8;stroke-miterlimit:10;}
	.st40{fill:#262626;stroke:#2938F7;stroke-width:1.66;stroke-miterlimit:10;}
	.st41{fill:#FFDB29;stroke:#2938F7;stroke-width:1.43;stroke-miterlimit:10;}
	.st42{fill:#2938F7;}
	.st43{fill:#D0E6F0;}
	.st44{fill:#4FA690;}
	.st45{opacity:0.2;fill:#52919D;enable-background:new    ;}
	.st46{opacity:0.2;fill:#77CFE0;enable-background:new    ;}
	.st47{opacity:0.1;enable-background:new    ;}
	.st48{fill:#666666;}
	.st49{fill:#4D4D4D;}
	.st50{fill:#52919D;}
	.st51{fill:#77CFE0;}
	.st52{opacity:0.7;fill:#F2F2F2;enable-background:new    ;}
	.st53{fill:#E3E3E2;}
	.st54{fill:#82713A;}
	.st55{fill:#E6E6E6;}
	.st56{fill:#2697C7;}
	.st57{fill:#6CB4E3;}
	.st58{fill:#CBAE5E;}
	.st59{fill:#808080;}
	.st60{fill:#C2C3C4;}
	.st61{fill:#F27894;}
	.st62{fill:#D1D1D2;}
	.st63{fill:#FBB03B;}
	.st64{fill:#22B573;}
</style>
<path class="st0" d="M0,0h1440v1324H0V0z"/>
<g id="图层_14" class="st1">
	<circle class="st2" cx="624.8" cy="282.6" r="21.1"/>
	<circle class="st3" cx="603.8" cy="340.9" r="14.9"/>
	<circle class="st4" cx="627.8" cy="197.3" r="9.1"/>
	<circle class="st5" cx="699" cy="310.7" r="9.1"/>
	<circle class="st6" cx="750.3" cy="280.4" r="9.1"/>
	<circle class="st2" cx="772.8" cy="447.5" r="9.1"/>
	<circle class="st7" cx="796.8" cy="388.4" r="14.9"/>
	<path class="st8" d="M580.2,314.4c-7-90.1-66.2-122.8-111.8-111c-49.6,12.8-29.8,89.2,17.7,83.5
		C521.6,282.6,550.4,275.7,580.2,314.4z"/>
	<path class="st9" d="M574.9,367.3c-42.2-62.7-103.5-61-125-28.5c-23.7,35.7,19.1,58.6,51.4,34.8
		C525.3,355.8,537.2,351.3,574.9,367.3z"/>
	<path class="st10" d="M703,261.5c-18.6-54.4,9.8-100,39.4-104.6c32.2-5,33.5,39.4,4.3,48C724.9,211.4,710.7,231.4,703,261.5z"/>
	<path class="st3" d="M728.5,335.9c36.8-66,106.3-78.5,136.9-53.6c33.2,27-9,67.4-43.2,46.5C796.7,313.1,764.7,316.9,728.5,335.9z"
		/>
	<path class="st7" d="M739.5,359.6c8.7-7.1,18.9-12,29.9-14.2c11.1-2.3,22.6-2.3,33.7,0c11.1,2.3,21.6,6.8,30.9,13.2
		c9.4,6.4,17.8,14.4,24.7,23.4c7,9.1,12.7,19,17,29.6c0.5,1.3,1,2.6,1.6,4c0.3,0.9,1.8,0.5,1.4-0.4c-4.1-11-9.6-21.3-16.4-30.8
		c-6.7-9.4-14.9-17.8-24.2-24.7c-9.2-6.9-19.7-11.9-30.9-14.8c-11.2-2.8-22.8-3.4-34.2-1.6c-11.3,1.7-22,6.1-31.3,12.8
		c-1.1,0.8-2.2,1.6-3.2,2.5C737.8,359.2,738.8,360.2,739.5,359.6L739.5,359.6z"/>
	<path class="st7" d="M459.9,293.4c-15.5-2.2-31.4-0.4-46.1,5.2c-14.7,5.5-27.9,14.3-38.6,25.9c-5.9,6.4-10.9,13.7-14.7,21.5
		c-0.4,0.9,0.9,1.6,1.3,0.8c6.8-13.8,17-25.8,29.7-34.6c12.6-8.9,27-14.8,42.3-17.2c8.5-1.3,17.2-1.3,25.8-0.1
		C460.4,294.9,460.8,293.5,459.9,293.4z"/>
	<path class="st7" d="M602.4,200.3c-7-13-17-24-29.1-32.3c-12.1-8.4-26-13.8-40.5-16.1c-8.2-1.2-16.5-1.3-24.6-0.2
		c-0.9,0.1-0.9,1.6,0,1.5c14.4-1.8,29-0.2,42.6,4.8c13.7,4.9,26,12.9,36.1,23.3c5.7,5.9,10.5,12.5,14.4,19.7
		C601.6,201.9,602.9,201.1,602.4,200.3L602.4,200.3z"/>
	<path class="st7" d="M657.5,206.1c1.7-12.1,5.1-24,10.1-35.2s11.6-21.6,19.5-31c4.4-5.3,9.3-10.2,14.6-14.7c0.7-0.6-0.3-1.6-1-1
		c-9.4,8-17.6,17.3-24.3,27.7c-6.7,10.3-12,21.5-15.7,33.3c-2.1,6.7-3.6,13.5-4.5,20.4C655.9,206.6,657.3,207,657.5,206.1
		L657.5,206.1z"/>
	<path class="st7" d="M760.6,257.7c6.8-7.4,14.9-13.5,23.8-18.1c9-4.6,18.7-7.8,28.7-9.4c10.2-1.6,20.6-1.6,30.8,0
		c10.5,1.7,20.7,4.8,30.2,9.3c9.7,4.5,18.7,10.2,26.9,17c1.1,0.9,2.1,1.7,3,2.6c0.7,0.6,1.8-0.4,1.1-1C897,251,888,244.9,878.4,240
		s-19.8-8.5-30.4-10.5c-10.3-2-20.8-2.4-31.2-1.2c-10.2,1.2-20.1,4-29.4,8.3c-9.3,4.3-17.8,10.2-25,17.4c-0.9,0.9-1.8,1.8-2.6,2.7
		c-0.6,0.7,0.4,1.7,1,1H760.6z"/>
	<path class="st7" d="M709.6,380.4c-2.3,10.5-2.8,21.3-1.6,32s4.1,21.1,8.5,30.8c2.5,5.5,5.6,10.8,9.1,15.7c0.6,0.8,1.8,0,1.3-0.7
		c-6.2-8.6-10.9-18.2-13.9-28.3c-3.1-10.1-4.5-20.7-4.2-31.2c0.2-6,0.9-12,2.2-17.8C711.3,379.9,709.9,379.5,709.6,380.4
		L709.6,380.4z"/>
	<path class="st11" d="M607.5,391.9c-6-5.4-15.2-6.2-22.8-3.6s-13.9,8.2-19.3,14.2c-20.6,23.3-29.3,54.4-37.4,84.3"/>
</g>
<g>
	
		<linearGradient id="SVGID_1_" gradientUnits="userSpaceOnUse" x1="842.3694" y1="1.6228" x2="843.6926" y2="1.4756" gradientTransform="matrix(691.0002 0 0 299 -581543.125 -347.9925)">
		<stop  offset="0" style="stop-color:#42B983"/>
		<stop  offset="1" style="stop-color:#6DB33F"/>
	</linearGradient>
	<path class="st12" d="M818.1-40c-4.6,24.2,5.8,45.4,31,63.6c37.9,27.2,132.1,1.9,183.2,12.7s70.4,27.6,82.4,43.7
		s24.8,49.1,72.7,68.6c47.9,19.6,143.6-3.2,196.8,38.2c35.5,27.6,69.9,50.3,103.4,68.1L1508-44L818.1-40z"/>
	
		<linearGradient id="SVGID_2_" gradientUnits="userSpaceOnUse" x1="841.9094" y1="1.7872" x2="843.2325" y2="1.5544" gradientTransform="matrix(499.9995 0 0 272 -420181.5625 -327.0001)">
		<stop  offset="0" style="stop-color:#42B983"/>
		<stop  offset="1" style="stop-color:#6DB33F"/>
	</linearGradient>
	<path class="st13" d="M975-14.5c-4.3,22.7,5.4,42.6,29.1,59.7c35.6,25.5,124.2,1.8,172.2,11.9s66.2,25.9,77.4,41
		c11.3,15.1,28.8,62.8,64.4,75.8s57.2-5.3,80.9,13c23.7,18.4,30.5,78,55.8,58c16.9-13.3,22.5-102.6,17-268L975-14.5L975-14.5z"/>
	
		<linearGradient id="SVGID_3_" gradientUnits="userSpaceOnUse" x1="841.8647" y1="2.319" x2="841.324" y2="1.7505" gradientTransform="matrix(280 0 0 214 -235554 -348.0032)">
		<stop  offset="0" style="stop-color:#6DB33F"/>
		<stop  offset="1" style="stop-color:#42B983"/>
	</linearGradient>
	<path class="st14" d="M-18,170c13.2-27.7,33.8-48.7,61.7-63c41.9-21.5,114.7-41,133.4-78.5c12.4-25,20.7-49.1,24.9-72.5H-61.7
		L-78,170H-18z"/>
	
		<linearGradient id="SVGID_4_" gradientUnits="userSpaceOnUse" x1="840.5031" y1="2.0061" x2="840.1805" y2="1.0722" gradientTransform="matrix(200 0 0 362 -167991 -335.0007)">
		<stop  offset="0" style="stop-color:#6DB33F"/>
		<stop  offset="1" style="stop-color:#42B983"/>
	</linearGradient>
	<path class="st15" d="M-35,331c54.3-37.1,84-71.6,89.2-103.7c7.8-48.1-17.6-64.2,0-97.5C71.8,96.6,136.9,74,151,37
		c9.4-24.7,14-42.4,14-53.1L-15.2-31L-35,331z"/>
</g>
<g>
	<path class="st16" d="M250.3,355.5c0,0,44.1-19.4,73.7-18.8c0,0-2-59.6-10.9-62.8C313.1,273.8,234.1,277.5,250.3,355.5z"/>
	<path class="st16" d="M322.3,267.1c0,0,22.8,56.5,9,97c-2,0.9-4.2,1.5-6.4,1.8c0,0,3.9-9.3,4.1-28.5c-0.8,10.9-5.6,21-13.5,28.5
		c-5.3-0.2-10.5,1.5-14.6,4.9c0,0,24.9-22.6,14.7-71.2L322.3,267.1z"/>
	<path class="st17" d="M455.2,113.2l-1.4-0.8c-1.5-0.5-3.9,0.6-4.8,1.8c-4.8,6.3-18.9,26.4-30.6,56.8l-3.7,8.5
		c0,0-15.2,15.2-21.2,22.5c0,0,5,15.9,23.8,15.6l19.8-23.9c0,0,23.4-1.1,26.8-4.6s3.7-7.2-0.3-8.5c0,0,5.5-4.7,5-9.3
		c-0.3-2.7-3.3-4-3.3-4s5.8-7.8-3.6-9.9l17.4-28.3c1.7-2.7,0.8-6.1-2.5-6.3c-1.4,0-2.8,0.2-4.1,0.7c-6.6,2.4-26.7,27.8-26.7,27.8
		S461.9,118.1,455.2,113.2z"/>
	<path class="st17" d="M426.8,180c0,0,25.7,1.6,38.4-12.6"/>
	<path class="st17" d="M463.5,180.7c-16.4,15.3-32,7.4-32,7.4s-3.7-3.9,0.4-8.2l4.7-0.3"/>
	<path class="st17" d="M424,175.9c0,0,27.5-18.1,37.6-18.5"/>
	<path class="st17" d="M423.5,156c0,0-8.3-3.2-8,11.2c0,0,1.1,13.3,12.3,16.1c0,0,12.8,1.5,6.6-14.6
		C432,163.6,428.2,159.2,423.5,156z"/>
	<path class="st18" d="M464.2,236l-8.7,12.5l-3.8,5.4l0,0l-15.1,21.7l-0.3,0.5l-21,30.2l-52.7,75.9c0.3,4.6,0.6,9.1,1.1,13.5
		c1.8,19.2,4.4,37,7.4,52.9c3.9,21.1,8.4,38.7,11.9,51.1l0,0c0.9,3.1,1.7,5.8,2.4,8.3l0,0c2.4,8,4,12.4,4,12.4H200.9v-94.7l1.7-2.8
		c3.6-6,9.4-15.5,15.6-25.3c0.7-1.2,1.5-2.3,2.2-3.5c6.3-9.9,12.8-19.9,17.8-26.6c0.2-0.3,0.4-0.5,0.6-0.8c1.6-2.2,3.3-4.3,5.1-6.3
		c2-1.9,4.1-3.6,6.4-5.1c2.2-1.5,4.5-2.9,6.8-4.2c2.3-1.3,4.5-2.4,6.6-3.4l0.9-0.4l0.8-0.4l0.3-0.1c2.1-1,3.9-1.8,5.4-2.4
		c1.9-0.8,3.1-1.2,3.1-1.2c0.4-0.9,0.9-1.6,1.6-2.3c1.9-1.9,4.7-3,8-3.8c0.5-0.1,1-0.2,1.5-0.3c7.2-1.3,15.9-0.6,20.9,0l0,0l2,0.2
		c1.4,0.2,2.2,0.3,2.2,0.3c2-2.6,3.8-5.3,5.5-8.1l0,0c0.7-1.1,1.4-2.2,2.1-3.4c0.5-0.9,1.1-1.8,1.6-2.7l0,0l0.3-0.6
		c0.9-1.6,1.9-3.2,3-5l0,0c0.6-0.9,1.1-1.9,1.7-2.9l0,0l2.9-4.9c1.5-2.6,3.1-5.3,4.7-8.1c5.8-10.1,12.3-21.5,18.8-32.9
		c5.9-10.5,11.9-21.1,17.3-30.9c4.6-8.3,8.9-16.1,12.6-22.7l5.1-9.3l0,0c1.2-2.2,2.3-4.2,3.3-5.9l0,0l2.2-4l1.8-3.3l1.6,0.1
		c2.2,0.1,4.3,0.3,6.4,0.5l2.1,0.3l0,0c7.4,0.9,14.7,2.7,21.7,5.3c1.7,0.7,3.3,1.3,4.9,2l0.7,0.4c0.6,0.3,1.3,0.6,1.9,0.9
		c3.1,1.6,6,3.3,8.8,5.3c4.3,3,8.2,6.5,11.6,10.3c0.4,0.5,0.8,1,1.2,1.4c3.2,3.8,5.9,7.9,8,12.4C463.1,232.9,463.7,234.4,464.2,236z
		"/>
	<path class="st19" d="M265.8,346.6l42.6,43.5l11.2-67.1l5-8.4l-10,90.7l-55.2-54.7C259.4,350.6,260.6,348.9,265.8,346.6z"/>
	<path class="st19" d="M258.1,357.8c0,0,45.8,49.6,58.4,57.6c0,0,14.2-76.3,8.1-100.7l2.9-4.9c0,0-4,103.3-3.5,122
		c0,0-71.3-67-73.7-76.2L258.1,357.8z"/>
	<path class="st20" d="M280.1,325c2,5.1,3.5,10.5,4.3,15.9c0,0,19.8,16.5,24.4-6.4c0,0-8.9-13.5-6.4-19.1
		C302.3,315.3,300.1,318.9,280.1,325z"/>
	<path class="st21" d="M304.3,323.7l3.3-0.7l8.1,5c0,0,1.9,16.1-6.3,27.4l-6.7-11.1c0,0,5.2-5.1,3.6-15.3l-2.3-4.5
		C303.9,324.2,304,323.9,304.3,323.7C304.2,323.7,304.3,323.7,304.3,323.7z"/>
	<path class="st21" d="M281.2,329.7l-3.4,3.1l-2.6,6.9c0,0,7.9,16.8,27.4,16.8v-12.4c0,0-13.1-1.8-19.5-9.8l-1.3-4.5
		c-0.1-0.2-0.3-0.3-0.4-0.3C281.3,329.7,281.2,329.7,281.2,329.7z"/>
	<path class="st16" d="M229.1,288.8c0,0,19.4,65.1-11.1,85.6l10.4,3.2c0,0,7-4.1,10-20.1c0,0,2.8,20-12,29c0,0,10.6,8.1,27.7,0
		c0,0,4.6-10,4-28.8c0,0,4.4,18.1,0,28.1l7.9-2.7c0,0,17.1-38.9-9.7-80.7L229.1,288.8z"/>
	<path class="st20" d="M244.4,299.6c0,0-9.1-2.7-9.7,8.3C234.1,318.8,248,324,253,316c0,0,17,13.9,38.7,7s25.6-21.4,26.9-32.9
		c0,0,12.4-0.3,12.9-12.6s-14.7-15.9-18.4-5.7c0,0-8.6-22.5-42-14C237.7,266.4,240.3,294.1,244.4,299.6z"/>
	<path class="st16" d="M236.8,299.6c0,0,18.4-8.5,22.3-33c0,0,17,12.9,29.4,0c0,0,16.9,13.6,33.8,0.5c0,0-7.6-24.8-23.8-29.7
		s-50.3-6.5-67.9,29.3C230.6,266.7,222.7,292.5,236.8,299.6z"/>
	<path class="st18" d="M218.2,247.2l9.8,29.3c0.5,1.4,1.9,2.1,3.3,1.7c0.3-0.1,0.5-0.2,0.7-0.4c9-6.6,33.5-31.6,78.5-26.3
		c1.8,0.2,3-1.8,2.5-3.5l-9.8-29.3c-0.5-1.4-1.9-2.1-3.3-1.7l0,0l-80,26.8C218.5,244.4,217.7,245.8,218.2,247.2z"/>
	<path class="st18" d="M330.9,199.3l-10,8.4l-16.7,14.1l-16,13.5l-0.5,0.5L270.8,250l-2.9,2.4c-0.3,0.3-0.7,0.4-1.1,0.4l-6.6,0.1
		l-20.7,0.3l-11.9,0.2l-7.2,0.1l-6.3,0.1l-6.6,0.1l-6.6,0.1v-18l14.5-11.6l12.1-9.6l21-16.7c0.3-0.3,0.7-0.4,1.1-0.4l30.5-0.5
		l3.9-0.1h0.3h2.1h0.5h1.8h2.5l21.5-0.4l11.8-0.2l0,0l5.1-0.1c1,0,1.8,0.7,1.8,1.7C331.5,198.5,331.3,199,330.9,199.3z"/>
	<path class="st22" d="M256.3,416.9c0,0-11.2,70.3-32.2,100.9"/>
	<path class="st22" d="M256.6,297.9c-1.7-4.1,0.6-8.9,5-10.7c4.4-1.8,9.4,0.1,11,4.2"/>
	<path class="st23" d="M278.8,303.4c1.7,4.1,6.7,5.9,11.1,4s6.6-6.7,4.8-10.8L278.8,303.4z"/>
	<path class="st22" d="M290.5,285.3c-1.4-4.2,1.2-8.8,5.8-10.3c4.5-1.5,9.3,0.8,10.7,5"/>
	<path class="st17" d="M607.7,121l-1.5-0.4c-1.5,0-3.6,1.6-4.2,3c-2.8,7.4-10.9,30.5-13.8,63l-1.3,9.2c0,0-10.4,18.8-14.2,27.5
		c0,0,9.2,13.9,27.1,8.5l12.5-28.3c0,0,22.2-7.5,24.5-11.8s1.6-8-2.6-8.1c0,0,4-6,2.2-10.3c-1-2.5-4.2-2.9-4.2-2.9s3.4-9.1-6.2-8.5
		l9.2-32.6c0.9-3.3-1.1-5.5-4.4-4.7c-1.3,0.4-2.5,1-3.5,1.8c-5.7,4.1-18,34.1-18,34.1S615.4,123.9,607.7,121z"/>
	<path class="st17" d="M598.7,193c0,0,25.1-5.5,33.5-22.7"/>
	<path class="st17" d="M634.2,183.6c-11.6,19.2-28.7,15.9-28.7,15.9s-4.6-2.7-1.8-8l4.4-1.6"/>
	<path class="st17" d="M594.9,189.9c0,0,21.4-24.9,31.1-28.1"/>
	<path class="st17" d="M589,170.9c0,0-8.8-0.8-4.7,13c0,0,4.7,12.5,16.2,12.1c0,0,12.8-2.1,2.3-15.8
		C599.1,175.8,594.3,172.6,589,170.9z"/>
	<path class="st18" d="M484.5,520.3h59.2c-0.9-6.7-2-14-3-21.7c-3.6-25.3-7.8-54.7-11.3-78.3c-3.7-25.3-6.5-43.9-6.5-43.9l0.7-0.6
		l0,0c32.4-28.6,102.1-99.9,102.1-99.9c-0.8-19.4-8.8-37.8-22.6-51.5c-6.6-6.7-14.2-12.3-22.6-16.6c-1.7-0.9-2.7-1.3-2.7-1.3
		c-18.1,53.4-41,83.3-55.7,98.3c-8.9,9.1-14.8,12.7-14.8,12.7l-3.1-1.2l-0.3-0.1l-1.3-0.5l-3.9-1.5l-4.6-1.9c-2.5-1-3.9-1.6-3.9-1.6
		H490l-4.5,0.3l-8.4,0.6l0,0l-2,0.1l-6.9,0.5l0,0l-2.6,0.2h-0.4l-19.9,1.5h-0.6l-0.9,0.1l0,0l-3.7,0.3l-4.1,0.3l-5.8,0.4
		c-0.1,0.1-0.1,0.1-0.2,0.2c-1.3,1.4-2.7,4.1-4.2,7.8c-0.4,1-0.8,2.1-1.2,3.2c-7.4,20.3-16.9,63.1-25.2,104.9l0,0
		c-4.9,24.8-9.4,49.2-12.9,68.4c-0.4,1.9-0.7,3.8-1,5.6l0,0c-0.8,4.5-1.5,8.6-2.2,12.4c-0.2,1-0.3,1.9-0.5,2.9h96.6"/>
	<path class="st21" d="M484.5,520.3c0.4-3.3,1.2-9.4,2.2-16.9c1.3-10.6,3-24.1,4.4-36.9c0.6-5.6,1.2-11,1.6-16
		c0.8-8.5,1.3-15.7,1.3-20.5v-0.2c0,0-4.1-2-10.4-4.9c-13.7-6.2-37.8-16.6-53-19.8c-1.7-0.4-3.2-0.6-4.7-0.8l-0.8,6.3l-3,23.5
		l-6.2,49.6l19.1,11l0,0l26.9,15.5l17.3,10"/>
	<path class="st17" d="M466.3,462.8c0,0,5.8-7.9,13.1-10.4s8,8.1,2.9,14.4c-3,3.7-6.9,6.6-11.2,8.6c4.6-1.2,8.9-3.6,12.4-6.9
		c2.9-2.9,3.9-7.2,2.5-11.1c-1-3-1.7-6.6,0-8.2c3.2-2.9,12.1,1.6,11.1,18.1c0,0,2.2-9.8-1.8-15.1c-0.9-1.2-0.7-2.9,0.5-3.8
		c0.1-0.1,0.3-0.2,0.5-0.3c1-0.4,2.3-0.4,3.9,0.7c4.4,3,7.4,6.7,4.9,23.5l1.9-17.2c0.1-0.6,0.7-1,1.2-0.9c0.4,0.1,0.7,0.3,0.9,0.7
		c2.5,4.5,2.9,12.3-0.3,21.6l2.7-14.2c0,0,4.7,4.4,2.5,14.3s-13.1,33.9-51.8,26.3C462.3,503,453.5,474.7,466.3,462.8z"/>
	<path class="st18" d="M463.3,503.2c-0.4,2.5-0.9,4.8-1.3,7.1c-0.7,3.6-1.4,7-2,10h-41.3c-11.3-6.1-22.1-13-32.3-20.8l-3.4-2.7l0,0
		c-15.8-12.4-30.1-26.6-42.7-42.1c-0.9-1.1-1.4-1.8-1.4-1.8c2.1-13.7,12.8-37.1,24.8-60.1c17.8-34.2,38.6-67.7,38.6-67.7
		c4.6-3.6,9.6-6.8,14.7-9.6c1.5-0.8,2.9-1.6,4.4-2.3c2.4-1.2,4.7-2.2,6.8-3.1c3.7-1.5,7-2.7,9.8-3.6c0.9-0.3,1.7-0.5,2.5-0.7
		c0.9-0.3,1.8-0.5,2.6-0.7l2.1-0.5l0,0c1.6-0.3,2.4-0.5,2.4-0.5l-2.7,9l-0.2,0.7l-0.4,1.4l-3.6,12.2l-2.7,9.1l0,0l-3.9,13.1
		l-9.1,30.9l-15.7,43.7l0,0l-1,2.8l14.1,7.1l38.5,19.5l6.5,3.3c0.1,1.5,0.1,3.1,0.2,4.7C467.5,474.7,465.6,490,463.3,503.2z"/>
	<path class="st24" d="M441.5,307.4c0,0,14.1,43.1,26.8,66c0,0,20.8-41.8,22.2-67.9l4.4,2.9c0,0-6.6,45.4-26.4,79
		c0,0-28.2-54.3-33.7-77.1C434.7,310.3,435.4,308.1,441.5,307.4z"/>
	<path class="st24" d="M428.2,310.1c0,0,24.1,71.3,41.2,89.3c0,0,30.3-65,29.5-90l5.8,3c0,0-19.3,83.8-35.9,105.1
		c0,0-45.1-79.1-47.5-104.8L428.2,310.1z"/>
	<path class="st20" d="M459.2,287.1c0,0,1,4.7-6.8,18.8c0,0,14.4,11.5,25.9,5c0,0-1.1-17.3,0.7-23.2L459.2,287.1z"/>
	<path class="st21" d="M478.1,295.4l5.3,3.1l6.9,12.1c0,0-12.2,16.6-22.4,18.7l-2.7-16.8c0,0,9.1-0.1,12.1-4.4L478.1,295.4z"/>
	<path class="st20" d="M431.7,247.6c0,0-8.5-6.5-13.5,4.8s7.4,22.4,16,16c0,0,6.6,22.3,37.3,23.1c25.7,0.6,36.4-12.3,42.4-23.8
		c0,0,13.3,4.7,18.7-8s-9-22.8-17.1-13.5c0,0,0-27.2-38.6-31.8C438.2,209.9,429.7,240.1,431.7,247.6z"/>
	<path class="st16" d="M489.1,220.2c0,0-2.2,14.7-15,14.5c0,0-16.2,16.8-26.6,8.8c0,0-17.3,14.6-23.7,2.7c0,0-10.1,7.3-3.9,18.1
		c0,0,6.6,7.8,14.2,4.1c0,0,9.6,19.3,24.9,21.4c0,0-12.3,14.6-17.5,17.6c0,0-4.3-5.3-5.7-19.2c0,0,0.8,19.2,5.4,29
		c0,0-9.3,10.6-23.3,3.5c0,0-8.9-46-0.6-70.6c0,0,10-46.2,41.2-55.3c31.2-9.2,59.6,10.7,63.2,43.6c0,0,7.3,58.4-4.2,83
		c0,0-4,3.1-15.2,2.7c0,0,2.8-7.1,2.9-19.8c0,0-2.8,18.6-8.6,23.1c0,0-14.5-3.1-15.4-7.2c0,0,6.1-12.2,9.1-22.5c0,0-6.5,6-12.4,6
		l0.6-12.2c0,0,38.3-4.7,36.8-42.5c0,0-18.6-5.4-20-18.1C495.2,231,493.1,216,489.1,220.2z"/>
	<path class="st21" d="M458.2,293l-8.9,2.8l-7.8,11.5c0,0,9.5,18.9,19.5,21.7l4.2-16.6c0,0-7.5-3.8-10.2-8.3L458.2,293z"/>
	<path class="st22" d="M444,257.5c0.1-3.7,4-6.7,8.6-6.5s8.3,3.3,8.2,7"/>
	<path class="st22" d="M483.9,258.8c0.1-3.7,4-6.7,8.6-6.5s8.3,3.3,8.2,7"/>
	<path class="st18" d="M425.3,194.8l-3.4,40.4c0,0,48.7-16.9,99.7,3.1l1.2-40.4L425.3,194.8z"/>
	<path class="st18" d="M474.9,158.7l-88,28.9c-1,0.4-1.5,1.6-1.1,2.6c0.2,0.5,0.6,0.9,1.1,1.1l85.9,30.4c0.4,0.1,0.9,0.1,1.3,0
		l84.5-30.3c1-0.4,1.5-1.6,1.1-2.6c-0.2-0.5-0.6-0.9-1.1-1.1l-82.3-29C475.8,158.6,475.4,158.6,474.9,158.7z"/>
	<path class="st23" d="M463.3,273.3c-0.2,4.4,3.5,8.2,8.2,8.4s8.8-3.1,9-7.6L463.3,273.3z"/>
</g>
<g>
	<g id="图层_12">
		
			<ellipse transform="matrix(0.7071 -0.7071 0.7071 0.7071 166.5843 799.77)" class="st25" cx="1048.7" cy="198.8" rx="68.2" ry="68.2"/>
		<path class="st26" d="M985.3,210.3c-4.4-31,15.1-62.9,41.7-76.2c-0.7-0.4-3.7,1.7-4.8,1.7c-29.2,13.4-45.4,41.9-41.1,72.5
			c1.4,10.2,5.2,20,11,28.5c0.9,0.1,1.9,0.2,2.8,0.3C989.9,228.9,986.7,219.8,985.3,210.3z"/>
		<path class="st27" d="M1039.2,131.2c-6,0.8-11.8,2.5-17.4,4.8c8.6,0.2,17.1,2.4,24.8,6.2c7.1,3.7,13.2,9.3,16.6,16.6
			c2.9,6.3,3.5,13.7,0.1,19.9c-0.9,1.6-2,3.1-3.3,4.4c-1.3,1.2-2.8,2.3-4.4,3.1c-3.6,2-7.4,3.5-11,5.5c-1.7,0.9-3.4,2-4.9,3.3
			c-1.5,1.2-2.5,2.8-2.9,4.6c-0.5,3.2,1.8,5.7,2.7,8.7c0.8,2.8-0.3,5.7-2.8,7.3c-2.8,1.8-6.2,2.4-9.4,3.2c-1.6,0.3-3.2,0.8-4.7,1.4
			c-1.6,0.7-3,1.8-4,3.2c-2.4,3.1-3.6,7.1-6.8,9.6c-5.1,3.9-11.4,5.1-17.7,4.6c-0.6,0-1.1-0.1-1.7-0.2c21.4,31,63.9,38.8,94.9,17.5
			c31-21.4,38.8-63.9,17.5-94.9C1090.2,138.8,1064.8,127.6,1039.2,131.2L1039.2,131.2z"/>
		<path class="st28" d="M1039.3,131.2c4.2,1.1,8.3,2.2,12.5,3.3c5.1,1.5,10.3,3.1,15.3,5c4.9,1.7,9.4,4.4,13.3,7.7
			c3.7,3.3,6.5,7.6,8.1,12.3c0.8,2.4,1.3,4.9,1.5,7.4c0.3,2.4,0.3,4.8,0,7.2c-0.2,2.3-0.8,4.6-1.9,6.7c-1.3,2.3-3.5,3.7-5.5,5.3
			c-1.8,1.3-3.2,3.1-4,5.1c-0.5,1.4-0.7,3-0.5,4.5c0.6,5.9,4.9,12,2.2,17.9c-3.6,7.8-13.8,7-20.5,9.9c-3.6,1.4-6.2,4.4-7.1,8.1
			c-0.7,3.3-0.3,6.7-0.6,10c-0.2,3.5-1.7,6.8-4.2,9.3c-2.8,2.7-6.6,4-10.4,4.6c-4.1,0.6-8.3,0.7-12.4,0.1c-1.8-0.2-3.7-0.6-5.5-1
			c-2.2-0.6-4.3-1.3-6.3-2.2c-6-2.7-11.7-6-17-10c24,29,67.1,33.1,96.1,9c29-24,33.1-67.1,9-96.1
			C1086.2,137,1062.7,127.9,1039.3,131.2L1039.3,131.2z"/>
		<path class="st29" d="M1048.6,267.4c-37.9,0-68.7-30.8-68.6-68.7s30.8-68.7,68.7-68.6c37.9,0,68.7,30.8,68.6,68.7
			c0,34.2-25.2,63.2-59,68C1055.1,267.2,1051.8,267.4,1048.6,267.4z M1048.9,130.9c-3.2,0-6.4,0.2-9.6,0.7
			c-36.9,5.3-62.6,39.5-57.3,76.4s39.5,62.6,76.4,57.3c36.9-5.3,62.6-39.5,57.3-76.4C1110.9,155.7,1082.4,131,1048.9,130.9z"/>
		<path class="st30" d="M1009.1,173.5c-0.2,3.5,0.2,7.1-0.3,10.6c-0.7,4.8-3.1,9.7-1.8,14.4c1.4,5,6.6,7.9,11.6,6.5
			c3.2-0.9,5.8-3.5,6.6-6.8c0.8-3.4-0.2-7,1-10.3c1.4-3.5,5.1-5.6,7.2-8.7c2.3-3.5,2.4-7.9,0.4-11.5c-2.7-4.6-8.3-6.4-13.4-6.2
			C1013.1,161.8,1009.5,166.2,1009.1,173.5z"/>
		<path class="st30" d="M1031.9,141.7c-2.7-1.1-5.7-1-8.3,0.1c-2.5,1.3-4.3,4.2-3.8,7c0.7,3.5,4.3,5.5,7.7,6.4s7.2,1.4,9.8,3.7
			c2.5,2.1,3.5,5.4,4.9,8.4c1.4,2.9,3.8,5.9,7,6.1c2.6,0.2,5.1-1.7,6.2-4.1c1-2.5,1.1-5.2,0.4-7.8c-1.3-5.4-4.9-9.9-9.3-13.4
			C1042.3,144.6,1031.9,141.7,1031.9,141.7z"/>
		<path class="st30" d="M988.5,199.4c1.1,2.8,3.9,4.9,6.8,4.7c2.7-0.4,5-2.3,5.9-5c1.4-4.2-0.8-13.1-6.4-13.3
			C988.8,185.5,986.8,195.1,988.5,199.4z"/>
		<path class="st30" d="M1002.5,236.6c3.1,5.9,7.7,11.3,13.8,14.1c7.4,3.4,17.1,2.3,22.8-3.6c5.7-5.9,6.1-16.5,0.2-22.1
			c-3.6-3.4-8.7-4.7-13.2-6.7c-5.6-2.5-10.6-6.3-16.6-7.7c-4.6-1-13.8,0.3-14.3,6.3C994.8,222,1000.2,232.1,1002.5,236.6z"/>
		<path class="st31" d="M982.5,213.8c-3.9,1.8-20.4,8.9-13.4,15c3.8,3.2,36.7-3.4,74.2-19.8c47.9-21,81.2-45.6,81.6-53
			c0.1-3.1-3.3-4-5.8-4.1c-3.7-0.1-7.3,0.8-10.8,1.8c-0.7,0.2-6.9,2.2-6.9,2.1l-6.1-6.8c0.1,0.1,43.3-20.6,49.3,1.8
			c6.4,23.4-57.5,54.2-78.2,65.4c-14.9,8.1-32.4,15.3-48.4,21c-14.1,5-66.5,19.2-67.7-2.8c-0.6-10.7,24.7-25.7,30.9-28L982.5,213.8z
			"/>
		<path class="st29" d="M982.4,213.7c-2.5,1.2-4.9,2.3-7.3,3.7c-2.6,1.5-5.5,3.3-7.1,5.8c-1.3,1.8-0.8,4.4,1,5.7
			c0.1,0,0.1,0.1,0.2,0.1c1.1,0.7,2.8,0.7,4.1,0.7c6.3,0,12.6-1.5,18.6-2.9c9.9-2.4,19.6-5.4,29.1-8.8c11.6-4.2,23-9,34.2-14.3
			c10.1-4.8,20-9.9,29.7-15.5c7.8-4.5,15.4-9.3,22.7-14.6c4.8-3.5,9.6-7.2,13.7-11.5c2-2.1,6-6.5,2.3-9.1c-1.5-1.1-3.6-1.2-5.4-1.2
			c-2.9,0.1-5.8,0.6-8.6,1.4c-1.5,0.4-2.9,0.8-4.4,1.3l-2.4,0.7c-0.3,0.1-1.2,0.5-1.5,0.4c-0.1,0-0.4-0.5-0.5-0.7l-0.8-0.9l-1.5-1.7
			l-3.2-3.6l-0.2,0.2c0.4,0,1.1-0.4,1.5-0.6c1.3-0.5,2.6-1.1,3.9-1.6c4.3-1.7,8.7-3.2,13.1-4.3c5.1-1.4,10.3-2.1,15.6-2.1
			c4.5,0.2,9.2,1.4,12.3,4.9c2.8,3.2,3.9,7.6,2.9,11.8c-0.9,4.4-3.5,8.3-6.4,11.8c-3.8,4.3-7.9,8.3-12.5,11.8
			c-5.1,4-10.4,7.7-15.9,11.2c-10.5,6.7-21.5,12.7-32.5,18.5c-4.4,2.3-8.8,4.7-13.2,7c-8.8,4.6-18,8.7-27.2,12.5
			c-11.6,4.7-23.3,9-35.4,12c-5.6,1.4-11.3,2.5-17.1,3.3c-5.6,0.8-11.2,1.1-16.8,0.8c-4.3-0.3-9-1.1-12.6-3.7
			c-3.1-2.3-5-6.3-4.1-10.2c0.7-2.5,2-4.8,3.7-6.7c2-2.3,4.2-4.4,6.5-6.4c4.8-3.9,9.9-7.4,15.4-10.3c1.6-0.9,3.3-1.7,5-2.4H981
			L982.4,213.7c0,0.2,0.4,0.1,0.4-0.1l-1.4-7.5c0-0.1-0.2-0.1-0.3,0c-4.5,1.6-8.8,4.4-12.7,7c-5.3,3.5-10.5,7.4-14.6,12.4
			c-1.6,1.8-2.8,4-3.5,6.4c-0.4,2-0.3,4,0.5,5.9c1.4,3.6,4.8,5.7,8.3,6.9c4.7,1.5,9.9,1.7,14.8,1.5c5.9-0.3,11.8-1,17.7-2.1
			c10-1.9,19.9-4.6,29.5-8.1s19-7.2,28.3-11.4c7.2-3.3,14.1-6.9,21.1-10.6c10.4-5.5,20.9-11,31.1-17c11.1-6.6,22.3-13.7,31.7-22.7
			c3.7-3.5,7.2-7.4,9.6-11.9c1.8-3.5,2.9-7.4,2-11.3c-0.9-4.4-4-8-8.2-9.6c-4.5-1.8-9.6-1.6-14.3-1c-8.8,1.1-17.4,4.1-25.6,7.6
			l-1.2,0.5c-0.2,0.1-0.6,0.2-0.3,0.2c-0.1,0-0.4,0.1-0.3,0.2l3.1,3.4l1.5,1.7l0.8,0.9c0.2,0.2,0.5,0.8,0.8,0.9c0.2,0,0.4,0,0.5-0.1
			c0.6-0.2,1.3-0.4,1.9-0.6c3.9-1.3,7.8-2.4,11.9-3c2.8-0.4,10.2-0.6,9.2,4.2c-0.4,1.3-1,2.5-1.9,3.6c-3.2,4.1-7.4,7.4-11.4,10.5
			c-6.4,4.8-13,9.3-19.8,13.5c-19,11.6-39,21.5-59.7,29.7c-10.1,4-20.4,7.5-30.8,10.5c-7.3,2.2-14.8,3.8-22.4,4.9
			c-2.2,0.3-4.5,0.5-6.7,0.3c-1.8-0.1-3.1-0.7-3.9-2.5c-1.2-2.7,1.6-5.3,3.5-6.7c2.6-1.9,5.4-3.5,8.3-4.9c1-0.5,2-0.9,2.9-1.4
			C982.8,213.8,982.6,213.6,982.4,213.7z"/>
		<path class="st29" d="M954.2,231.4c-0.7,2,0.3,4.1,1.7,5.6c1.6,1.6,3.5,2.7,5.6,3.4c2.3,0.8,4.7,1.3,7,1.5
			c2.6,0.3,5.2,0.4,7.9,0.3c3-0.1,6-0.5,8.9-1.3c0.2-0.1,0.2-0.3-0.1-0.3c-5,1.2-10.1,1.6-15.3,1.1c-4.5-0.4-9.3-1.2-12.8-4.1
			c-1.8-1.4-3.4-3.8-2.6-6.2C954.6,231.2,954.2,231.2,954.2,231.4L954.2,231.4z"/>
		<path class="st29" d="M976.6,232.7c10.2-1.3,20.3-3.4,30.3-6.1c2.8-0.8,5.6-1.6,8.3-2.5c0.2-0.1,0.2-0.2,0-0.2
			c-9.8,3.2-19.8,5.6-29.9,7.3c-2.8,0.5-5.7,0.9-8.6,1.3C976.5,232.5,976.3,232.7,976.6,232.7L976.6,232.7z"/>
		<path class="st29" d="M994.7,235.3c10.7-1.9,21.2-4.4,31.6-7.7c2.9-0.9,5.8-1.9,8.6-2.9c0.2-0.1,0-0.2-0.2-0.1
			c-10.1,3.7-20.4,6.6-30.9,8.9c-3,0.6-6,1.2-9,1.7C994.6,235.1,994.5,235.4,994.7,235.3L994.7,235.3z"/>
		<path class="st29" d="M1038.9,215.4c8.2-2.7,16.2-5.9,24.1-9.4s15.5-7.4,22.9-11.6c4.2-2.4,8.4-5,12.5-7.6
			c0.2-0.1-0.1-0.2-0.2-0.1c-7.2,4.7-14.6,9-22.3,12.9c-7.7,4-15.4,7.5-23.3,10.6c-4.5,1.8-9.1,3.5-13.7,5
			C1038.6,215.3,1038.6,215.5,1038.9,215.4L1038.9,215.4z"/>
		<path class="st29" d="M1104.7,148.8c8.9-3.2,19.3-6.6,28.2-1.6c2.1,1.1,3.8,2.7,5.2,4.6c0.1,0.1,0.5,0,0.4-0.2
			c-2.5-3.5-6.4-5.7-10.5-6.6c-4.8-1.1-9.8-0.5-14.5,0.8c-3,0.8-5.9,1.8-8.8,2.9C1104.3,148.7,1104.5,148.9,1104.7,148.8
			L1104.7,148.8z"/>
		<path class="st29" d="M1110.9,176.8c6.5-2.9,12.1-7.3,16.4-12.9c2.1-2.7,4.2-6.2,3.3-9.8c-0.7-3-3.5-4.8-6.4-5.6
			c-4.3-1.1-8.6,0.3-12.8,0.7c-0.1,0-0.4,0.2-0.2,0.2c3.9-0.4,7.8-1.6,11.7-0.9c2.9,0.5,5.9,2,7.1,4.8c1.4,3.3-0.3,7-2.2,9.7
			c-2,2.8-4.4,5.4-7,7.6C1117.8,173.1,1114.5,175.2,1110.9,176.8C1110.4,176.8,1110.8,176.8,1110.9,176.8L1110.9,176.8z"/>
		<path class="st29" d="M969.6,233.1c-1.9,0.1-3.7-0.3-5.5-0.9c-1.7-0.6-3.6-1.7-4.3-3.5c-1.1-2.6,0.9-4.9,2.5-6.8
			c2-2.2,4.2-4.2,6.7-5.8c2.8-1.8,5.7-3.3,8.8-4.6c0.2-0.1,0-0.2-0.2-0.2c-5.6,2.3-10.9,5.4-15.1,9.8c-1.7,1.8-4,4.3-3.4,7
			c0.5,1.9,2.2,3.1,3.9,3.8c2,0.9,4.2,1.3,6.3,1.3C969.6,233.3,969.9,233.1,969.6,233.1L969.6,233.1z"/>
		<path class="st29" d="M1028.2,222.5c9.5-2,18.8-4.9,27.7-8.7c2.5-1.1,4.9-2.2,7.4-3.3c0.2-0.1-0.1-0.1-0.2-0.1
			c-8.6,4.2-17.6,7.5-26.8,10c-2.6,0.7-5.3,1.3-7.9,1.9C1028.1,222.3,1027.9,222.5,1028.2,222.5z"/>
		<path class="st29" d="M1086.3,200.7c8.2-4.1,16.3-8.4,24.2-13.1c6.9-4.1,13.7-8.7,19.1-14.7c1.5-1.7,2.9-3.4,4.1-5.3
			c1.3-1.9,2.1-4.1,2.4-6.4c0-0.2-0.4-0.1-0.4,0c-0.3,4.1-3.2,7.7-5.8,10.7c-2.6,3-5.6,5.7-8.7,8.1c-6.6,5.1-13.9,9.1-21.2,13.1
			c-4.6,2.5-9.3,4.9-13.9,7.3C1085.9,200.5,1086.1,200.7,1086.3,200.7L1086.3,200.7z"/>
	</g>
</g>
<g>
	<g id="图层_8">
		
			<linearGradient id="SVGID_5_" gradientUnits="userSpaceOnUse" x1="2079.5813" y1="-1093.1686" x2="2207.4993" y2="-954.815" gradientTransform="matrix(0.8645 0.5026 -0.5026 0.8645 -1124.2516 164.4857)">
			<stop  offset="0" style="stop-color:#EACB74"/>
			<stop  offset="1" style="stop-color:#FFAB54"/>
		</linearGradient>
		<circle class="st32" cx="1243.5" cy="356.6" r="88.7"/>
		
			<linearGradient id="SVGID_6_" gradientUnits="userSpaceOnUse" x1="2079.6709" y1="-1093.2513" x2="2207.5891" y2="-954.8978" gradientTransform="matrix(0.8645 0.5026 -0.5026 0.8645 -1124.2516 164.4857)">
			<stop  offset="0" style="stop-color:#EABD74"/>
			<stop  offset="1" style="stop-color:#E5994C"/>
		</linearGradient>
		<path class="st33" d="M1288.1,279.9c-6.8-3.9-14-7-21.6-9c8.6,7.2,15.6,16.2,20.4,26.3c4.3,9.5,6.1,20.2,3.6,30.4
			c-2.1,8.7-7.5,16.8-15.9,20.4c-2.2,0.9-4.5,1.5-6.9,1.8c-2.3,0.2-4.7,0.1-7-0.3c-5.3-0.8-10.4-2.4-15.7-3.3
			c-2.5-0.5-5.1-0.7-7.7-0.5c-2.4,0.2-4.9,0.7-6.7,2.4c-3.1,2.9-2.7,7.3-4.2,11c-1.4,3.4-4.9,5.6-8.6,5.2c-4.3-0.3-8.3-2.5-12.1-4.2
			c-1.9-0.9-3.9-1.7-5.9-2.3c-2.2-0.5-4.5-0.5-6.6,0.1c-5,1.2-9.4,4.4-14.7,4.3c-8.3-0.1-15.8-3.9-21.7-9.5c-0.5-0.5-1.1-1-1.6-1.6
			c-3.1,48.9,34.1,91,83,94s91-34.1,94-83C1334.1,328.6,1317.1,296.8,1288.1,279.9L1288.1,279.9z"/>
		<path class="st34" d="M1288.2,280c3.4,4.5,6.7,8.9,10,13.5c4.1,5.6,8,11.4,11.6,17.3c3.6,5.7,6.1,12,7.3,18.6
			c1.1,6.4,0.6,13-1.6,19.1c-1.2,3.1-2.6,6-4.4,8.8c-1.6,2.7-3.6,5.1-5.8,7.3c-2.1,2.2-4.5,4-7.3,5.3c-3.2,1.3-6.5,1-9.9,1
			c-2.9-0.1-5.7,0.6-8.2,2c-1.7,1.1-3.1,2.5-4.1,4.2c-4.1,6.5-4.7,16.2-12.2,20c-9.9,5.1-19.7-4-28.9-6.4c-4.8-1.4-9.9-0.5-13.8,2.6
			c-3.4,2.8-5.7,6.6-8.6,9.8c-3,3.4-7.2,5.6-11.7,6.2c-5,0.5-10-1.3-14.3-3.7c-4.7-2.6-9-6-12.7-9.8c-1.7-1.7-3.3-3.5-4.8-5.4
			c-1.7-2.3-3.3-4.8-4.7-7.4c-4-7.6-7.1-15.6-9.3-23.9c1.3,48.9,42,87.6,91,86.3c48.9-1.3,87.6-42,86.3-91
			C1331.3,323.5,1314.7,295.4,1288.2,280L1288.2,280z"/>
		<path class="st35" d="M1169.6,317.4c20.4-35.2,66-52.1,103.8-44.4c-0.4-1-5.1-1.2-6.2-2.1c-40.6-9.8-80,6.3-100.2,41.1
			c-6.8,11.6-10.8,24.5-11.8,37.9c0.8,0.9,1.7,1.8,2.6,2.6C1159.3,340.1,1163.3,328.2,1169.6,317.4z"/>
		<path class="st36" d="M1192.5,309.2c-2.5,3.3-3.5,7.6-5.4,11.4s-4.5,6.9-5.9,10.7c-1.5,3.8-1.4,8.6,1.7,11.4
			c4.5,4,11.7,0.7,17.5,2.1c2.4,0.6,4.5,1.9,6.9,2.4c4.8,1,9.6-1.9,12.7-5.8c7.4-9.3,5.8-22.8-3.5-30.2c-2.3-1.9-5.1-3.2-7.9-4
			C1202.9,305.7,1196.9,303.5,1192.5,309.2z"/>
		<path class="st36" d="M1248.3,293.1c-1.9,6.6-5.4,13.3-3.2,20.1c1,3,2.9,5.6,4.3,8.5c1.7,3.6,0.5,7.5,2.2,11
			c1.9,3.7,5.5,6.2,9.6,6.8c6.1,0.8,12.1-2.8,15.4-8s4.1-11.5,3.4-17.7c-0.8-7.4-3.7-14.5-6.6-21.4c-1.3-3.5-3-6.8-5.1-9.8
			c-2.3-2.9-5.5-5.3-9.1-5.8c-2.8-0.3-7.6,0.8-9.1,3.5c-1.4,2.5-0.3,6.9-1,9.9C1248.8,291.2,1248.6,292.2,1248.3,293.1z"/>
		<path class="st29" d="M1243.4,445.5c-49.1-0.1-88.9-39.9-88.8-89s39.9-88.9,89-88.8s88.9,39.9,88.8,89c0,15.7-4.2,31-12,44.6
			l-0.2-0.1l0.2,0.1c-11.8,20.4-31.3,35.3-54.1,41.3C1258.8,444.5,1251.1,445.5,1243.4,445.5z M1243.7,268.1c-7.7,0-15.3,1-22.8,3
			c-46.9,12.5-74.7,60.7-62.1,107.5s60.7,74.7,107.5,62.1c46.9-12.5,74.7-60.7,62.1-107.5C1318.2,294.8,1283.4,268.1,1243.7,268.1z"
			/>
		
			<linearGradient id="SVGID_7_" gradientUnits="userSpaceOnUse" x1="1111.6689" y1="657.2693" x2="1381.4196" y2="657.2693" gradientTransform="matrix(1 0 0 1 0 -304)">
			<stop  offset="0" style="stop-color:#E26954"/>
			<stop  offset="0.99" style="stop-color:#E24F3F"/>
		</linearGradient>
		<path class="st37" d="M1163.8,318.7c-5.4-1.2-28.1-7.3-25.7,4.6c1.3,6.3,40.2,26,91.7,39.4c65.8,17,119.6,18.6,125.9,11.4
			c2.6-3.1-0.2-6.7-2.7-8.8c-3.7-3.1-8.1-5-12.5-6.9c-0.9-0.4-8.8-3.3-8.8-3.4l-0.8-11.9c0,0.1,60.8,13.7,49,41.4
			c-12.3,29-102.3,9.2-132.4,4c-21.8-3.7-45.4-10.5-66.3-17.5c-18.4-6.2-83.3-33.8-66.9-57.2c8-11.4,45.9-6.5,54.1-3.8L1163.8,318.7
			z"/>
		<path class="st29" d="M1163.9,318.5c-3.2-0.7-6.5-1.5-9.8-2c-3.6-0.6-7.5-1-11.2-0.3c-2.8,0.6-5.3,2.2-5.3,5.3
			c0,2.1,0.9,3.4,2.4,4.7c2.2,1.9,4.5,3.5,7,4.9c3.7,2.3,7.6,4.3,11.5,6.2c10.9,5.2,22.2,9.9,33.6,13.9
			c29.6,10.4,60.2,17.9,91.2,22.6c12.2,1.9,24.5,3.3,36.8,4c8.5,0.5,17.1,0.7,25.6-0.4c3.6-0.5,11.9-1.4,11.3-6.7
			c-0.3-2.9-3-5.2-5.2-6.8c-3.1-2.1-6.3-3.8-9.8-5.2c-1.6-0.7-3.3-1.4-5-2l-3.2-1.2c-0.4-0.2-1.5-0.4-1.8-0.7
			c-0.3-0.3-0.2-2-0.2-2.6l-0.2-3.1l-0.4-6.2l-0.4,0.2c0.4,0.3,1.5,0.4,1.9,0.5c1.8,0.5,3.6,1,5.3,1.5c5.7,1.7,11.2,3.7,16.6,6
			c6.2,2.6,12.1,6,17.4,10.1c4.4,3.7,8.4,8.4,9.1,14.3c0.6,5.6-1.6,11.1-5.8,14.9c-4.5,4-10.5,6-16.2,7.3c-7.5,1.5-15.1,2.1-22.7,2
			c-8.7-0.1-17.3-0.6-25.9-1.5c-16.3-1.7-32.5-4.4-48.6-7.4c-7.2-1.3-14.5-2.5-21.7-4c-13.5-2.7-26.7-6.1-39.8-10.1
			c-8.9-2.7-17.9-5.4-26.6-8.8c-6.8-2.6-13.5-5.6-20-8.8c-7.5-3.6-14.7-7.7-21.6-12.3c-6-4.1-11.9-8.6-16.2-14.6
			c-3.2-4.4-5.3-9.9-3.3-15.3c1-2.8,3-5.2,5.6-6.6c3.3-1.7,6.9-2.7,10.7-3.1c8.3-1.2,16.8-0.8,25,0.2c3.4,0.4,6.9,0.9,10.3,1.6
			c1.1,0.2,2.2,0.6,3.4,0.8c0.5,0.1,0.5-0.1,0.4,0.3c-0.2,0.5-0.5,1-0.8,1.5l-3.7,7c-0.1,0.2,0.4,0.2,0.4,0l4.7-8.8
			c0-0.1,0-0.1-0.1-0.2c-5.8-1.9-12.1-2.5-18.1-3c-8-0.7-16.3-0.9-24.2,0.7c-5.9,1.2-11.5,3.5-13.9,9.4c-1.9,5-0.4,10.2,2.5,14.5
			c3.8,5.8,9.3,10.3,14.9,14.2c6.7,4.7,13.8,8.9,21.1,12.5c6.7,3.4,13.5,6.5,20.5,9.3c7.4,3,15,5.4,22.6,7.8
			c13,4.1,26.3,7.8,39.7,10.7c8.1,1.8,16.3,3.1,24.5,4.6c15.5,2.9,31.1,5.6,46.8,7.4c16.1,1.9,32.9,3.3,49,1
			c10.4-1.5,23.4-5.1,26.9-16.3c3.9-12.5-7.3-21.8-16.9-27.3s-20.2-9.1-30.7-11.9l-1.5-0.4c-0.1,0-0.6-0.2-0.5-0.1
			c-0.1-0.1-0.5,0-0.5,0.2l0.4,6l0.2,2.9l0.1,1.6c0,0.5,0,1.1,0.1,1.6c0.2,0.2,0.7,0.3,1,0.4c0.8,0.3,1.6,0.6,2.4,1
			c4.7,1.7,9.3,3.7,13.8,6.1c2.9,1.7,6.2,3.8,7.5,7c0.8,1.9,0.2,4.1-1.5,5.2c-1.8,1-3.7,1.7-5.8,2c-7.3,1.4-14.9,1.4-22.2,1.2
			c-11.3-0.4-22.6-1.3-33.8-2.9c-29.7-3.9-59-10.5-87.5-19.6c-12.5-3.9-24.7-8.5-36.7-13.7c-8-3.5-16.1-7.3-23.5-12.1
			c-2.1-1.3-4.1-2.8-5.8-4.5c-1.6-1.7-1.8-4.2-0.6-6.2c1.9-2.9,6.6-2.8,9.6-2.7c3.8,0.3,7.6,0.8,11.4,1.7c1.2,0.3,2.5,0.6,3.7,0.9
			C1163.8,318.9,1164.2,318.6,1163.9,318.5z"/>
		<path class="st29" d="M1120.8,313.9c-2.2,1.4-3,4.1-2.9,6.6c0.3,3,1.3,5.9,3,8.4c1.8,2.8,3.9,5.3,6.3,7.6c2.4,2.4,5,4.6,7.7,6.6
			c3.1,2.2,6.4,4.1,9.9,5.7c0.2,0.1,0.5-0.2,0.3-0.3c-5.9-2.6-11.3-6.3-16-10.7c-4.5-4.2-9.2-9.2-10.5-15.4c-0.6-2.8-0.3-6.4,2.4-8
			C1121.2,314.1,1121,313.8,1120.8,313.9L1120.8,313.9z"/>
		<path class="st29" d="M1142.5,333.2c11.4,6.8,23.3,12.8,35.6,18c3.5,1.5,7.1,2.9,10.6,4.2c0.1,0,0.5-0.1,0.4-0.2
			c-12.5-4.6-24.6-10.1-36.4-16.5c-3.3-1.8-6.6-3.7-9.9-5.6C1142.8,333,1142.4,333.2,1142.5,333.2L1142.5,333.2z"/>
		<path class="st29" d="M1158.9,350.5c12.3,6.6,25.1,12.4,38.2,17.3c3.7,1.4,7.5,2.7,11.3,4c0.1,0,0.5-0.2,0.4-0.2
			c-13.3-4.4-26.3-9.7-38.8-15.8c-3.6-1.7-7.1-3.5-10.6-5.5C1159.2,350.2,1158.7,350.4,1158.9,350.5L1158.9,350.5z"/>
		<path class="st29" d="M1220.1,365.7c10.6,3.8,21.3,7.1,32.2,9.8s21.9,4.9,33,6.6c6.2,0.9,12.4,1.7,18.6,2.2c0.2,0,0.5-0.3,0.2-0.3
			c-11.2-1-22.3-2.6-33.3-4.7s-21.8-4.8-32.4-8c-6-1.8-12-3.7-17.9-5.9C1220.2,365.3,1219.8,365.6,1220.1,365.7L1220.1,365.7z"/>
		<path class="st29" d="M1340.7,350.4c11.5,3.8,24.5,8.6,30,20.4c1.4,3,2.1,6.2,1.9,9.5c0,0.2,0.5,0.1,0.5,0
			c0.3-5.9-2.2-11.5-6-15.9c-4.2-4.8-9.9-8.1-15.7-10.5c-3.4-1.4-6.9-2.6-10.3-3.8C1340.9,350.1,1340.5,350.3,1340.7,350.4
			L1340.7,350.4z"/>
		<path class="st29" d="M1324.4,384c5,1.3,10.2,1.8,15.4,1.6c4.8-0.1,9.6-0.9,14.2-2.4c3.5-1.2,7.2-3.1,8.9-6.6
			c1.9-3.9,0.2-8.4-2.4-11.5c-3.5-4.1-8.8-6.1-13.2-9c-0.1-0.1-0.5,0.1-0.4,0.2c3.8,2.5,8.1,4.3,11.5,7.3c3,2.6,5.4,6.7,4.8,10.8
			c-0.6,4.1-4.1,6.6-7.6,8.1c-4.5,1.7-9.2,2.7-14,2.9c-5.6,0.4-11.3-0.2-16.8-1.6C1324.6,383.8,1324.3,383.9,1324.4,384L1324.4,384z
			"/>
		<path class="st29" d="M1135.2,328c-1.9-1.4-3.6-3.2-4.8-5.3c-1.3-2-2.4-4.6-1.8-7.1c0.8-3.5,4.7-4.3,7.7-4.9
			c3.8-0.7,7.6-0.9,11.4-0.6c4.4,0.4,8.7,1.2,12.8,2.4c0.1,0,0.5-0.2,0.3-0.2c-7.7-2.2-15.9-3.4-23.9-2c-3,0.5-6.7,1.1-8.3,4
			c-1.2,2.3-0.5,5,0.6,7.1c1.3,2.6,3.2,4.9,5.6,6.6C1135,328.2,1135.4,328.1,1135.2,328L1135.2,328z"/>
		<path class="st29" d="M1203.4,364.3c11.2,5.5,22.9,10,35,13.3c3.4,0.9,6.9,1.8,10.3,2.5c0.1,0,0.5-0.2,0.4-0.2
			c-12.2-2.7-24.2-6.5-35.7-11.5c-3.2-1.4-6.4-2.8-9.6-4.4C1203.7,364.1,1203.4,364.3,1203.4,364.3L1203.4,364.3z"/>
		<path class="st29" d="M1280.2,388.6c11.4,2.4,22.9,4.4,34.5,6c11,1.5,22.3,2.3,33.3,0.2c2.9-0.5,5.7-1.3,8.5-2.3
			c2.5-0.9,4.7-2.3,6.6-4.2c0.2-0.2-0.3-0.2-0.4-0.1c-3.4,3.7-8.8,5.1-13.5,6.1c-5.4,1.1-11,1.6-16.5,1.5c-11.1-0.2-22.2-2-33.1-3.8
			c-6.4-1.1-12.7-2.3-19-3.6C1280.3,388.4,1280,388.6,1280.2,388.6L1280.2,388.6z"/>
	</g>
</g>
<g>
	<path class="st38" d="M823.1,149l-18.7,49.2c-0.6,1.7-2.5,2.5-4.2,1.9c-0.3-0.1-0.6-0.3-0.9-0.5c-13-10.6-61.1-45.9-128.5-48.8
		c-1.8-0.1-3.2-1.6-3.1-3.4c0-0.4,0.1-0.7,0.2-1l18.7-49.3c0.6-1.7,2.5-2.5,4.2-1.9l0,0l130.5,49.6
		C822.9,145.4,823.7,147.3,823.1,149z"/>
	<path class="st38" d="M776.5,67.7l104.3,89.8c1.4,1.2,1.5,3.3,0.3,4.6c-0.7,0.8-1.6,1.2-2.7,1.1l-135-7.3c-0.8,0-1.5-0.3-2-0.9
		L643,65.4c-1.3-1.2-1.4-3.3-0.2-4.6c0.7-0.7,1.6-1.1,2.6-1.1l129.2,7.2C775.3,66.9,776,67.2,776.5,67.7z"/>
	<path class="st39" d="M766.4,102.6c0,0,14.1,48.7,106.2,61.8"/>
	<path class="st40" d="M873.8,163.9c0,0,31.4,14.3,86,12c3.8-0.2,4.7,5.1,1.1,6.5l-0.2,0.1c-1.3,0.5-2.7,0.6-4,0.4
		c-10.3-1.1-66.1-7.3-84.5-14.8C872.2,168.2,866.7,163.8,873.8,163.9z"/>
	<path class="st41" d="M874.7,166.7L874.7,166.7c-0.4,1.3-1.8,1.9-3.1,1.5l-8-2.8c-1.3-0.4-1.9-1.8-1.5-3.1l0,0
		c0.4-1.3,1.8-1.9,3.1-1.5l8,2.8C874.5,164.1,875.2,165.5,874.7,166.7z"/>
	
		<ellipse transform="matrix(0.2657 -0.9641 0.9641 0.2657 463.7299 814.1357)" class="st42" cx="766.3" cy="102.6" rx="3.8" ry="7.8"/>
</g>
<g id="Satelite_1_">
	<path class="st43" d="M114.1,376.5c-1.9,2.6-5.6,3.2-8.2,1.2l-27.1-20.1c-2.6-1.9-3.2-5.6-1.2-8.2l27.4-37c1.9-2.6,5.6-3.2,8.2-1.2
		l27.1,20.1c2.6,1.9,3.2,5.6,1.2,8.2L114.1,376.5z"/>
	<path class="st44" d="M105.4,383.8c-0.8,1.1-2.4,1.3-3.5,0.5l-28.3-20.9c-1.1-0.8-1.3-2.4-0.5-3.5l0.6-0.8c0.8-1.1,2.4-1.3,3.5-0.5
		l28.3,20.9c1.1,0.8,1.3,2.4,0.5,3.5L105.4,383.8z"/>
	<path class="st44" d="M145.2,330c0.8-1.1,0.6-2.6-0.5-3.5l-28.3-20.9c-1.1-0.8-2.6-0.6-3.5,0.5l-0.6,0.8c-0.8,1.1-0.6,2.6,0.5,3.5
		l28.3,20.9c1.1,0.8,2.6,0.6,3.5-0.5L145.2,330z"/>
	<polygon class="st43" points="147.7,312.7 142.6,319.7 139,317 141.3,313.9 140.3,313.1 137.9,316.3 135.9,314.7 136.9,313.4 
		135.9,312.7 134.9,314 134,315.2 133.2,316.4 140.8,322.1 143.4,324 145.2,321.6 150.4,314.7 	"/>
	<path class="st45" d="M110.9,355.6c-0.9,1.2-2.7,1.5-3.9,0.6l-7.7-5.7c-1.2-0.9-1.5-2.7-0.6-3.9l11.7-15.8c0.9-1.2,2.7-1.5,3.9-0.6
		l7.7,5.7c1.2,0.9,1.5,2.7,0.6,3.9L110.9,355.6z"/>
	<path class="st46" d="M110.8,354.2c-0.8,1.1-2.4,1.3-3.5,0.5l-6.8-5c-1.1-0.8-1.3-2.4-0.5-3.5l10.3-13.9c0.8-1.1,2.4-1.3,3.5-0.5
		l6.8,5c1.1,0.8,1.3,2.4,0.5,3.5L110.8,354.2z"/>
	<path class="st47" d="M140.3,331.3l-13.2-9.8L92.7,368l13.2,9.8c2.6,1.9,6.3,1.4,8.2-1.2l27.4-37
		C143.5,336.9,142.9,333.2,140.3,331.3z"/>
	<path class="st47" d="M144.7,326.5l-13.8-10.2l-3.6,4.8l13.8,10.2c1.1,0.8,2.6,0.6,3.5-0.5l0.6-0.8
		C146.1,328.9,145.8,327.4,144.7,326.5z"/>
	<path class="st47" d="M105.4,379.6l-13.8-10.2l-3.6,4.8l13.8,10.2c1.1,0.8,2.6,0.6,3.5-0.5l0.6-0.8
		C106.8,381.9,106.5,380.4,105.4,379.6z"/>
	<g>
		<path class="st43" d="M96.3,387.7c-1.5-5.5-6.1-9.8-12.1-10.5s-11.6,2.3-14.3,7.3L96.3,387.7z"/>
		<g>
			<path class="st48" d="M79.5,369.9l1.8,9.6c0.1,0.7,0.6,1.2,1.2,1.3c0.3,0.1,0.6,0.1,0.9,0.1l9.6-1.8c1-0.2,1.6-1.1,1.4-2
				c-0.2-1-1.1-1.6-2-1.4l-7.9,1.4l-1.4-7.9c-0.2-1-1.1-1.6-2-1.4C79.9,368,79.3,369,79.5,369.9z"/>
			<g>
				<circle class="st49" cx="83.2" cy="378.8" r="0.7"/>
				<path class="st43" d="M83.1,378.2c0.4-0.1,0.8,0.2,0.8,0.6c0.1,0.4-0.2,0.8-0.6,0.8c-0.4,0.1-0.8-0.2-0.8-0.6
					C82.5,378.7,82.7,378.3,83.1,378.2z"/>
			</g>
		</g>
		<path class="st43" d="M81.1,386.4l0.8,10.3c-0.3,0-0.6,0.2-0.8,0.5c-0.4,0.5-0.2,1.3,0.3,1.6c0.5,0.4,1.3,0.2,1.6-0.3
			c0.4-0.5,0.2-1.3-0.3-1.6c-0.1-0.1-0.2-0.1-0.3-0.1l3.5-9.6L81.1,386.4z"/>
	</g>
	<g>
		
			<rect x="126.4" y="344.8" transform="matrix(0.5953 -0.8035 0.8035 0.5953 -239.3794 263.6623)" class="st50" width="31.3" height="49.4"/>
		
			<rect x="127.4" y="345.7" transform="matrix(0.5953 -0.8035 0.8035 0.5953 -239.3685 263.7013)" class="st51" width="29.3" height="47.6"/>
		<polygon class="st52" points="114.6,366.7 114.7,367.4 123.8,374.2 167.7,370.3 154.9,360.8 116.4,364.3 		"/>
		<polygon class="st52" points="129.5,378.4 167.7,375 169.3,372.8 127,376.6 		"/>
		
			<rect x="141.9" y="345.3" transform="matrix(0.5953 -0.8035 0.8035 0.5953 -239.0203 263.7365)" class="st50" width="0.9" height="47.6"/>
		
			<rect x="127.1" y="369.3" transform="matrix(0.595 -0.8037 0.8037 0.595 -239.3179 264.2997)" class="st50" width="30.9" height="0.7"/>
	</g>
	<g>
		
			<rect x="59.6" y="295.3" transform="matrix(0.5953 -0.8035 0.8035 0.5953 -226.6823 189.9624)" class="st50" width="31.3" height="49.4"/>
		
			<rect x="60.7" y="296.3" transform="matrix(0.5953 -0.8035 0.8035 0.5953 -226.6859 190.0896)" class="st51" width="29.3" height="47.6"/>
		<polygon class="st52" points="47.8,317.2 47.9,318 57,324.7 101,320.8 88.2,311.4 49.6,314.8 		"/>
		<polygon class="st52" points="62.7,329 100.9,325.5 102.6,323.3 60.2,327.1 		"/>
		
			<rect x="75.2" y="295.9" transform="matrix(0.5953 -0.8035 0.8035 0.5953 -226.25 190.1406)" class="st50" width="0.9" height="47.6"/>
		
			<rect x="60.4" y="319.9" transform="matrix(0.5955 -0.8033 0.8033 0.5955 -226.5624 190.4614)" class="st50" width="30.9" height="0.7"/>
	</g>
</g>
<g id="Astronout_3_">
	<path class="st53" d="M928.6,474.6c-0.6-3.7,3-7.3,6.8-11c3.9-3.9,8-7.9,7.4-12.6c-0.4-3.3-3-6.5-8.1-9.6
		c-7.5-4.6-11.4-9.3-11.9-14.3c-0.9-8,7.1-15.8,14.1-22.7c6-5.9,11.1-10.9,10.5-15.7c-0.3-2.3-1.9-4.1-4.8-5.6
		c-10.7-5.8-22.5,9.1-35,24.9c-14.2,18-29,36.6-43.5,29c-11.5-6-18.1-15.3-19.4-27.8c-1-9.4,1.5-17.2,1.5-17.3l-2.5-0.8
		c-0.1,0.3-2.7,8.3-1.6,18.3c1,9.3,5.4,22,20.8,30c16.5,8.5,32.6-11.8,46.8-29.8c11.8-14.9,22.9-28.9,31.7-24.2
		c2.1,1.1,3.2,2.3,3.4,3.7c0.5,3.4-4.5,8.3-9.7,13.4c-7.4,7.3-15.9,15.6-14.9,24.9c0.7,5.9,5,11.2,13.2,16.2
		c4.3,2.6,6.6,5.2,6.8,7.7c0.4,3.5-3,6.9-6.7,10.5c-4.1,4.1-8.3,8.3-7.5,13.4c0.6,3.6,3.6,6.9,9.3,10.3c0.9-0.5,1.8-1,2.7-1.5
		C932.2,480.5,929.1,477.5,928.6,474.6z"/>
	<g id="Astronout_2_">
		<g id="Astronout_1_">
			
				<rect x="827.9" y="342.9" transform="matrix(0.6234 -0.7819 0.7819 0.6234 35.2122 815.099)" class="st54" width="71.7" height="56.2"/>
			<g>
				<circle class="st55" cx="895.1" cy="329.9" r="24.2"/>
				<circle class="st56" cx="895.1" cy="329.9" r="20.8"/>
				<circle class="st57" cx="895.1" cy="329.9" r="18.6"/>
				<path class="st29" d="M904.6,316.6L904.6,316.6L904.6,316.6c-6.4-5.1-15.5-4.3-21,1.6c-0.1,0.1-0.2,0.2-0.2,0.3l0,0l0,0l0,0
					c-0.9,1.1-0.7,2.8,0.4,3.6c1.1,0.9,2.8,0.7,3.6-0.4l0,0c3.6-3.9,9.7-4.4,13.9-1l0,0c1.1,0.9,2.8,0.7,3.6-0.4
					C905.9,319.1,905.8,317.5,904.6,316.6z"/>
			</g>
			<path class="st55" d="M866.8,402c-1.5,1.9-4.8,1.8-7.3-0.2l-25.9-20.6c-2.5-2-3.3-5.2-1.8-7.1l28.5-35.7c1.5-1.9,4.8-1.8,7.3,0.2
				l25.9,20.6c2.5,2,3.3,5.2,1.8,7.1L866.8,402z"/>
			
				<rect x="870.3" y="341.9" transform="matrix(0.6234 -0.7819 0.7819 0.6234 54.5614 819.0369)" class="st55" width="14.4" height="22"/>
			<g>
				<path class="st55" d="M943.5,364.5l-1.3-3.8c-1-3-4-4.8-6.5-3.9l-6,2.1l-0.4-2.2c-0.2-1.2-1.4-2-2.6-1.7c-1.2,0.2-2,1.4-1.7,2.6
					l0.5,2.5c0,0.1,0.1,0.2,0.1,0.3l-21.3,7.3l-8.8-7c-2.5-2-6.2-1.6-8.2,0.9l-1.5,1.9c-2,2.5-1.6,6.2,0.9,8.2l13.5,10.7
					c0.1,0.1,0.2,0.2,0.3,0.2c1.4,1.3,3.2,1.8,4.8,1.2l35.4-12.2C943.3,370.7,944.5,367.6,943.5,364.5z"/>
				<path class="st58" d="M906.5,366.9l-2.3,0.8l-1.1-0.9l-2.8,15.7c0.1,0,0.1,0.1,0.2,0.1c1.4,1.3,3.2,1.8,4.8,1.2l2.4-0.8
					L906.5,366.9z"/>
			</g>
			<g>
				<path class="st55" d="M851.4,291.1l4,0.4c3.2,0.3,5.5,2.8,5.2,5.5l-0.7,6.3l2.2-0.1c1.2,0,2.2,0.9,2.3,2.1
					c0,1.2-0.9,2.2-2.1,2.3l-2.5,0.1c-0.1,0-0.2,0-0.3,0l-2.4,22.4l8.8,7c2.5,2,2.9,5.7,0.9,8.2l-1.5,1.9c-2,2.5-5.7,2.9-8.2,0.9
					l-13.5-10.7c-0.1-0.1-0.2-0.2-0.3-0.3c-1.5-1-2.4-2.7-2.2-4.4l4-37.3C845.4,292.7,848.2,290.8,851.4,291.1z"/>
				<path class="st58" d="M857.3,327.7l-0.3,2.4l1.1,0.9l-14.7,6.2c-0.1,0-0.1-0.1-0.2-0.1c-1.5-1-2.4-2.7-2.2-4.4l0.3-2.5
					L857.3,327.7z"/>
			</g>
			
				<rect x="837.3" y="370" transform="matrix(0.6236 -0.7818 0.7818 0.6236 35.3617 814.4882)" class="st59" width="52.2" height="1.1"/>
			<g>
				<path class="st55" d="M828.5,445.3c-3.7-2.9-5.4-6.9-3.8-8.9l30.1-38.8c1.6-2,5.9-1.4,9.6,1.5l2.8,2.1c3.7,2.9,5.4,6.9,3.8,8.9
					L840.8,449c-1.6,2-5.9,1.4-9.6-1.5L828.5,445.3z"/>
				<path class="st60" d="M824.6,436.4l30.1-38.8c1.6-2,5.9-1.4,9.6,1.5l2.8,2.1c2.3,1.8,3.8,4,4.3,5.9c0.2-2.2-1.5-5.1-4.4-7.4
					l-2.8-2.1c-3.7-2.9-8-3.6-9.6-1.5l-30.1,38.8c-0.6,0.8-0.7,1.9-0.4,3C824.1,437.4,824.3,436.9,824.6,436.4z"/>
			</g>
			<g>
				<g>
					<path class="st55" d="M801.7,417.1c-3.7-2.9-5.5-6.9-3.9-8.9l29.9-38.8c1.6-2.1,5.9-1.4,9.6,1.5l2.8,2.1
						c3.7,2.9,5.5,6.9,3.9,8.9l-30,38.9c-1.6,2.1-5.9,1.4-9.6-1.5L801.7,417.1z"/>
				</g>
				<path class="st60" d="M844.2,382.1c1.6-2.1-0.2-6-3.9-8.9l-2.8-2.1c-2.8-2.1-5.8-3-7.9-2.5c1.6,0.4,3.3,1.2,4.9,2.4l2.8,2.1
					c3.7,2.9,5.5,6.9,3.9,8.9l-29.9,38.8c-0.4,0.5-1,0.9-1.7,1.1c2.1,0.5,3.8,0.2,4.7-1L844.2,382.1z"/>
			</g>
			<path class="st61" d="M846.5,363.3c-0.8,1-2.2,1.1-3.2,0.4l0,0c-1-0.8-1.1-2.2-0.4-3.2l20.1-25.2c0.8-1,2.2-1.1,3.2-0.4l0,0
				c1,0.8,1.1,2.2,0.4,3.2L846.5,363.3z"/>
			<path class="st61" d="M877.9,388.3c-0.8,1-2.2,1.1-3.2,0.4l0,0c-1-0.8-1.1-2.2-0.4-3.2l20.1-25.2c0.8-1,2.2-1.1,3.2-0.4l0,0
				c1,0.8,1.1,2.2,0.4,3.2L877.9,388.3z"/>
			<path class="st62" d="M809.8,427.8c-2,2.5-5.7,2.9-8.2,0.9l-9-7.2c-2.5-2-2.9-5.7-0.9-8.2l1.1-1.3c2-2.5,5.7-2.9,8.2-0.9l9,7.2
				c2.5,2,2.9,5.7,0.9,8.2L809.8,427.8z"/>
			<path class="st62" d="M836.2,455.6c-2,2.5-5.7,2.9-8.2,0.9l-9-7.2c-2.5-2-2.9-5.7-0.9-8.2l1.1-1.3c2-2.5,5.7-2.9,8.2-0.9l9,7.2
				c2.5,2,2.9,5.7,0.9,8.2L836.2,455.6z"/>
			
				<rect x="829.2" y="371.5" transform="matrix(0.6234 -0.7819 0.7819 0.6234 15.1471 792.9013)" class="st58" width="2.9" height="18.5"/>
			
				<rect x="856.3" y="399.7" transform="matrix(0.6234 -0.7819 0.7819 0.6234 2.3197 825.1254)" class="st58" width="2.9" height="20.9"/>
			
				<rect x="844" y="385.6" transform="matrix(0.6234 -0.7819 0.7819 0.6234 10.7696 809.8013)" class="st61" width="4.1" height="16.3"/>
			
				<rect x="859.7" y="346.6" transform="matrix(0.6235 -0.7818 0.7818 0.6235 51.8927 804.5464)" class="st63" width="3.2" height="3.6"/>
			
				<rect x="863.2" y="349.4" transform="matrix(0.6235 -0.7818 0.7818 0.6235 51.0394 808.335)" class="st64" width="3.2" height="3.6"/>
			
				<rect x="866.9" y="352.3" transform="matrix(0.6236 -0.7818 0.7818 0.6236 50.1419 812.2562)" class="st56" width="3.2" height="3.6"/>
		</g>
	</g>
</g>
</svg>
